<svg width="23" height="23" viewBox="0 0 23 23" fill="none" xmlns="http://www.w3.org/2000/svg">
<path d="M19.4063 21.8024H3.59379C3.32881 21.8024 3.11462 21.5877 3.11462 21.3232V3.11491C3.11462 2.85041 3.32881 2.63574 3.59379 2.63574H19.4063C19.6713 2.63574 19.8855 2.85041 19.8855 3.11491V21.3232C19.8855 21.5877 19.6713 21.8024 19.4063 21.8024Z" fill="#8C9EFF"/>
<path d="M19.4062 22.0418H3.59375C3.19748 22.0418 2.875 21.7194 2.875 21.3231V3.11475C2.875 2.71848 3.19748 2.396 3.59375 2.396H6.96804C7.10029 2.396 7.20762 2.50333 7.20762 2.63558C7.20762 2.76783 7.10029 2.87516 6.96804 2.87516H3.59375C3.4615 2.87516 3.35417 2.9825 3.35417 3.11475V21.3231C3.35417 21.4553 3.4615 21.5627 3.59375 21.5627H19.4062C19.5385 21.5627 19.6458 21.4553 19.6458 21.3231V3.11475C19.6458 2.9825 19.5385 2.87516 19.4062 2.87516H16.0727C15.9404 2.87516 15.8331 2.76783 15.8331 2.63558C15.8331 2.50333 15.9404 2.396 16.0727 2.396H19.4062C19.8025 2.396 20.125 2.71848 20.125 3.11475V21.3231C20.125 21.7194 19.8025 22.0418 19.4062 22.0418Z" fill="#0277BD"/>
<path d="M15.4862 20.3646H4.79171C4.65946 20.3646 4.55212 20.2572 4.55212 20.125V3.83333C4.55212 3.70108 4.65946 3.59375 4.79171 3.59375H18.2084C18.3406 3.59375 18.448 3.70108 18.448 3.83333V17.8566C18.448 17.9275 18.4163 17.9951 18.3617 18.0406L15.6396 20.309C15.5969 20.3449 15.5428 20.3646 15.4862 20.3646Z" fill="#F5F5F5"/>
<path d="M15.6567 20.1252H4.79163V3.8335H6.94788C7.08013 3.8335 7.18746 3.94083 7.18746 4.07308C7.18746 4.20533 7.08013 4.31266 6.94788 4.31266H5.27079V19.646H15.489L17.7291 17.8539V4.31266H16.052C15.9198 4.31266 15.8125 4.20533 15.8125 4.07308C15.8125 3.94083 15.9198 3.8335 16.052 3.8335H18.2083V18.0844L15.6567 20.1252Z" fill="white"/>
<path d="M15.4862 20.6045H4.79167C4.52765 20.6045 4.3125 20.3893 4.3125 20.1253V3.83366C4.3125 3.56964 4.52765 3.35449 4.79167 3.35449H6.94792C7.08017 3.35449 7.1875 3.46183 7.1875 3.59408C7.1875 3.72633 7.08017 3.83366 6.94792 3.83366H4.79167V20.1253H15.4862L18.2083 17.8569V3.83366H16.0521C15.9198 3.83366 15.8125 3.72633 15.8125 3.59408C15.8125 3.46183 15.9198 3.35449 16.0521 3.35449H18.2083C18.4724 3.35449 18.6875 3.56964 18.6875 3.83366V17.8569C18.6875 17.9988 18.6252 18.133 18.516 18.2245L15.7933 20.4933C15.7071 20.5652 15.5983 20.6045 15.4862 20.6045Z" fill="#0277BD"/>
<path d="M3.59371 20.6043C3.46146 20.6043 3.35413 20.497 3.35413 20.3647V4.07308C3.35413 3.94083 3.46146 3.8335 3.59371 3.8335C3.72596 3.8335 3.83329 3.94083 3.83329 4.07308V20.3647C3.83329 20.497 3.72596 20.6043 3.59371 20.6043Z" fill="#E8EAF6"/>
<path d="M15.573 20.1605V18.2088C15.573 18.0766 15.6803 17.9692 15.8126 17.9692H18.183C18.2731 17.9692 18.3134 18.0814 18.2444 18.1389L15.7302 20.2343C15.6679 20.286 15.573 20.2419 15.573 20.1605Z" fill="#EEEEEE"/>
<path d="M15.6697 20.4962C15.6214 20.4962 15.5725 20.4857 15.5265 20.4641C15.4072 20.408 15.3334 20.2921 15.3334 20.1603V18.2087C15.3334 17.9446 15.5485 17.7295 15.8125 17.7295H18.183C18.3262 17.7295 18.4504 17.8167 18.4987 17.9513C18.5471 18.086 18.5074 18.2317 18.3972 18.3232L15.8835 20.4181C15.8216 20.4694 15.7464 20.4962 15.6697 20.4962ZM15.8125 18.2087V19.8536L17.7862 18.2087H15.8125Z" fill="#0277BD"/>
<path d="M12.8565 2.15658C12.6586 1.5993 12.132 1.19824 11.5072 1.19824C10.8824 1.19824 10.3562 1.5993 10.1583 2.15658H8.15304C8.02126 2.15658 7.91345 2.26391 7.91345 2.39616V4.31283C7.91345 4.44508 8.02126 4.55241 8.15304 4.55241H14.8614C14.9936 4.55241 15.101 4.44508 15.101 4.31283V2.39616C15.101 2.26391 14.9936 2.15658 14.8614 2.15658H12.8565Z" fill="#EEEEEE"/>
<path d="M14.8613 4.79183H8.15299C7.88897 4.79183 7.67383 4.57668 7.67383 4.31266V2.396C7.67383 2.13198 7.88897 1.91683 8.15299 1.91683H9.99827C10.2738 1.33752 10.8603 0.958496 11.5072 0.958496C12.1545 0.958496 12.741 1.33752 13.0165 1.91683H14.8613C15.1253 1.91683 15.3405 2.13198 15.3405 2.396V4.31266C15.3405 4.57668 15.1253 4.79183 14.8613 4.79183ZM8.15299 2.396V4.31266H14.8613V2.396H12.8565C12.7554 2.396 12.6648 2.33227 12.6308 2.23643C12.4607 1.7587 12.0093 1.43766 11.5072 1.43766C11.005 1.43766 10.5536 1.7587 10.384 2.23643C10.35 2.33227 10.2594 2.396 10.1578 2.396H8.15299Z" fill="#0277BD"/>
<path d="M8.39266 3.83333C8.26041 3.83333 8.15308 3.726 8.15308 3.59375V2.39583H10.1579C10.259 2.39583 10.3501 2.3321 10.3836 2.23627C10.5532 1.75854 11.0051 1.4375 11.5072 1.4375C11.6395 1.4375 11.7468 1.54483 11.7468 1.67708C11.7468 1.80933 11.6395 1.91667 11.5072 1.91667C11.2078 1.91667 10.9375 2.10977 10.835 2.39679C10.7334 2.68285 10.4612 2.875 10.1574 2.875H8.63176V3.59375C8.63224 3.726 8.52491 3.83333 8.39266 3.83333Z" fill="white"/>
<path d="M8.86462 16.7708H6.94796C6.81571 16.7708 6.70837 16.6635 6.70837 16.5312V14.6146C6.70837 14.4823 6.81571 14.375 6.94796 14.375H8.86462C8.99687 14.375 9.10421 14.4823 9.10421 14.6146V16.5312C9.10421 16.6635 8.99687 16.7708 8.86462 16.7708ZM7.18754 16.2917H8.62504V14.8542H7.18754V16.2917Z" fill="#0277BD"/>
<path d="M8.86462 12.9378H6.94796C6.81571 12.9378 6.70837 12.8305 6.70837 12.6982V10.7816C6.70837 10.6493 6.81571 10.542 6.94796 10.542H8.86462C8.99687 10.542 9.10421 10.6493 9.10421 10.7816V12.6982C9.10421 12.8305 8.99687 12.9378 8.86462 12.9378ZM7.18754 12.4587H8.62504V11.0212H7.18754V12.4587Z" fill="#0277BD"/>
<path d="M8.86462 9.10433H6.94796C6.81571 9.10433 6.70837 8.997 6.70837 8.86475V6.94808C6.70837 6.81583 6.81571 6.7085 6.94796 6.7085H8.86462C8.99687 6.7085 9.10421 6.81583 9.10421 6.94808V8.86475C9.10421 8.997 8.99687 9.10433 8.86462 9.10433ZM7.18754 8.62516H8.62504V7.18766H7.18754V8.62516Z" fill="#0277BD"/>
<path d="M16.0521 16.2917H10.3021C10.1698 16.2917 10.0625 16.1843 10.0625 16.0521C10.0625 15.9198 10.1698 15.8125 10.3021 15.8125H16.0521C16.1843 15.8125 16.2917 15.9198 16.2917 16.0521C16.2917 16.1843 16.1843 16.2917 16.0521 16.2917Z" fill="#0277BD"/>
<path d="M16.0521 15.3337H10.3021C10.1698 15.3337 10.0625 15.2263 10.0625 15.0941C10.0625 14.9618 10.1698 14.8545 10.3021 14.8545H16.0521C16.1843 14.8545 16.2917 14.9618 16.2917 15.0941C16.2917 15.2263 16.1843 15.3337 16.0521 15.3337Z" fill="#0277BD"/>
<path d="M16.0521 12.4587H10.3021C10.1698 12.4587 10.0625 12.3513 10.0625 12.2191C10.0625 12.0868 10.1698 11.9795 10.3021 11.9795H16.0521C16.1843 11.9795 16.2917 12.0868 16.2917 12.2191C16.2917 12.3513 16.1843 12.4587 16.0521 12.4587Z" fill="#0277BD"/>
<path d="M16.0521 11.5002H10.3021C10.1698 11.5002 10.0625 11.3928 10.0625 11.2606C10.0625 11.1283 10.1698 11.021 10.3021 11.021H16.0521C16.1843 11.021 16.2917 11.1283 16.2917 11.2606C16.2917 11.3928 16.1843 11.5002 16.0521 11.5002Z" fill="#0277BD"/>
<path d="M16.0521 8.62516H10.3021C10.1698 8.62516 10.0625 8.51783 10.0625 8.38558C10.0625 8.25333 10.1698 8.146 10.3021 8.146H16.0521C16.1843 8.146 16.2917 8.25333 16.2917 8.38558C16.2917 8.51783 16.1843 8.62516 16.0521 8.62516Z" fill="#0277BD"/>
<path d="M16.0521 7.66667H10.3021C10.1698 7.66667 10.0625 7.55933 10.0625 7.42708C10.0625 7.29483 10.1698 7.1875 10.3021 7.1875H16.0521C16.1843 7.1875 16.2917 7.29483 16.2917 7.42708C16.2917 7.55933 16.1843 7.66667 16.0521 7.66667Z" fill="#0277BD"/>
</svg>
