<svg width="23" height="23" viewBox="0 0 23 23" fill="none" xmlns="http://www.w3.org/2000/svg">
<path d="M13.8957 9.104C14.5301 9.73997 14.8863 10.6016 14.8863 11.4998C14.8863 12.3981 14.5301 13.2597 13.8957 13.8957L9.10406 18.6873C8.46809 19.3217 7.60649 19.678 6.70823 19.678C5.80996 19.678 4.94836 19.3217 4.3124 18.6873C3.67803 18.0514 3.32178 17.1898 3.32178 16.2915C3.32178 15.3932 3.67803 14.5316 4.3124 13.8957" stroke="#2CA9BC" stroke-width="2" stroke-linecap="round" stroke-linejoin="round"/>
<path d="M18.6875 9.10406C19.3218 8.46809 19.6781 7.60649 19.6781 6.70823C19.6781 5.80996 19.3218 4.94836 18.6875 4.3124C18.0515 3.67803 17.1899 3.32178 16.2916 3.32178C15.3934 3.32178 14.5318 3.67803 13.8958 4.3124L9.10414 9.10406C8.46977 9.74003 8.11353 10.6016 8.11353 11.4999C8.11353 12.3982 8.46977 13.2598 9.10414 13.8957" stroke="black" stroke-width="2" stroke-linecap="round" stroke-linejoin="round"/>
</svg>
