<svg width="23" height="23" viewBox="0 0 23 23" fill="none" xmlns="http://www.w3.org/2000/svg">
<g clip-path="url(#clip0_974_642)">
<path d="M12.4087 11.0039H10.5913V16.5669H12.4087V11.0039Z" fill="#FFC26D"/>
<path d="M12.4087 11.0039V12.5444C12.1286 12.6609 11.8217 12.7256 11.5 12.7256C11.1783 12.7256 10.8714 12.6609 10.5913 12.5444V11.0039H12.4087Z" fill="#FF9A1B"/>
<path d="M16.8968 18.1772C16.766 18.1772 16.6408 18.1029 16.582 17.9766C16.5011 17.8028 16.5763 17.5963 16.7501 17.5154C18.2519 16.816 19.3578 15.8286 20.0371 14.5809C20.5821 13.5798 20.8593 12.4038 20.8612 11.0857C20.8643 8.80461 20.0318 6.86956 20.0234 6.85029C19.9468 6.67469 20.027 6.47011 20.2025 6.39339C20.378 6.3167 20.5826 6.39662 20.6594 6.57213C20.6959 6.65555 21.5534 8.64217 21.5553 11.0646C21.5571 13.335 20.7757 16.4064 17.0431 18.1447C16.9957 18.1667 16.9459 18.1772 16.8968 18.1772Z" fill="#FA8916"/>
<path d="M20.3563 4.05521C20.7372 5.15813 20.8385 6.76162 20.3398 6.93385C19.8412 7.10608 18.9314 5.78174 18.5505 4.67882C18.1696 3.5759 18.4619 3.11208 18.9606 2.93985C19.4592 2.76771 19.9754 2.95234 20.3563 4.05521Z" fill="#FFDBAA"/>
<path d="M20.3397 6.93363C20.2237 6.97383 20.085 6.93269 19.9357 6.83193C20.0947 6.25324 19.9662 5.15414 19.6825 4.33234C19.3811 3.46018 18.9952 3.16253 18.6 3.16113C18.6971 3.05943 18.8205 2.98783 18.9605 2.93976C19.4592 2.76784 19.9755 2.95225 20.3563 4.05504C20.7372 5.15832 20.8384 6.76171 20.3397 6.93363Z" fill="#FFC26D"/>
<path d="M21.2267 11.2134C20.9966 11.3835 20.5191 11.1695 20.02 10.7886C19.5989 10.467 19.1621 10.0269 18.8446 9.59753C18.1508 8.6588 18.2909 8.12913 18.7152 7.8153C19.1275 7.51069 19.6567 7.52273 20.3231 8.38563C20.3426 8.41011 20.3615 8.43554 20.3809 8.46191C21.0742 9.40019 21.651 10.8996 21.2267 11.2134Z" fill="#FFB54E"/>
<path d="M21.2267 11.2135C20.9965 11.3836 20.5191 11.1696 20.0199 10.7887C19.9927 10.5918 19.9848 10.3695 19.9964 10.1227C20.0218 9.57267 20.142 8.94039 20.3231 8.38574C20.3425 8.41022 20.3615 8.43565 20.3809 8.46202C21.0742 9.40026 21.651 10.8997 21.2267 11.2135Z" fill="#FF9A1B"/>
<path d="M21.0134 8.37379C20.6023 9.46575 20.4568 11.0659 20.9505 11.2518C21.4441 11.4377 22.3902 10.139 22.8013 9.04698C23.2124 7.95502 22.9331 7.4833 22.4394 7.29737C21.9457 7.11148 21.4246 7.28182 21.0134 8.37379Z" fill="#FFDBAA"/>
<path d="M22.8015 9.04696C22.3901 10.1386 21.4445 11.4374 20.9504 11.2516C20.8353 11.2086 20.7553 11.0885 20.705 10.9161C21.1977 10.5768 21.805 9.64365 22.1128 8.82648C22.4368 7.96542 22.3319 7.49028 22.031 7.23652C22.1673 7.22218 22.3046 7.24622 22.4396 7.29707C22.9332 7.48332 23.2124 7.95477 22.8015 9.04696Z" fill="#FFC26D"/>
<path d="M20.0361 15.9164C19.7574 15.982 19.4033 15.5966 19.0951 15.0493C18.8348 14.5881 18.6074 14.0108 18.485 13.4913C18.2178 12.3556 18.5557 11.9235 19.0692 11.8028C19.5688 11.6854 20.0504 11.9054 20.3222 12.962C20.3301 12.9921 20.3375 13.0226 20.3448 13.054C20.6115 14.1901 20.5496 15.7953 20.0361 15.9164Z" fill="#FFB54E"/>
<path d="M20.0361 15.9163C19.7574 15.9819 19.4033 15.5964 19.0951 15.0492C19.1473 14.8574 19.2277 14.6503 19.3359 14.428C19.5767 13.9325 19.9368 13.3996 20.3223 12.9619C20.3301 12.992 20.3375 13.0225 20.3449 13.0539C20.6116 14.19 20.5496 15.7952 20.0361 15.9163Z" fill="#FF9A1B"/>
<path d="M20.9607 13.2229C20.152 14.064 19.3868 15.4768 19.7671 15.8424C20.1474 16.2081 21.5291 15.3881 22.3378 14.547C23.1466 13.7059 23.076 13.1623 22.6958 12.7966C22.3155 12.431 21.7694 12.3818 20.9607 13.2229Z" fill="#FFDBAA"/>
<path d="M22.3378 14.5471C21.5289 15.3883 20.1474 16.2082 19.767 15.8426C19.7083 15.7862 19.6769 15.7044 19.6691 15.6037C20.2561 15.4313 21.0954 14.8568 21.6579 14.2721C22.4455 13.453 22.3992 12.916 22.0452 12.5504C22.3049 12.5245 22.5185 12.6262 22.6955 12.7967C23.0759 13.1623 23.1467 13.7063 22.3378 14.5471Z" fill="#FFC26D"/>
<path d="M6.10312 18.1774C6.05406 18.1774 6.0042 18.1669 5.95681 18.1449C2.2242 16.4065 1.44283 13.3352 1.44458 11.0647C1.44647 8.64233 2.30398 6.65566 2.3405 6.57224C2.41737 6.39664 2.62199 6.31659 2.79767 6.39349C2.97318 6.47036 3.05324 6.67489 2.97651 6.85044C2.96811 6.86976 2.13562 8.80477 2.13876 11.0858C2.1406 12.404 2.41786 13.58 2.96285 14.581C3.64212 15.8288 4.748 16.8161 6.24988 17.5156C6.42363 17.5965 6.49888 17.803 6.41797 17.9767C6.35913 18.1031 6.23388 18.1774 6.10312 18.1774Z" fill="#FA8916"/>
<path d="M2.64365 4.05525C2.26276 5.15817 2.16146 6.76166 2.66009 6.93389C3.15873 7.10612 4.06853 5.78177 4.44942 4.67885C4.83032 3.57593 4.53805 3.11211 4.03938 2.93988C3.5407 2.76765 3.02455 2.95237 2.64365 4.05525Z" fill="#FFDBAA"/>
<path d="M4.44939 4.6792C4.06854 5.78203 3.15892 7.10619 2.6602 6.93383C2.53769 6.89178 2.45126 6.76326 2.39673 6.57657C2.88202 6.22945 3.46951 5.27226 3.75651 4.4412C4.04401 3.60831 3.94788 3.13964 3.66869 2.88682C3.79164 2.87666 3.91599 2.89746 4.03939 2.93996C4.53815 3.11233 4.83024 3.57592 4.44939 4.6792Z" fill="#FFC26D"/>
<path d="M1.77329 11.2134C2.00347 11.3835 2.4809 11.1695 2.98007 10.7886C3.40112 10.467 3.8379 10.0269 4.15545 9.59753C4.84922 8.6588 4.70916 8.12913 4.28487 7.8153C3.87258 7.51069 3.34335 7.52273 2.67689 8.38563C2.65749 8.41011 2.63853 8.43554 2.61912 8.46191C1.92584 9.40019 1.349 10.8996 1.77329 11.2134Z" fill="#FFB54E"/>
<path d="M4.15535 9.59744C3.8378 10.0268 3.40103 10.4668 2.97997 10.7885C2.4808 11.1694 2.00333 11.3834 1.77319 11.2133C1.71079 11.1671 1.66965 11.0946 1.64795 11.0026C1.84116 10.9184 2.05885 10.7821 2.28072 10.6129C2.70177 10.2912 3.13855 9.8512 3.4561 9.4218C4.13878 8.49834 4.01398 7.9705 3.60587 7.65529C3.86053 7.59523 4.08653 7.66867 4.28482 7.81521C4.70911 8.12903 4.84913 8.65871 4.15535 9.59744Z" fill="#FF9A1B"/>
<path d="M1.77329 11.2135C2.00347 11.3836 2.4809 11.1696 2.98007 10.7887C3.00734 10.5918 3.0152 10.3695 3.00365 10.1227C2.97823 9.57267 2.85806 8.94039 2.67689 8.38574C2.65749 8.41022 2.63853 8.43565 2.61912 8.46202C1.92584 9.40026 1.349 10.8997 1.77329 11.2135Z" fill="#FF9A1B"/>
<path d="M1.98654 8.37427C2.39771 9.46623 2.54321 11.0664 2.04952 11.2523C1.55583 11.4382 0.609817 10.1395 0.198647 9.04747C-0.212522 7.95547 0.0668467 7.48379 0.560538 7.29786C1.05427 7.11197 1.57537 7.28231 1.98654 8.37427Z" fill="#FFDBAA"/>
<path d="M2.04969 11.2519C1.92535 11.2985 1.77239 11.2514 1.60645 11.1368C1.78672 10.5794 1.6277 9.41783 1.30696 8.56602C1.01438 7.78955 0.666818 7.47941 0.312744 7.43179C0.385787 7.37541 0.469432 7.33148 0.560488 7.29729C1.05413 7.1115 1.5755 7.28207 1.98635 8.37376C2.3977 9.46594 2.54334 11.0661 2.04969 11.2519Z" fill="#FFC26D"/>
<path d="M2.96392 15.9164C3.24261 15.982 3.59669 15.5966 3.90494 15.0493C4.16517 14.5881 4.39257 14.0108 4.51503 13.4913C4.78218 12.3556 4.44432 11.9235 3.93082 11.8028C3.4312 11.6854 2.94959 11.9054 2.67781 12.962C2.66995 12.9921 2.66254 13.0226 2.65517 13.054C2.38847 14.1901 2.45042 15.7953 2.96392 15.9164Z" fill="#FFB54E"/>
<path d="M4.51508 13.4915C4.39258 14.011 4.16518 14.5883 3.905 15.0496C3.5967 15.5968 3.24267 15.9823 2.96397 15.9166C2.83271 15.8857 2.73101 15.7577 2.65662 15.5654C2.83689 15.4115 3.02408 15.1554 3.19644 14.8489C3.45667 14.3877 3.68407 13.8104 3.80653 13.2909C4.00018 12.4682 3.87584 12.0143 3.59759 11.7813C3.70622 11.7674 3.81807 11.7767 3.93083 11.8031C4.44437 11.9237 4.78223 12.3559 4.51508 13.4915Z" fill="#FF9A1B"/>
<path d="M2.96393 15.9163C3.24262 15.9819 3.5967 15.5964 3.90495 15.0492C3.85271 14.8574 3.7723 14.6503 3.66413 14.428C3.4233 13.9325 3.06325 13.3996 2.67778 12.9619C2.66992 12.992 2.6625 13.0225 2.65514 13.0539C2.38848 14.19 2.45043 15.7952 2.96393 15.9163Z" fill="#FF9A1B"/>
<path d="M2.03925 13.2229C2.84798 14.064 3.61318 15.4768 3.23287 15.8425C2.85256 16.2081 1.47085 15.3881 0.662125 14.547C-0.146603 13.706 -0.076076 13.1623 0.304188 12.7966C0.684451 12.431 1.23052 12.3819 2.03925 13.2229Z" fill="#FFDBAA"/>
<path d="M3.23292 15.8424C3.11136 15.9594 2.8872 15.9552 2.61219 15.8674C2.71434 15.3428 2.03813 14.1646 1.32868 13.427C0.940418 13.023 0.612713 12.8247 0.334961 12.7679C0.713518 12.4291 1.25195 12.4042 2.03907 13.2232C2.84789 14.0639 3.61327 15.4768 3.23292 15.8424Z" fill="#FFC26D"/>
<path d="M16.9825 16.3945V20.5821H6.01746V16.3945C6.01746 16.139 6.22432 15.9321 6.4793 15.9321H16.5206C16.7757 15.9321 16.9825 16.139 16.9825 16.3945Z" fill="#EFE2DD"/>
<path d="M16.9826 16.3943V20.5823H15.9195V16.3943C15.9195 16.1392 15.7124 15.9321 15.4573 15.9321H16.5204C16.7755 15.9321 16.9826 16.1392 16.9826 16.3943Z" fill="#CDBFBB"/>
<path d="M18.8638 21.9119H4.13615C3.8809 21.9119 3.67395 21.7049 3.67395 21.4497V20.2781C3.67395 20.0229 3.8809 19.8159 4.13615 19.8159H18.8638C19.119 19.8159 19.326 20.0229 19.326 20.2781V21.4497C19.326 21.705 19.1191 21.9119 18.8638 21.9119Z" fill="#FFF5F5"/>
<path d="M19.326 20.2781V21.4498C19.326 21.7049 19.119 21.912 18.8638 21.912H17.8433C18.0984 21.912 18.3055 21.7049 18.3055 21.4498V20.2781C18.3055 20.023 18.0984 19.8159 17.8433 19.8159H18.8638C19.1189 19.8159 19.326 20.023 19.326 20.2781Z" fill="#EFE2DD"/>
<path d="M13.376 18.177H9.62404C9.43236 18.177 9.27698 18.0217 9.27698 17.83C9.27698 17.6383 9.43236 17.4829 9.62404 17.4829H13.376C13.5676 17.4829 13.723 17.6383 13.723 17.83C13.723 18.0217 13.5676 18.177 13.376 18.177Z" fill="#FFC26D"/>
<path d="M13.2217 10.3569C13.2217 10.7808 13.0682 11.1695 12.814 11.4695C12.4978 11.842 12.0264 12.0787 11.5 12.0787C10.9736 12.0787 10.5021 11.842 10.186 11.4695C9.93177 11.1695 9.77832 10.7808 9.77832 10.3569C9.77832 9.4062 10.5493 8.63525 11.5 8.63525C12.4507 8.63525 13.2217 9.4062 13.2217 10.3569Z" fill="#FFDBAA"/>
<path d="M13.2217 10.3569C13.2217 10.7808 13.0682 11.1695 12.814 11.4695L11.5 10.7785L10.186 11.4695C9.93177 11.1695 9.77832 10.7808 9.77832 10.3569C9.77832 9.4062 10.5493 8.63525 11.5 8.63525C12.4507 8.63525 13.2217 9.4062 13.2217 10.3569Z" fill="#FFC26D"/>
<path d="M16.8111 5.63174L14.5662 7.8193L15.0961 10.9089C15.1753 11.3716 14.69 11.7241 14.2741 11.506L11.5 10.0476L8.72595 11.5059C8.31002 11.7241 7.82469 11.3716 7.90393 10.9088L8.19076 9.23609L8.43383 7.81925L6.1889 5.63169C5.85298 5.30408 6.03868 4.73267 6.50291 4.66547L9.60458 4.21481L10.992 1.40378C11.1996 0.982594 11.8005 0.982594 12.008 1.40378L13.3954 4.21481L14.4288 4.36503L16.4971 4.66547C16.9613 4.73272 17.147 5.30412 16.8111 5.63174Z" fill="#FFCE8B"/>
<path d="M16.8112 5.6319L14.5662 7.81946L15.0961 10.909C15.1754 11.3718 14.69 11.7243 14.2741 11.5062L11.5 10.0477L8.72599 11.5061C8.31005 11.7242 7.82472 11.3717 7.90396 10.909L8.19079 9.23625C12.4957 8.45047 13.9495 6.08704 14.4289 4.36523L16.4972 4.66567C16.9614 4.73288 17.147 5.30428 16.8112 5.6319Z" fill="#FFB54E"/>
</g>
<defs>
<clipPath id="clip0_974_642">
<rect width="23" height="23" fill="white"/>
</clipPath>
</defs>
</svg>
