<svg width="23" height="23" viewBox="0 0 23 23" fill="none" xmlns="http://www.w3.org/2000/svg">
<g clip-path="url(#clip0_974_715)">
<path d="M8.12945 15.069C12.2906 15.069 15.6639 11.6957 15.6639 7.53448C15.6639 3.3733 12.2906 0 8.12945 0C3.96827 0 0.594971 3.3733 0.594971 7.53448C0.594971 11.6957 3.96827 15.069 8.12945 15.069Z" fill="#F5DCB4"/>
<path d="M15.3913 5.55158H14.857C14.6873 5.55158 14.5408 5.44184 14.4841 5.28192C13.467 2.41262 10.5633 0.436241 7.26379 0.846962C4.21391 1.22664 1.76822 3.71123 1.4305 6.76605C0.980879 10.8333 4.15308 14.2757 8.1293 14.2757C8.51482 14.2757 8.89126 14.2398 9.25827 14.1756C9.49802 14.1336 9.71549 14.3223 9.71549 14.5657V14.8983C13.1144 14.1694 15.6638 11.1509 15.6638 7.53435C15.6638 6.847 15.5638 6.18435 15.3913 5.55158Z" fill="#EBC9A0"/>
<path d="M8.12944 13.483C11.4146 13.483 14.0777 10.8199 14.0777 7.53471C14.0777 4.24956 11.4146 1.58643 8.12944 1.58643C4.84429 1.58643 2.18115 4.24956 2.18115 7.53471C2.18115 10.8199 4.84429 13.483 8.12944 13.483Z" fill="white"/>
<path d="M8.1294 9.12062C9.00543 9.12062 9.7156 8.41046 9.7156 7.53443C9.7156 6.6584 9.00543 5.94824 8.1294 5.94824C7.25337 5.94824 6.54321 6.6584 6.54321 7.53443C6.54321 8.41046 7.25337 9.12062 8.1294 9.12062Z" fill="#E4EAF8"/>
<path d="M19.2329 6.34473H11.3019C10.8639 6.34473 10.5088 6.69979 10.5088 7.13782V22.2068C10.5088 22.6448 10.8639 22.9999 11.3019 22.9999H21.6122C22.0502 22.9999 22.4053 22.6448 22.4053 22.2068V9.51715L19.2329 6.34473Z" fill="#E4EAF8"/>
<path d="M19.2327 6.34473V8.72406C19.2327 9.16205 19.5878 9.51715 20.0258 9.51715H22.4051L19.2327 6.34473Z" fill="#D5DCED"/>
<path d="M20.4223 15.4655H16.8534C16.6342 15.4655 16.4568 15.2879 16.4568 15.0689C16.4568 14.8499 16.6341 14.6724 16.8534 14.6724H20.4223C20.6415 14.6724 20.8189 14.8499 20.8189 15.0689C20.8189 15.2879 20.6415 15.4655 20.4223 15.4655Z" fill="#707487"/>
<path d="M19.6292 17.0519H16.8534C16.6342 17.0519 16.4568 16.8744 16.4568 16.6554C16.4568 16.4364 16.6341 16.2588 16.8534 16.2588H19.6292C19.8484 16.2588 20.0258 16.4364 20.0258 16.6554C20.0257 16.8744 19.8484 17.0519 19.6292 17.0519Z" fill="#959CB5"/>
<path d="M13.6812 17.0516C13.5797 17.0516 13.4782 17.0129 13.4008 16.9354L12.2111 15.7458C12.0562 15.5909 12.0562 15.3399 12.2111 15.185C12.366 15.0301 12.617 15.0301 12.7719 15.185L13.6812 16.0944L14.987 14.7885C15.1419 14.6336 15.3929 14.6336 15.5478 14.7885C15.7026 14.9434 15.7026 15.1944 15.5478 15.3493L13.9616 16.9355C13.8841 17.0129 13.7826 17.0516 13.6812 17.0516Z" fill="#464655"/>
<path d="M20.4223 11.5002H16.8534C16.6342 11.5002 16.4568 11.3226 16.4568 11.1036C16.4568 10.8846 16.6341 10.707 16.8534 10.707H20.4223C20.6415 10.707 20.8189 10.8846 20.8189 11.1036C20.8189 11.3226 20.6415 11.5002 20.4223 11.5002Z" fill="#707487"/>
<path d="M19.6292 13.0861H16.8534C16.6342 13.0861 16.4568 12.9085 16.4568 12.6895C16.4568 12.4705 16.6341 12.293 16.8534 12.293H19.6292C19.8484 12.293 20.0258 12.4705 20.0258 12.6895C20.0258 12.9085 19.8484 13.0861 19.6292 13.0861Z" fill="#959CB5"/>
<path d="M13.6812 13.0863C13.5797 13.0863 13.4782 13.0476 13.4008 12.9701L12.2111 11.7804C12.0562 11.6255 12.0562 11.3746 12.2111 11.2197C12.366 11.0648 12.617 11.0648 12.7719 11.2197L13.6812 12.129L14.987 10.8232C15.1419 10.6683 15.3929 10.6683 15.5478 10.8232C15.7026 10.9781 15.7026 11.2291 15.5478 11.384L13.9616 12.9702C13.8841 13.0476 13.7826 13.0863 13.6812 13.0863Z" fill="#464655"/>
<path d="M20.4223 19.4308H16.8534C16.6342 19.4308 16.4568 19.2533 16.4568 19.0343C16.4568 18.8153 16.6341 18.6377 16.8534 18.6377H20.4223C20.6415 18.6377 20.8189 18.8153 20.8189 19.0343C20.8188 19.2533 20.6415 19.4308 20.4223 19.4308Z" fill="#707487"/>
<path d="M19.6292 21.0173H16.8534C16.6342 21.0173 16.4568 20.8397 16.4568 20.6207C16.4568 20.4017 16.6341 20.2241 16.8534 20.2241H19.6292C19.8484 20.2241 20.0258 20.4017 20.0258 20.6207C20.0258 20.8397 19.8484 21.0173 19.6292 21.0173Z" fill="#959CB5"/>
<path d="M13.6809 21.0169C13.5794 21.0169 13.478 20.9782 13.4006 20.9008L12.2109 19.7111C12.056 19.5562 12.056 19.3052 12.2109 19.1503C12.3658 18.9955 12.6168 18.9955 12.7717 19.1503L13.6809 20.0597L14.9868 18.7539C15.1416 18.599 15.3926 18.599 15.5475 18.7539C15.7024 18.9088 15.7024 19.1597 15.5475 19.3146L13.9613 20.9008C13.8838 20.9782 13.7824 21.0169 13.6809 21.0169Z" fill="#464655"/>
<path d="M8.12926 7.93085C8.02778 7.93085 7.9263 7.89213 7.8489 7.81468L4.67647 4.64226C4.52158 4.48737 4.52158 4.23639 4.67647 4.0815C4.83136 3.92661 5.08234 3.92661 5.23723 4.0815L8.12921 6.97361L11.4178 3.68502C11.5727 3.53012 11.8237 3.53012 11.9786 3.68502C12.1335 3.83991 12.1335 4.09088 11.9786 4.24578L8.40961 7.81473C8.33217 7.89213 8.23069 7.93085 8.12926 7.93085Z" fill="#464655"/>
<path d="M17.6465 9.12029H12.4913C12.2721 9.12029 12.0947 8.94271 12.0947 8.72372C12.0947 8.50472 12.2721 8.32715 12.4913 8.32715H17.6465C17.8657 8.32715 18.0431 8.50472 18.0431 8.72372C18.0431 8.94271 17.8657 9.12029 17.6465 9.12029Z" fill="#707487"/>
<path d="M8.12928 8.3274C8.56729 8.3274 8.92237 7.97232 8.92237 7.53431C8.92237 7.09629 8.56729 6.74121 8.12928 6.74121C7.69126 6.74121 7.33618 7.09629 7.33618 7.53431C7.33618 7.97232 7.69126 8.3274 8.12928 8.3274Z" fill="#707487"/>
<path d="M3.86284 4.61355L3.18775 4.22363C3.04077 4.44258 2.91323 4.67474 2.7959 4.91296L3.46627 5.30014C3.52862 5.33635 3.59677 5.35337 3.66415 5.35337C3.80125 5.35337 3.93444 5.28231 4.00807 5.15509C4.11759 4.96561 4.05259 4.72298 3.86284 4.61355Z" fill="#D5DCED"/>
<path d="M5.20815 3.26843C5.28173 3.3956 5.41497 3.46671 5.55207 3.46671C5.61945 3.46671 5.6876 3.44964 5.74995 3.41366C5.9397 3.30405 6.00479 3.06147 5.89518 2.87186L5.50795 2.20117C5.26964 2.31855 5.03735 2.44613 4.81836 2.5932L5.20815 3.26843Z" fill="#D5DCED"/>
<path d="M2.20119 7.93132H2.97425C3.19342 7.93132 3.37082 7.75375 3.37082 7.53475C3.37082 7.31576 3.19347 7.13818 2.97425 7.13818H2.20119C2.19247 7.26985 2.18115 7.40084 2.18115 7.53475C2.18115 7.66867 2.19243 7.79966 2.20119 7.93132Z" fill="#C7CFE2"/>
<path d="M8.12948 1.58643C7.99561 1.58643 7.86458 1.59775 7.73291 1.60646V2.37952C7.73291 2.59852 7.91026 2.77609 8.12948 2.77609C8.3487 2.77609 8.52605 2.59852 8.52605 2.37952V1.60646C8.39434 1.59775 8.26335 1.58643 8.12948 1.58643Z" fill="#C7CFE2"/>
<path d="M3.46627 9.76886L2.7959 10.156C2.91323 10.3943 3.04077 10.6265 3.18775 10.8454L3.86284 10.4554C4.05259 10.3461 4.11768 10.1034 4.00807 9.91386C3.89842 9.72416 3.65521 9.65871 3.46627 9.76886Z" fill="#D5DCED"/>
<path d="M5.74979 11.6554C5.56045 11.5456 5.3176 11.6107 5.20799 11.8006L4.81812 12.4758C5.03711 12.6228 5.2694 12.7505 5.50771 12.8678L5.89494 12.1972C6.00464 12.0076 5.93954 11.765 5.74979 11.6554Z" fill="#D5DCED"/>
<path d="M8.12924 12.293C7.91006 12.293 7.73267 12.4705 7.73267 12.6895V13.4626C7.86433 13.4713 7.99532 13.4826 8.12924 13.4826C8.26315 13.4826 8.39414 13.4713 8.52581 13.4626V12.6895C8.52576 12.4705 8.34841 12.293 8.12924 12.293Z" fill="#C7CFE2"/>
<path d="M10.7505 2.20117L10.3633 2.87186C10.2537 3.06143 10.3188 3.30405 10.5085 3.41366C10.5709 3.44969 10.639 3.46671 10.7064 3.46671C10.8435 3.46671 10.9767 3.39564 11.0503 3.26843L11.4402 2.59325C11.2211 2.44613 10.9888 2.31851 10.7505 2.20117Z" fill="#D5DCED"/>
<path d="M12.7921 5.30014L13.4624 4.91296C13.3451 4.67474 13.2176 4.44254 13.0706 4.22363L12.3955 4.61355C12.2057 4.72294 12.1406 4.96561 12.2503 5.15513C12.3238 5.28231 12.4571 5.35342 12.5942 5.35342C12.6616 5.35337 12.7298 5.33635 12.7921 5.30014Z" fill="#D5DCED"/>
</g>
<defs>
<clipPath id="clip0_974_715">
<rect width="23" height="23" fill="white"/>
</clipPath>
</defs>
</svg>
