<svg width="23" height="23" viewBox="0 0 23 23" fill="none" xmlns="http://www.w3.org/2000/svg">
<path d="M14.8542 5.271C14.8542 6.7085 13.3525 8.62516 11.5 8.62516C9.64758 8.62516 8.14587 6.7085 8.14587 5.271H14.8542Z" fill="#7D50F9"/>
<path d="M14.8542 17.7292C14.8542 16.8396 14.5008 15.9864 13.8718 15.3574C13.2428 14.7284 12.3896 14.375 11.5 14.375C10.6105 14.375 9.75732 14.7284 9.12829 15.3574C8.49926 15.9864 8.14587 16.8396 8.14587 17.7292H14.8542Z" fill="#7D50F9"/>
<path d="M18.2083 5.27083V4.79167C18.2083 4.5375 18.3093 4.29374 18.489 4.11402C18.6687 3.9343 18.9125 3.83333 19.1667 3.83333C19.4208 3.83333 19.6646 3.73237 19.8443 3.55264C20.024 3.37292 20.125 3.12917 20.125 2.875V0.958333C20.125 0.704167 20.024 0.460411 19.8443 0.280689C19.6646 0.100966 19.4208 0 19.1667 0H3.83333C3.57917 0 3.33541 0.100966 3.15569 0.280689C2.97597 0.460411 2.875 0.704167 2.875 0.958333V2.875C2.875 3.12917 2.97597 3.37292 3.15569 3.55264C3.33541 3.73237 3.57917 3.83333 3.83333 3.83333C4.0875 3.83333 4.33126 3.9343 4.51098 4.11402C4.6907 4.29374 4.79167 4.5375 4.79167 4.79167V5.27083C4.79366 6.61332 5.19804 7.92439 5.95259 9.03477C6.70713 10.1451 7.7772 11.0038 9.02463 11.5C7.7772 11.9962 6.70713 12.8549 5.95259 13.9652C5.19804 15.0756 4.79366 16.3867 4.79167 17.7292V18.2083C4.79167 18.4625 4.6907 18.7063 4.51098 18.886C4.33126 19.0657 4.0875 19.1667 3.83333 19.1667C3.57917 19.1667 3.33541 19.2676 3.15569 19.4474C2.97597 19.6271 2.875 19.8708 2.875 20.125V22.0417C2.875 22.2958 2.97597 22.5396 3.15569 22.7193C3.33541 22.899 3.57917 23 3.83333 23H19.1667C19.4208 23 19.6646 22.899 19.8443 22.7193C20.024 22.5396 20.125 22.2958 20.125 22.0417V20.125C20.125 19.8708 20.024 19.6271 19.8443 19.4474C19.6646 19.2676 19.4208 19.1667 19.1667 19.1667C18.9125 19.1667 18.6687 19.0657 18.489 18.886C18.3093 18.7063 18.2083 18.4625 18.2083 18.2083V17.7292C18.2063 16.3867 17.802 15.0756 17.0474 13.9652C16.2929 12.8549 15.2228 11.9962 13.9754 11.5C15.2228 11.0038 16.2929 10.1451 17.0474 9.03477C17.802 7.92439 18.2063 6.61332 18.2083 5.27083ZM3.83333 0.958333H19.1667V2.875H3.83333V0.958333ZM19.1667 22.0417H3.83333V20.125H19.1667V22.0417ZM17.25 17.7292V18.2083C17.252 18.5458 17.344 18.8766 17.5164 19.1667H5.48358C5.65605 18.8766 5.74801 18.5458 5.75 18.2083V17.7292C5.7521 16.2882 6.29478 14.9004 7.27075 13.8403C8.24672 12.7801 9.58493 12.1247 11.0208 12.0036V12.9375H11.9792V12.0036C13.4151 12.1247 14.7533 12.7801 15.7293 13.8403C16.7052 14.9004 17.2479 16.2882 17.25 17.7292ZM11.9792 10.9964V10.0625H11.0208V10.9964C9.58493 10.8753 8.24672 10.2199 7.27075 9.15975C6.29478 8.09958 5.7521 6.71183 5.75 5.27083V4.79167C5.74801 4.45421 5.65605 4.12339 5.48358 3.83333H17.5164C17.344 4.12339 17.252 4.45421 17.25 4.79167V5.27083C17.2479 6.71183 16.7052 8.09958 15.7293 9.15975C14.7533 10.2199 13.4151 10.8753 11.9792 10.9964Z" fill="#303033"/>
</svg>
