<svg width="23" height="23" viewBox="0 0 23 23" fill="none" xmlns="http://www.w3.org/2000/svg">
<g clip-path="url(#clip0_974_606)">
<path d="M13.4244 10.7982L8.7777 7.5018C8.27887 7.14769 7.58728 7.26525 7.23325 7.76431L7.18743 7.82879C6.8336 8.32774 6.951 9.01922 7.45002 9.37325L12.0966 12.6699C12.5957 13.0238 13.2871 12.9063 13.6412 12.4074L13.6869 12.3428C14.0411 11.8437 13.9234 11.1522 13.4244 10.7982Z" fill="#F39A2B"/>
<path d="M13.1411 9.50983L13.0766 9.46415C12.5776 9.11009 11.8861 9.2277 11.5321 9.72665L6.26674 17.1483C5.91272 17.6473 6.0303 18.3389 6.52931 18.6928L6.5938 18.7387C7.09284 19.0927 7.78432 18.9752 8.13826 18.4761L13.4036 11.0544C13.7578 10.5553 13.6402 9.86395 13.1411 9.50983Z" fill="#E5594F"/>
<path d="M20.0276 11.7948C20.0194 12.9202 19.8455 13.856 19.4098 14.996C19.1126 15.7737 18.4164 16.8418 17.8257 17.4916C16.4108 19.0483 14.4009 20.0362 12.4177 20.2232C10.1543 20.4366 8.15866 19.8306 6.32437 18.4588C6.49619 18.5874 6.1551 18.3149 6.16577 18.3239C6.0633 18.238 5.96436 18.1482 5.86549 18.0583C5.66777 17.8785 5.4813 17.6869 5.29891 17.4917C4.89129 17.0553 4.71071 16.8061 4.36816 16.2594C3.75924 15.2876 3.4539 14.4562 3.22249 13.2825C3.13231 12.8253 3.10131 12.3885 3.09702 11.7949C3.0851 10.1478 0.529963 10.1467 0.541912 11.7949C0.578007 16.7921 4.0031 21.2317 8.85455 22.4799C13.7169 23.7309 18.9404 21.3735 21.2959 16.9648C22.1439 15.3776 22.5698 13.5906 22.5827 11.7948C22.5946 10.1466 20.0395 10.1478 20.0276 11.7948Z" fill="#4A5699"/>
<path d="M3.09696 11.2635C3.10509 10.1382 3.27896 9.20248 3.71468 8.06241C4.0119 7.28479 4.70819 6.21673 5.29885 5.56682C6.71373 4.01008 8.72351 3.02222 10.7067 2.83524C12.9702 2.62186 14.9659 3.22783 16.8002 4.59963C16.6283 4.47113 16.9694 4.74356 16.9587 4.73462C17.0612 4.8204 17.1601 4.91029 17.259 5.00018C17.4567 5.17986 17.6433 5.37157 17.8257 5.56675C18.2333 6.00317 18.4139 6.2524 18.7564 6.7991C19.3653 7.77085 19.6708 8.60226 19.9021 9.77591C19.9923 10.233 20.0233 10.6699 20.0276 11.2635C20.0395 12.9106 22.5946 12.9118 22.5827 11.2635C22.5466 6.26623 19.1214 1.82672 14.27 0.57854C9.40758 -0.672534 4.1842 1.68497 1.82874 6.09362C0.980776 7.6808 0.554872 9.46768 0.541912 11.2635C0.529918 12.9118 3.08505 12.9106 3.09696 11.2635Z" fill="#C45FA0"/>
</g>
<defs>
<clipPath id="clip0_974_606">
<rect width="23" height="23" fill="white"/>
</clipPath>
</defs>
</svg>
