<svg width="21" height="21" viewBox="0 0 21 21" fill="none" xmlns="http://www.w3.org/2000/svg">
<path d="M0.916748 10.4998C0.916748 5.98221 0.916748 3.72339 2.3202 2.31995C3.72364 0.916504 5.98245 0.916504 10.5001 0.916504C15.0177 0.916504 17.2765 0.916504 18.6799 2.31995C20.0834 3.72339 20.0834 5.98221 20.0834 10.4998C20.0834 15.0174 20.0834 17.2763 18.6799 18.6797C17.2765 20.0832 15.0177 20.0832 10.5001 20.0832C5.98245 20.0832 3.72364 20.0832 2.3202 18.6797C0.916748 17.2763 0.916748 15.0174 0.916748 10.4998Z" stroke="#49556F" stroke-width="1.5"/>
<path d="M10.5001 7.11178L10.5 13.8882M7.11182 10.5L13.8883 10.5" stroke="#49556F" stroke-width="1.5" stroke-linecap="round"/>
</svg>
