<svg width="21" height="21" viewBox="0 0 21 21" fill="none" xmlns="http://www.w3.org/2000/svg">
<path d="M0.916504 10.4998C0.916504 5.98221 0.916504 3.72339 2.31995 2.31995C3.72339 0.916504 5.98221 0.916504 10.4998 0.916504C15.0174 0.916504 17.2763 0.916504 18.6797 2.31995C20.0832 3.72339 20.0832 5.98221 20.0832 10.4998C20.0832 15.0174 20.0832 17.2763 18.6797 18.6797C17.2763 20.0832 15.0174 20.0832 10.4998 20.0832C5.98221 20.0832 3.72339 20.0832 2.31995 18.6797C0.916504 17.2763 0.916504 15.0174 0.916504 10.4998Z" stroke="#49556F" stroke-width="1.5"/>
<path d="M12.8957 8.10402L8.10402 12.8957M8.104 8.104L12.8957 12.8957" stroke="#49556F" stroke-width="1.5" stroke-linecap="round"/>
</svg>
