<svg width="15" height="15" viewBox="0 0 15 15" fill="none" xmlns="http://www.w3.org/2000/svg">
<path fill-rule="evenodd" clip-rule="evenodd" d="M2.10096 5.20074C2.46436 3.8778 3.76657 2.89876 5.31731 2.89876H9.93269C11.4834 2.89876 12.7856 3.8778 13.149 5.20074H2.10096ZM2 6.70074V10.1976C2 11.8833 3.48521 13.2498 5.31731 13.2498H9.93269C11.7648 13.2498 13.25 11.8833 13.25 10.1976V6.70074H2ZM4.4519 8.57336C4.17576 8.57336 3.9519 8.34951 3.9519 8.07336C3.9519 7.79722 4.17576 7.57336 4.4519 7.57336H5.02883C5.30497 7.57336 5.52883 7.79722 5.52883 8.07336C5.52883 8.34951 5.30497 8.57336 5.02883 8.57336H4.4519ZM6.83653 8.07336C6.83653 8.34951 7.06039 8.57336 7.33653 8.57336H7.91346C8.1896 8.57336 8.41346 8.34951 8.41346 8.07336C8.41346 7.79722 8.1896 7.57336 7.91346 7.57336H7.33653C7.06039 7.57336 6.83653 7.79722 6.83653 8.07336ZM10.2212 8.57336C9.94502 8.57336 9.72116 8.34951 9.72116 8.07336C9.72116 7.79722 9.94502 7.57336 10.2212 7.57336H10.7981C11.0742 7.57336 11.2981 7.79722 11.2981 8.07336C11.2981 8.34951 11.0742 8.57336 10.7981 8.57336H10.2212ZM3.9519 10.1962C3.9519 10.4723 4.17576 10.6962 4.4519 10.6962H5.02883C5.30497 10.6962 5.52883 10.4723 5.52883 10.1962C5.52883 9.92005 5.30497 9.69619 5.02883 9.69619H4.4519C4.17576 9.69619 3.9519 9.92005 3.9519 10.1962ZM7.33653 10.6962C7.06039 10.6962 6.83653 10.4723 6.83653 10.1962C6.83653 9.92005 7.06039 9.69619 7.33653 9.69619H7.91346C8.1896 9.69619 8.41346 9.92005 8.41346 10.1962C8.41346 10.4723 8.1896 10.6962 7.91346 10.6962H7.33653ZM9.72116 10.1962C9.72116 10.4723 9.94502 10.6962 10.2212 10.6962H10.7981C11.0742 10.6962 11.2981 10.4723 11.2981 10.1962C11.2981 9.92005 11.0742 9.69619 10.7981 9.69619H10.2212C9.94502 9.69619 9.72116 9.92005 9.72116 10.1962ZM10.2211 2C9.94499 2 9.72113 2.22386 9.72113 2.5V4.09247C9.72113 4.36861 9.94499 4.59247 10.2211 4.59247C10.4973 4.59247 10.7211 4.36862 10.7211 4.09247V2.5C10.7211 2.22386 10.4973 2 10.2211 2ZM5.02886 2C4.75272 2 4.52886 2.22386 4.52886 2.5V4.09247C4.52886 4.36861 4.75272 4.59247 5.02886 4.59247C5.30501 4.59247 5.52886 4.36862 5.52886 4.09247L5.52886 2.5C5.52886 2.22386 5.30501 2 5.02886 2Z" fill="#013BB7"/>
</svg>
