<svg width="18" height="12" viewBox="0 0 18 12" fill="none" xmlns="http://www.w3.org/2000/svg">
<path fillRule="evenodd" clipRule="evenodd" d="M8.99997 0C5.23275 0 1.95551 2.01499 0.270053 4.98273C-0.0900119 5.61673 -0.090018 6.38313 0.270037 7.01714C1.95547 9.98495 5.23276 12 9.00003 12C12.7672 12 16.0445 9.98501 17.7299 7.01727C18.09 6.38327 18.09 5.61687 17.73 4.98287C16.0445 2.01505 12.7672 0 8.99997 0ZM9 4.0835C7.85788 4.0835 6.98077 4.96804 6.98077 6.00016C6.98077 7.03228 7.85788 7.91683 9 7.91683C9.60093 7.91683 10.1285 7.67195 10.4935 7.28955C9.89961 7.13939 9.46151 6.61888 9.46151 5.99984C9.46151 5.38097 9.89937 4.86058 10.493 4.71025C10.128 4.32815 9.60065 4.0835 9 4.0835ZM5.48077 6.00016C5.48077 4.08676 7.08331 2.5835 9 2.5835C10.9167 2.5835 12.5192 4.08676 12.5192 6.00016C12.5192 7.91356 10.9167 9.41683 9 9.41683C7.08331 9.41683 5.48077 7.91356 5.48077 6.00016Z" fill="#013BB7"/>
</svg>
