<svg width="200" height="163" viewBox="0 0 200 163" fill="none" xmlns="http://www.w3.org/2000/svg">
<g style="mix-blend-mode:multiply" filter="url(#filter0_f_459_349)">
<path d="M99.8061 97.7949C66.7746 97.7949 40 103.434 40 110.395C40 117.356 66.7746 123 99.8061 123C132.838 123 159.612 117.356 159.612 110.395C159.612 103.434 132.838 97.7949 99.8061 97.7949Z" fill="url(#paint0_radial_459_349)" fill-opacity="0.5" style="mix-blend-mode:multiply"/>
</g>
<path d="M143.643 24.8345C145.811 17.1772 149.309 8.64067 155.769 3.47818C157.076 2.43365 158.874 1.11109 160 0.0214844C156.94 0.104144 153.366 0.427272 150.314 0.615136C142.955 1.06601 112.19 2.95967 104.166 3.44812C98.9582 3.76874 93.75 4.08936 88.5419 4.40998C82.4599 4.78571 77.5792 11.4511 74.8895 16.2679C71.8523 21.6934 70.107 27.7652 68.9435 33.837C67.3644 42.0729 65.5965 82.0729 65.1809 85.7775C64.4481 92.3302 61.8566 102.821 53.4854 102.896C56.8475 102.896 120.032 103.347 124.958 103.339C130.693 103.332 134.078 98.8153 135.989 93.9458C138.339 87.9793 138.958 62.1743 139.268 55.4864C139.585 48.7834 142.668 28.2837 143.643 24.8345Z" fill="url(#paint1_radial_459_349)"/>
<path d="M143.643 24.8345C145.811 17.1772 149.309 8.64067 155.769 3.47818C157.076 2.43365 158.874 1.11109 160 0.0214844C156.94 0.104144 153.366 0.427272 150.314 0.615136C142.955 1.06601 112.19 2.95967 104.166 3.44812C98.9582 3.76874 93.75 4.08936 88.5419 4.40998C82.4599 4.78571 77.5792 11.4511 74.8895 16.2679C71.8523 21.6934 70.107 27.7652 68.9435 33.837C67.3644 42.0729 65.5965 82.0729 65.1809 85.7775C64.4481 92.3302 61.8566 102.821 53.4854 102.896C56.8475 102.896 120.032 103.347 124.958 103.339C130.693 103.332 134.078 98.8153 135.989 93.9458C138.339 87.9793 138.958 62.1743 139.268 55.4864C139.585 48.7834 142.668 28.2837 143.643 24.8345Z" fill="url(#paint2_linear_459_349)"/>
<path d="M123.252 107.938C119.98 107.202 117.782 105.233 115.991 102.475C114.669 100.431 113.528 98.2293 113.105 95.8171C112.682 93.3824 113.249 91.5789 115.606 90.2563C113.218 90.2639 45.0998 90.8575 44.0799 90.8725C41.9719 90.8876 40.8991 92.9916 40.8538 94.8177C40.816 96.6587 41.4128 98.5148 42.1155 100.191C43.1354 102.58 44.7145 104.827 46.8224 106.39C48.681 107.765 51.1138 108.584 53.4635 108.592C53.4635 108.592 125.435 108.765 125.443 108.765C124.551 108.532 124.03 108.118 123.252 107.938Z" fill="url(#paint3_linear_459_349)"/>
<path d="M162.97 1.91526C162.381 0.517556 160.817 -0.444307 159.329 0.209458C156.677 1.38173 154.304 3.30545 152.204 5.78525C147.452 11.3986 144.671 18.7854 142.782 25.7965C141.105 32.0185 140.131 38.5111 139.541 44.9285C139.118 49.6176 138.884 54.3368 138.718 59.0409C138.476 65.6612 138.37 72.289 138.023 78.9018C137.758 83.9666 137.29 89.5048 135.34 94.239C133.059 99.7772 124.234 107.525 119.807 99.0859C118.658 96.8992 118.772 94.4344 117.941 92.1725C117.684 91.4812 117.246 90.7297 116.55 90.4141C114.639 89.5499 112.848 91.7367 112.591 93.3748C111.987 97.1471 114.254 101.949 116.724 104.744C118.409 106.646 120.88 108.126 123.38 108.592C125.526 108.983 128.027 108.689 130.059 107.908C134.849 106.067 138.257 101.761 140.251 97.1847C141.853 93.5026 142.692 89.3846 143.153 85.4094C144.15 76.7752 144.029 68.0358 144.339 59.364C144.505 54.7726 144.724 50.1737 145.14 45.5973C145.676 39.6458 146.53 33.6793 147.92 27.8705C149.348 21.9115 151.509 15.3813 155.498 10.6096C157.266 8.49049 159.321 6.83729 161.724 5.77774C163.287 5.0864 163.559 3.31297 162.97 1.91526Z" fill="url(#paint4_linear_459_349)"/>
<path d="M103.51 22.8357C101.606 22.8357 100.042 21.3252 100.004 19.4241C99.9663 17.4928 101.5 15.8997 103.434 15.8622L125.775 15.509C127.709 15.4714 129.311 16.9969 129.349 18.9281C129.387 20.8518 127.853 22.4449 125.919 22.4825L103.578 22.8357C103.558 22.8357 103.535 22.8357 103.51 22.8357Z" fill="url(#paint5_linear_459_349)"/>
<path d="M95.6149 19.1764C95.6149 21.7839 93.4843 23.8955 90.8626 23.8955C88.2409 23.8955 86.1104 21.7839 86.1104 19.1764C86.1104 16.5613 88.2409 14.4497 90.8626 14.4497C93.4843 14.4497 95.6149 16.5613 95.6149 19.1764Z" fill="url(#paint6_radial_459_349)"/>
<path d="M90.4535 35.4601C90.4535 38.0676 88.3305 40.1867 85.7013 40.1867C83.0796 40.1867 80.9565 38.0676 80.9565 35.4601C80.9565 32.8525 83.0796 30.7334 85.7013 30.7334C88.3305 30.7334 90.4535 32.8525 90.4535 35.4601Z" fill="url(#paint7_radial_459_349)"/>
<path d="M88.4897 51.744C88.4897 54.3591 86.3666 56.4707 83.7374 56.4707C81.1157 56.4707 78.9927 54.3591 78.9927 51.744C78.9927 49.1365 81.1157 47.0249 83.7374 47.0249C86.3666 47.0249 88.4897 49.1365 88.4897 51.744Z" fill="url(#paint8_radial_459_349)"/>
<path d="M87.9985 68.0357C87.9985 70.6433 85.8754 72.7624 83.2462 72.7624C80.6245 72.7624 78.5015 70.6433 78.5015 68.0357C78.5015 65.4282 80.6245 63.3091 83.2462 63.3091C85.8754 63.3091 87.9985 65.4282 87.9985 68.0357Z" fill="url(#paint9_radial_459_349)"/>
<path d="M98.3486 39.127C96.4447 39.127 94.8883 37.609 94.843 35.7079C94.8052 33.7841 96.3465 32.191 98.2806 32.1535L120.614 31.8003C122.548 31.7552 124.15 33.2882 124.188 35.2119C124.226 37.1356 122.692 38.7287 120.758 38.7663L98.4242 39.1195C98.399 39.1245 98.3738 39.127 98.3486 39.127Z" fill="url(#paint10_linear_459_349)"/>
<path d="M96.3848 55.4113C94.4808 55.4113 92.9244 53.8934 92.8791 51.9922C92.8413 50.0685 94.3826 48.4754 96.3168 48.4378L118.65 48.0847C120.584 48.0471 122.186 49.5725 122.224 51.4963C122.269 53.4275 120.728 55.0206 118.794 55.0582L96.4603 55.4113C96.4351 55.4113 96.4099 55.4113 96.3848 55.4113Z" fill="url(#paint11_linear_459_349)"/>
<path d="M95.894 71.6953C93.9901 71.6953 92.4337 70.1849 92.3884 68.2837C92.3506 66.36 93.8919 64.7669 95.826 64.7293L113.249 64.3686C115.183 64.3236 116.784 65.864 116.822 67.7878C116.86 69.7115 115.326 71.3046 113.392 71.3421L95.9696 71.6953C95.9444 71.6953 95.9192 71.6953 95.894 71.6953Z" fill="url(#paint12_linear_459_349)"/>
<path d="M166.778 68.9596C164.852 84.139 150.92 94.8923 135.658 92.9761C120.396 91.0599 109.592 77.1956 111.519 62.0162C113.445 46.8443 127.377 36.091 142.639 38.0072C157.901 39.9234 168.705 53.7802 166.778 68.9596Z" fill="url(#paint13_radial_459_349)"/>
<path d="M166.778 68.9596C164.852 84.139 150.92 94.8923 135.658 92.9761C120.396 91.0599 109.592 77.1956 111.519 62.0162C113.445 46.8443 127.377 36.091 142.639 38.0072C157.901 39.9234 168.705 53.7802 166.778 68.9596Z" fill="url(#paint14_radial_459_349)"/>
<path opacity="0.2" d="M118.945 59.2214C118.537 60.1757 117.97 61.0098 117.079 60.9046C116.406 60.8295 115.976 60.1456 115.817 59.4994C115.417 57.9289 116.006 56.2832 116.754 54.8479C118.31 51.8721 120.599 49.0391 123.395 47.138C123.841 46.8374 124.332 46.5668 124.861 46.5218C125.397 46.4767 125.986 46.7021 126.228 47.1755C126.946 48.6033 123.909 51.0831 123.078 52.0299C121.755 53.5404 120.637 55.2236 119.768 57.0271C119.542 57.508 119.3 58.4098 118.945 59.2214Z" fill="white"/>
<path d="M136.307 76.9178C135.363 76.9028 134.471 76.512 133.821 75.8357L124.687 66.42C123.327 65.0147 123.372 62.7829 124.778 61.4303C126.191 60.0777 128.435 60.1228 129.794 61.528L136.466 68.4038L150.133 55.2984C151.539 53.9458 153.783 53.9909 155.142 55.3886C156.502 56.7938 156.465 59.0256 155.052 60.3783L138.831 75.9334C138.151 76.5796 137.244 76.9328 136.307 76.9178Z" fill="url(#paint15_linear_459_349)"/>
<defs>
<filter id="filter0_f_459_349" x="0" y="57.7949" width="199.612" height="105.205" filterUnits="userSpaceOnUse" color-interpolation-filters="sRGB">
<feFlood flood-opacity="0" result="BackgroundImageFix"/>
<feBlend mode="normal" in="SourceGraphic" in2="BackgroundImageFix" result="shape"/>
<feGaussianBlur stdDeviation="20" result="effect1_foregroundBlur_459_349"/>
</filter>
<radialGradient id="paint0_radial_459_349" cx="0" cy="0" r="1" gradientUnits="userSpaceOnUse" gradientTransform="translate(99.8054 110.397) rotate(-90) scale(12.6032 16.7244)">
<stop stop-color="#729EB1"/>
<stop offset="1" stop-color="#ABC0C3"/>
</radialGradient>
<radialGradient id="paint1_radial_459_349" cx="0" cy="0" r="1" gradientUnits="userSpaceOnUse" gradientTransform="translate(-113.583 47.7712) scale(287.269 285.72)">
<stop offset="0.626" stop-color="#BED8D9"/>
<stop offset="0.73" stop-color="#F3F8FB"/>
<stop offset="0.825" stop-color="#F3F8FB"/>
<stop offset="0.915" stop-color="#BED8D9"/>
<stop offset="1" stop-color="#A6BBBE"/>
</radialGradient>
<linearGradient id="paint2_linear_459_349" x1="157.395" y1="0.0237387" x2="157.395" y2="103.339" gradientUnits="userSpaceOnUse">
<stop stop-color="#BED8D9"/>
<stop offset="0.214" stop-color="#F3F8FB"/>
<stop offset="0.824" stop-color="#BED8D9"/>
<stop offset="0.988" stop-color="#A6BBBE"/>
</linearGradient>
<linearGradient id="paint3_linear_459_349" x1="85.1961" y1="86.3078" x2="85.1961" y2="114.004" gradientUnits="userSpaceOnUse">
<stop stop-color="#BED8D9"/>
<stop offset="0.275" stop-color="#DDEBEE"/>
<stop offset="0.584" stop-color="#BED8D9"/>
<stop offset="0.998" stop-color="#729EB1"/>
</linearGradient>
<linearGradient id="paint4_linear_459_349" x1="280.558" y1="74.6504" x2="199.493" y2="186.881" gradientUnits="userSpaceOnUse">
<stop stop-color="#E3ECF1"/>
<stop offset="0.302" stop-color="#BED8D9"/>
<stop offset="0.611" stop-color="#729EB1"/>
<stop offset="0.768" stop-color="#BED8D9"/>
<stop offset="1" stop-color="#E3ECF1"/>
</linearGradient>
<linearGradient id="paint5_linear_459_349" x1="115.601" y1="13.4195" x2="115.601" y2="26.7099" gradientUnits="userSpaceOnUse">
<stop offset="0.141" stop-color="#A6BBBE"/>
<stop offset="0.357" stop-color="#BED8D9"/>
<stop offset="0.677" stop-color="#A6BBBE"/>
<stop offset="0.898" stop-color="#717F82"/>
</linearGradient>
<radialGradient id="paint6_radial_459_349" cx="0" cy="0" r="1" gradientUnits="userSpaceOnUse" gradientTransform="translate(90.1212 18.3606) scale(5.92977 5.89779)">
<stop stop-color="#67BF67"/>
<stop offset="1" stop-color="#48A153"/>
</radialGradient>
<radialGradient id="paint7_radial_459_349" cx="0" cy="0" r="1" gradientUnits="userSpaceOnUse" gradientTransform="translate(84.6892 34.5624) scale(6.39677 6.36227)">
<stop stop-color="#67BF67"/>
<stop offset="1" stop-color="#48A153"/>
</radialGradient>
<radialGradient id="paint8_radial_459_349" cx="0" cy="0" r="1" gradientUnits="userSpaceOnUse" gradientTransform="translate(82.7251 50.8497) scale(6.39677 6.36227)">
<stop stop-color="#67BF67"/>
<stop offset="1" stop-color="#48A153"/>
</radialGradient>
<radialGradient id="paint9_radial_459_349" cx="0" cy="0" r="1" gradientUnits="userSpaceOnUse" gradientTransform="translate(82.2339 67.1371) scale(6.39677 6.36227)">
<stop stop-color="#67BF67"/>
<stop offset="1" stop-color="#48A153"/>
</radialGradient>
<linearGradient id="paint10_linear_459_349" x1="110.443" y1="28.2442" x2="110.443" y2="42.9668" gradientUnits="userSpaceOnUse">
<stop offset="0.141" stop-color="#A6BBBE"/>
<stop offset="0.357" stop-color="#BED8D9"/>
<stop offset="0.677" stop-color="#A6BBBE"/>
<stop offset="0.898" stop-color="#717F82"/>
</linearGradient>
<linearGradient id="paint11_linear_459_349" x1="108.479" y1="45.523" x2="108.479" y2="58.4141" gradientUnits="userSpaceOnUse">
<stop offset="0.141" stop-color="#A6BBBE"/>
<stop offset="0.357" stop-color="#BED8D9"/>
<stop offset="0.677" stop-color="#A6BBBE"/>
<stop offset="0.898" stop-color="#717F82"/>
</linearGradient>
<linearGradient id="paint12_linear_459_349" x1="105.718" y1="60.9609" x2="105.718" y2="75.7355" gradientUnits="userSpaceOnUse">
<stop offset="0.141" stop-color="#A6BBBE"/>
<stop offset="0.357" stop-color="#BED8D9"/>
<stop offset="0.677" stop-color="#A6BBBE"/>
<stop offset="0.898" stop-color="#717F82"/>
</linearGradient>
<radialGradient id="paint13_radial_459_349" cx="0" cy="0" r="1" gradientUnits="userSpaceOnUse" gradientTransform="translate(135.448 63.991) rotate(7.15976) scale(36.1208 35.9321)">
<stop offset="0.006" stop-color="#75D982"/>
<stop offset="0.466" stop-color="#67BF67"/>
<stop offset="0.838" stop-color="#48A153"/>
<stop offset="1" stop-color="#67BF67"/>
</radialGradient>
<radialGradient id="paint14_radial_459_349" cx="0" cy="0" r="1" gradientUnits="userSpaceOnUse" gradientTransform="translate(135.448 63.991) rotate(7.15976) scale(36.1208 35.9321)">
<stop offset="0.006" stop-color="#67BF67"/>
<stop offset="1" stop-color="#67BF67"/>
</radialGradient>
<linearGradient id="paint15_linear_459_349" x1="137.681" y1="41.8523" x2="161.962" y2="70.6392" gradientUnits="userSpaceOnUse">
<stop stop-color="#FFFDA6"/>
<stop offset="0.475" stop-color="#F5E37B"/>
<stop offset="1" stop-color="#F6D246"/>
</linearGradient>
</defs>
</svg>
