<svg width="15" height="15" viewBox="0 0 15 15" fill="none" xmlns="http://www.w3.org/2000/svg">
<path fillRule="evenodd" clipRule="evenodd" d="M7.5325 0.781251H7.4675C6.90594 0.781232 6.43769 0.781219 6.06595 0.831194C5.67358 0.883951 5.31933 0.999994 5.03466 1.28466C4.74999 1.56933 4.63395 1.92358 4.58119 2.31595C4.54537 2.58243 4.53523 3.21967 4.53237 3.76604C3.26846 3.80732 2.5096 3.95486 1.98223 4.48223C1.25 5.21447 1.25 6.393 1.25 8.75C1.25 11.107 1.25 12.2856 1.98223 13.0178C2.71446 13.75 3.89298 13.75 6.24999 13.75H8.75C11.107 13.75 12.2856 13.75 13.0177 13.0178C13.75 12.2856 13.75 11.107 13.75 8.75C13.75 6.393 13.75 5.21447 13.0177 4.48223C12.4904 3.95486 11.7316 3.80732 10.4676 3.76604C10.4647 3.21967 10.4546 2.58243 10.4188 2.31595C10.3661 1.92358 10.25 1.56933 9.96531 1.28466C9.68069 0.999994 9.32644 0.883951 8.93406 0.831194C8.56231 0.781219 8.09406 0.781232 7.5325 0.781251ZM9.52994 3.75118C9.52713 3.22202 9.51813 2.65254 9.48969 2.44088C9.45088 2.15246 9.38387 2.02903 9.30244 1.94758C9.221 1.86613 9.09756 1.79911 8.80912 1.76034C8.50725 1.71975 8.1025 1.71875 7.5 1.71875C6.8975 1.71875 6.49275 1.71975 6.19087 1.76034C5.90246 1.79911 5.77903 1.86613 5.69758 1.94758C5.61613 2.02903 5.54911 2.15246 5.51034 2.44088C5.48187 2.65254 5.47288 3.22202 5.47005 3.75118C5.71469 3.75 5.97428 3.75 6.25 3.75H8.75C9.02575 3.75 9.28531 3.75 9.52994 3.75118ZM7.5 5.78125C7.75887 5.78125 7.96875 5.99112 7.96875 6.25V6.25638C8.64925 6.42781 9.21875 6.96438 9.21875 7.70831C9.21875 7.96719 9.00887 8.17706 8.75 8.17706C8.49113 8.17706 8.28125 7.96719 8.28125 7.70831C8.28125 7.46831 8.01512 7.13544 7.5 7.13544C6.98488 7.13544 6.71875 7.46831 6.71875 7.70831C6.71875 7.94838 6.98488 8.28125 7.5 8.28125C8.36556 8.28125 9.21875 8.88113 9.21875 9.79169C9.21875 10.5356 8.64925 11.0722 7.96875 11.2436V11.25C7.96875 11.5089 7.75887 11.7188 7.5 11.7188C7.24113 11.7188 7.03125 11.5089 7.03125 11.25V11.2436C6.35075 11.0722 5.78125 10.5356 5.78125 9.79169C5.78125 9.53281 5.99112 9.32294 6.25 9.32294C6.50887 9.32294 6.71875 9.53281 6.71875 9.79169C6.71875 10.0317 6.98488 10.3646 7.5 10.3646C8.01512 10.3646 8.28125 10.0317 8.28125 9.79169C8.28125 9.55163 8.01512 9.21875 7.5 9.21875C6.63444 9.21875 5.78125 8.61894 5.78125 7.70831C5.78125 6.96438 6.35075 6.42781 7.03125 6.25638V6.25C7.03125 5.99112 7.24113 5.78125 7.5 5.78125Z" fill="#013BB7"/>
</svg>
