<svg width="14" height="14" viewBox="0 0 14 14" fill="none" xmlns="http://www.w3.org/2000/svg">
<path d="M7 2.16129C7.32067 2.16129 7.58065 1.90132 7.58065 1.58065C7.58065 1.25997 7.32067 1 7 1V2.16129ZM13 7C13 6.67933 12.74 6.41935 12.4194 6.41935C12.0987 6.41935 11.8387 6.67933 11.8387 7H13ZM12.4194 2.16129C12.74 2.16129 13 1.90132 13 1.58065C13 1.25997 12.74 1 12.4194 1V2.16129ZM9.25445 1C8.93378 1 8.67381 1.25997 8.67381 1.58065C8.67381 1.90132 8.93378 2.16129 9.25445 2.16129V1ZM13 1.58065C13 1.25997 12.74 1 12.4194 1C12.0987 1 11.8387 1.25997 11.8387 1.58065H13ZM11.8387 4.78658C11.8387 5.10725 12.0987 5.36723 12.4194 5.36723C12.74 5.36723 13 5.10725 13 4.78658H11.8387ZM12.8299 1.99122C13.0567 1.76447 13.0567 1.39682 12.8299 1.17007C12.6031 0.943313 12.2356 0.943313 12.0088 1.17007L12.8299 1.99122ZM6.58945 6.58945C6.36268 6.81621 6.36268 7.18379 6.58945 7.41055C6.81621 7.63732 7.18379 7.63732 7.41055 7.41055L6.58945 6.58945ZM7 1H4.67742V2.16129H7V1ZM4.67742 1C2.64644 1 1 2.64644 1 4.67742H2.16129C2.16129 3.2878 3.2878 2.16129 4.67742 2.16129V1ZM1 4.67742V9.32258H2.16129V4.67742H1ZM1 9.32258C1 11.3536 2.64644 13 4.67742 13V11.8387C3.2878 11.8387 2.16129 10.7122 2.16129 9.32258H1ZM4.67742 13H9.32258V11.8387H4.67742V13ZM9.32258 13C11.3536 13 13 11.3536 13 9.32258H11.8387C11.8387 10.7122 10.7122 11.8387 9.32258 11.8387V13ZM13 9.32258V7H11.8387V9.32258H13ZM12.4194 1H9.25445V2.16129H12.4194V1ZM11.8387 1.58065V4.78658H13V1.58065H11.8387ZM12.0088 1.17007L6.58945 6.58945L7.41055 7.41055L12.8299 1.99122L12.0088 1.17007Z" fill="#49556F"/>
</svg>
