<svg width="15" height="15" viewBox="0 0 15 15" fill="none" xmlns="http://www.w3.org/2000/svg">
<path fill-rule="evenodd" clip-rule="evenodd" d="M7.5 13.125C10.6066 13.125 13.125 10.6066 13.125 7.5C13.125 4.3934 10.6066 1.875 7.5 1.875C4.3934 1.875 1.875 4.3934 1.875 7.5C1.875 10.6066 4.3934 13.125 7.5 13.125ZM8.125 4.0625C8.125 3.71732 7.84519 3.4375 7.5 3.4375C7.15481 3.4375 6.875 3.71732 6.875 4.0625V7.34375C6.875 7.77525 7.22475 8.125 7.65625 8.125H9.6875C10.0327 8.125 10.3125 7.84519 10.3125 7.5C10.3125 7.15481 10.0327 6.875 9.6875 6.875H8.125V4.0625Z" fill="#013BB7"/>
</svg>
