<svg width="205" height="198" viewBox="0 0 205 198" fill="none" xmlns="http://www.w3.org/2000/svg">
<path d="M1.29306 108.843C4.07076 103.241 4.07076 94.0446 1.29306 88.5267C-1.39784 82.9251 0.251375 74.9826 4.93875 70.8023C9.71292 66.622 13.3587 58.1779 13.0115 51.9911C12.7511 45.8042 17.4384 39.1158 23.4279 36.9421C29.5041 34.8519 36.1879 28.4143 38.358 22.6455C40.528 16.7931 47.5591 12.2785 53.9825 12.6129C60.406 12.8637 69.1731 9.35227 73.5133 4.83758C77.7666 0.239278 86.0998 -1.34924 91.8288 1.24253C97.6446 3.9179 107.193 3.9179 113.009 1.24253C118.738 -1.34924 127.071 0.239278 131.324 4.83758C135.664 9.35227 144.431 12.8637 150.855 12.6129C157.278 12.2785 164.309 16.7931 166.479 22.6455C168.65 28.4143 175.333 34.8519 181.41 36.9421C187.399 39.1158 192.086 45.8042 191.826 51.9911C191.479 58.1779 195.125 66.622 199.899 70.8023C204.586 74.9826 206.235 82.9251 203.544 88.5267C200.767 94.0446 200.767 103.241 203.544 108.843C206.235 114.444 204.586 122.387 199.899 126.567C195.125 130.664 191.479 139.192 191.826 145.295C192.086 151.482 187.399 158.254 181.41 160.344C175.333 162.434 168.65 168.871 166.479 174.724C164.309 180.493 157.278 185.007 150.855 184.757C144.431 184.422 135.664 187.934 131.324 192.532C127.071 197.13 118.738 198.719 113.009 196.043C107.193 193.451 97.6446 193.451 91.8288 196.043C86.0998 198.719 77.7666 197.13 73.5133 192.532C69.1731 187.934 60.406 184.422 53.9825 184.757C47.5591 185.007 40.528 180.493 38.358 174.724C36.1879 168.871 29.5041 162.434 23.4279 160.344C17.4384 158.254 12.7511 151.482 13.0115 145.295C13.3587 139.192 9.71292 130.664 4.93875 126.567C0.251375 122.387 -1.39784 114.444 1.29306 108.843Z" fill="url(#paint0_linear_396_300)"/>
<path d="M192.434 98.6429C192.434 146.549 152.157 185.342 102.419 185.342C52.6805 185.342 12.4038 146.549 12.4038 98.6429C12.4038 50.8206 52.6805 11.944 102.419 11.944C152.157 11.944 192.434 50.8206 192.434 98.6429Z" fill="url(#paint1_linear_396_300)"/>
<path d="M182.104 98.6429C182.104 141.031 146.428 175.393 102.419 175.393C58.4095 175.393 22.7334 141.031 22.7334 98.6429C22.7334 56.2549 58.4095 21.8931 102.419 21.8931C146.428 21.8931 182.104 56.2549 182.104 98.6429Z" fill="url(#paint2_linear_396_300)"/>
<path fill-rule="evenodd" clip-rule="evenodd" d="M186.791 98.6429C186.791 143.539 149.032 179.991 102.419 179.991C55.8055 179.991 18.0461 143.539 18.0461 98.6429C18.0461 53.7467 55.8055 17.3784 102.419 17.3784C149.032 17.3784 186.791 53.7467 186.791 98.6429ZM19.7822 98.6429C19.7822 142.536 56.8472 178.235 102.419 178.235C147.991 178.235 185.055 142.536 185.055 98.6429C185.055 54.75 147.991 19.0505 102.419 19.0505C56.8472 19.0505 19.7822 54.75 19.7822 98.6429Z" fill="url(#paint3_linear_396_300)"/>
<path d="M81.4124 139.24C84.7978 145.343 82.1069 150.276 82.1069 150.276C82.1069 150.276 76.3778 149.691 72.9925 143.504C69.5204 137.317 69.7808 127.953 69.7808 127.953C69.7808 127.953 77.9403 133.053 81.4124 139.24Z" fill="url(#paint4_linear_396_300)"/>
<path d="M71.6036 154.874C78.8083 154.874 82.1068 150.36 82.1068 150.36C82.1068 150.36 78.8083 145.761 71.6036 145.678C64.3121 145.678 55.8054 150.276 55.8054 150.276C55.8054 150.276 64.3121 154.874 71.6036 154.874Z" fill="url(#paint5_linear_396_300)"/>
<path d="M67.0901 131.632C68.8261 137.652 65.6144 141.414 65.6144 141.414C65.6144 141.414 60.7534 139.909 58.9306 133.973C57.1077 128.037 59.1042 119.844 59.1042 119.844C59.1042 119.844 65.2672 125.696 67.0901 131.632Z" fill="url(#paint6_linear_396_300)"/>
<path d="M55.545 143.588C61.8816 144.842 65.6141 141.414 65.6141 141.414C65.6141 141.414 63.6177 136.899 57.2811 135.645C51.0312 134.307 42.7849 136.816 42.7849 136.816C42.7849 136.816 49.2952 142.334 55.545 143.588Z" fill="url(#paint7_linear_396_300)"/>
<path d="M57.0209 121.098C57.1945 126.449 53.6356 129.04 53.6356 129.04C53.6356 129.04 49.8162 126.783 49.6426 121.349C49.3822 115.914 52.8543 109.477 52.8543 109.477C52.8543 109.477 56.8473 115.663 57.0209 121.098Z" fill="url(#paint8_linear_396_300)"/>
<path d="M44.6946 128.79C49.7292 131.214 53.6353 129.04 53.6353 129.04C53.6353 129.04 52.9409 124.776 47.9063 122.436C42.8717 120.011 35.3198 120.513 35.3198 120.513C35.3198 120.513 39.5732 126.449 44.6946 128.79Z" fill="url(#paint9_linear_396_300)"/>
<path d="M51.986 107.805C50.2499 112.57 46.1702 113.573 46.1702 113.573C46.1702 113.573 43.7397 110.313 45.4758 105.464C47.2986 100.698 52.6804 96.267 52.6804 96.267C52.6804 96.267 53.8089 103.039 51.986 107.805Z" fill="url(#paint10_linear_396_300)"/>
<path d="M38.4447 110.313C42.0037 114.075 46.1702 113.573 46.1702 113.573C46.1702 113.573 47.125 109.644 43.5661 105.882C40.094 102.119 33.4102 99.9456 33.4102 99.9456C33.4102 99.9456 34.8858 106.55 38.4447 110.313Z" fill="url(#paint11_linear_396_300)"/>
<path d="M51.0312 93.8425C48.1667 98.0227 43.9134 98.1063 43.9134 98.1063C43.9134 98.1063 42.3509 94.3441 45.2154 90.1638C48.1667 85.8999 54.4165 82.8065 54.4165 82.8065C54.4165 82.8065 53.8957 89.5786 51.0312 93.8425Z" fill="url(#paint12_linear_396_300)"/>
<path d="M37.2294 93.2572C39.7467 97.6883 43.9133 98.1063 43.9133 98.1063C43.9133 98.1063 45.8229 94.5113 43.3056 90.0802C40.7884 85.5655 34.7989 81.9705 34.7989 81.9705C34.7989 81.9705 34.7121 88.8261 37.2294 93.2572Z" fill="url(#paint13_linear_396_300)"/>
<path d="M53.9825 80.9672C50.1632 83.8934 46.4307 82.8066 46.4307 82.8066C46.4307 82.8066 46.1703 79.1279 49.9028 76.1181C53.7221 73.1919 60.2323 72.105 60.2323 72.105C60.2323 72.105 57.8018 77.9574 53.9825 80.9672Z" fill="url(#paint14_linear_396_300)"/>
<path d="M41.9169 76.7033C42.8717 81.3016 46.4307 82.8065 46.4307 82.8065C46.4307 82.8065 49.2084 80.1312 48.2535 75.5329C47.2987 70.9346 43.1321 66.0854 43.1321 66.0854C43.1321 66.0854 41.0489 72.105 41.9169 76.7033Z" fill="url(#paint15_linear_396_300)"/>
<path d="M73.2528 54.6315C70.1279 54.7151 68.5654 52.7922 68.5654 52.7922C68.5654 52.7922 69.9542 50.7021 73.0792 50.6185C76.2909 50.5348 80.0234 52.3742 80.0234 52.3742C80.0234 52.3742 76.4645 54.5479 73.2528 54.6315Z" fill="url(#paint16_linear_396_300)"/>
<path d="M68.739 47.9431C67.3501 50.702 68.5654 52.7922 68.5654 52.7922C68.5654 52.7922 71.0827 52.4578 72.4715 49.6988C73.8604 46.9398 73.6 42.8431 73.6 42.8431C73.6 42.8431 70.1278 45.1841 68.739 47.9431Z" fill="url(#paint17_linear_396_300)"/>
<path d="M66.569 61.1527C62.5761 61.9052 60.2324 59.6478 60.2324 59.6478C60.2324 59.6478 61.5345 56.8052 65.6142 56.0528C69.6072 55.384 74.8153 57.1397 74.8153 57.1397C74.8153 57.1397 70.562 60.4839 66.569 61.1527Z" fill="url(#paint18_linear_396_300)"/>
<path d="M59.4511 53.461C58.2359 57.2233 60.2323 59.6478 60.2323 59.6478C60.2323 59.6478 63.3572 58.7282 64.5725 55.0495C65.8745 51.2873 64.7461 46.1038 64.7461 46.1038C64.7461 46.1038 60.7531 49.6988 59.4511 53.461Z" fill="url(#paint19_linear_396_300)"/>
<path d="M58.9305 70.3493C54.9375 72.3559 51.7258 70.6838 51.7258 70.6838C51.7258 70.6838 52.1599 67.1723 56.2396 65.1658C60.2326 63.1593 66.3956 63.4101 66.3956 63.4101C66.3956 63.4101 63.0102 68.3428 58.9305 70.3493Z" fill="url(#paint20_linear_396_300)"/>
<path d="M48.7744 64.2461C48.7744 68.5936 51.7257 70.6838 51.7257 70.6838C51.7257 70.6838 54.7639 68.7608 54.7639 64.3297C54.8507 59.9822 51.9861 54.7987 51.9861 54.7987C51.9861 54.7987 48.8612 59.8986 48.7744 64.2461Z" fill="url(#paint21_linear_396_300)"/>
<path d="M79.5895 45.6021C76.5513 46.5218 75.8569 48.8627 75.8569 48.8627C75.8569 48.8627 77.8534 50.3676 80.8915 49.3644C83.9296 48.3611 86.7073 45.3513 86.7073 45.3513C86.7073 45.3513 82.5408 44.5989 79.5895 45.6021Z" fill="url(#paint22_linear_396_300)"/>
<path d="M123.425 139.24C120.04 145.343 122.731 150.276 122.731 150.276C122.731 150.276 128.46 149.691 131.845 143.504C135.23 137.317 135.057 127.953 135.057 127.953C135.057 127.953 126.811 133.053 123.425 139.24Z" fill="url(#paint23_linear_396_300)"/>
<path d="M133.234 154.874C126.029 154.874 122.731 150.36 122.731 150.36C122.731 150.36 126.029 145.761 133.234 145.678C140.525 145.678 149.032 150.276 149.032 150.276C149.032 150.276 140.525 154.874 133.234 154.874Z" fill="url(#paint24_linear_396_300)"/>
<path d="M137.748 131.632C135.925 137.652 139.223 141.414 139.223 141.414C139.223 141.414 144.084 139.909 145.907 133.973C147.73 128.037 145.734 119.844 145.734 119.844C145.734 119.844 139.571 125.696 137.748 131.632Z" fill="url(#paint25_linear_396_300)"/>
<path d="M149.206 143.588C142.956 144.842 139.223 141.414 139.223 141.414C139.223 141.414 141.22 136.899 147.47 135.645C153.806 134.307 162.053 136.816 162.053 136.816C162.053 136.816 155.542 142.334 149.206 143.588Z" fill="url(#paint26_linear_396_300)"/>
<path d="M147.817 121.098C147.556 126.449 151.202 129.04 151.202 129.04C151.202 129.04 155.021 126.783 155.195 121.349C155.369 115.914 151.983 109.477 151.983 109.477C151.983 109.477 147.99 115.663 147.817 121.098Z" fill="url(#paint27_linear_396_300)"/>
<path d="M160.143 128.79C155.108 131.214 151.202 129.04 151.202 129.04C151.202 129.04 151.897 124.776 156.931 122.436C161.966 120.011 169.518 120.513 169.518 120.513C169.518 120.513 165.178 126.449 160.143 128.79Z" fill="url(#paint28_linear_396_300)"/>
<path d="M152.765 107.805C154.588 112.57 158.667 113.573 158.667 113.573C158.667 113.573 161.098 110.313 159.362 105.464C157.539 100.698 152.157 96.267 152.157 96.267C152.157 96.267 151.029 103.039 152.765 107.805Z" fill="url(#paint29_linear_396_300)"/>
<path d="M166.393 110.313C162.834 114.075 158.667 113.573 158.667 113.573C158.667 113.573 157.712 109.644 161.184 105.882C164.743 102.119 171.427 99.9456 171.427 99.9456C171.427 99.9456 169.865 106.55 166.393 110.313Z" fill="url(#paint30_linear_396_300)"/>
<path d="M153.806 93.8425C156.671 98.0227 160.924 98.1063 160.924 98.1063C160.924 98.1063 162.487 94.3441 159.622 90.1638C156.671 85.8999 150.421 82.8065 150.421 82.8065C150.421 82.8065 150.855 89.5786 153.806 93.8425Z" fill="url(#paint31_linear_396_300)"/>
<path d="M167.608 93.2572C165.091 97.6883 160.924 98.1063 160.924 98.1063C160.924 98.1063 159.015 94.5113 161.532 90.0802C164.049 85.5655 170.039 81.9705 170.039 81.9705C170.039 81.9705 170.125 88.8261 167.608 93.2572Z" fill="url(#paint32_linear_396_300)"/>
<path d="M150.855 80.9672C154.587 83.8934 158.407 82.8066 158.407 82.8066C158.407 82.8066 158.667 79.1279 154.848 76.1181C151.115 73.1919 144.605 72.105 144.605 72.105C144.605 72.105 147.035 77.9574 150.855 80.9672Z" fill="url(#paint33_linear_396_300)"/>
<path d="M162.92 76.7033C161.966 81.3016 158.407 82.8065 158.407 82.8065C158.407 82.8065 155.629 80.1312 156.584 75.5329C157.452 70.9346 161.705 66.0854 161.705 66.0854C161.705 66.0854 163.788 72.105 162.92 76.7033Z" fill="url(#paint34_linear_396_300)"/>
<path d="M131.585 54.6315C134.71 54.7151 136.185 52.7922 136.185 52.7922C136.185 52.7922 134.883 50.7021 131.671 50.6185C128.546 50.5348 124.814 52.3742 124.814 52.3742C124.814 52.3742 128.373 54.5479 131.585 54.6315Z" fill="url(#paint35_linear_396_300)"/>
<path d="M136.098 47.9431C137.487 50.702 136.185 52.7922 136.185 52.7922C136.185 52.7922 133.754 52.4578 132.366 49.6988C130.977 46.9398 131.237 42.8431 131.237 42.8431C131.237 42.8431 134.709 45.1841 136.098 47.9431Z" fill="url(#paint36_linear_396_300)"/>
<path d="M138.269 61.1527C142.261 61.9052 144.605 59.6478 144.605 59.6478C144.605 59.6478 143.216 56.8052 139.223 56.0528C135.23 55.384 130.022 57.1397 130.022 57.1397C130.022 57.1397 134.276 60.4839 138.269 61.1527Z" fill="url(#paint37_linear_396_300)"/>
<path d="M145.387 53.461C146.602 57.2233 144.605 59.6478 144.605 59.6478C144.605 59.6478 141.48 58.7282 140.265 55.0495C138.963 51.2873 140.091 46.1038 140.091 46.1038C140.091 46.1038 144.084 49.6988 145.387 53.461Z" fill="url(#paint38_linear_396_300)"/>
<path d="M145.907 70.3493C149.9 72.3559 153.112 70.6838 153.112 70.6838C153.112 70.6838 152.678 67.1723 148.598 65.1658C144.518 63.1593 138.442 63.4101 138.442 63.4101C138.442 63.4101 141.827 68.3428 145.907 70.3493Z" fill="url(#paint39_linear_396_300)"/>
<path d="M155.976 64.2461C156.063 68.5936 153.112 70.6838 153.112 70.6838C153.112 70.6838 150.074 68.7608 149.987 64.3297C149.987 59.9822 152.852 54.7987 152.852 54.7987C152.852 54.7987 155.976 59.8986 155.976 64.2461Z" fill="url(#paint40_linear_396_300)"/>
<path d="M125.248 45.6021C128.286 46.5218 128.981 48.8627 128.981 48.8627C128.981 48.8627 126.897 50.3676 123.946 49.3644C120.908 48.3611 118.13 45.3513 118.13 45.3513C118.13 45.3513 122.297 44.5989 125.248 45.6021Z" fill="url(#paint41_linear_396_300)"/>
<path d="M80.9932 94.667C80.9932 94.6856 80.9558 94.779 80.8812 94.947C80.8252 95.115 80.7878 95.2176 80.7692 95.255C80.7132 95.4416 80.6478 95.6283 80.5732 95.815C80.4985 96.0016 80.4425 96.1883 80.4052 96.375C80.2932 96.7296 80.1998 97.0843 80.1252 97.439C80.0692 97.7936 79.9852 98.139 79.8732 98.475C79.8358 98.643 79.7518 98.755 79.6212 98.811C79.5092 98.867 79.3692 98.895 79.2012 98.895C78.6598 98.895 78.1092 98.8763 77.5492 98.839C77.0078 98.8016 76.4665 98.783 75.9252 98.783C75.4025 98.783 74.8798 98.7923 74.3572 98.811C73.8345 98.8296 73.3025 98.839 72.7612 98.839C72.3505 98.839 71.9305 98.839 71.5012 98.839C71.0905 98.839 70.6705 98.839 70.2412 98.839C69.8118 98.8576 69.3172 98.8763 68.7572 98.895C68.1972 98.9136 67.7865 98.923 67.5252 98.923C67.3945 98.923 67.2732 98.895 67.1612 98.839C67.0492 98.7643 66.9932 98.6523 66.9932 98.503C66.9932 98.1296 67.0305 97.7563 67.1052 97.383C67.1798 96.991 67.3105 96.6176 67.4972 96.263C67.8332 95.6096 68.2718 94.947 68.8132 94.275C69.3732 93.603 69.9892 92.9403 70.6612 92.287C71.3332 91.615 71.9958 90.971 72.6492 90.355C73.3025 89.739 73.8905 89.179 74.4132 88.675C75.0852 88.0216 75.6638 87.2376 76.1492 86.323C76.6345 85.4083 76.8772 84.475 76.8772 83.523C76.8772 82.8696 76.7932 82.235 76.6252 81.619C76.4758 81.003 76.1865 80.499 75.7572 80.107C75.3278 79.715 74.7212 79.519 73.9372 79.519C72.5558 79.519 71.5012 80.0883 70.7732 81.227C70.5118 81.6376 70.3438 82.1136 70.2692 82.655C70.1945 83.1963 70.1385 83.7096 70.1012 84.195C70.1012 84.5123 69.9892 84.7736 69.7652 84.979C69.6532 85.0723 69.5132 85.1376 69.3452 85.175C69.1772 85.2123 69.0185 85.231 68.8692 85.231C68.3465 85.231 67.9452 85.119 67.6652 84.895C67.3852 84.671 67.2452 84.2883 67.2452 83.747C67.2452 82.8696 67.4785 82.1043 67.9452 81.451C68.4118 80.7976 69.0092 80.2563 69.7372 79.827C70.4838 79.3976 71.2772 79.0803 72.1172 78.875C72.9572 78.651 73.7412 78.539 74.4692 78.539C75.4025 78.539 76.3078 78.735 77.1852 79.127C78.0625 79.5003 78.7812 80.051 79.3412 80.779C79.9198 81.4883 80.2092 82.3563 80.2092 83.383C80.2092 84.5776 79.9758 85.623 79.5092 86.519C79.0425 87.3963 78.4265 88.171 77.6612 88.843C76.9145 89.515 76.0932 90.1403 75.1972 90.719C74.3198 91.2976 73.4425 91.8856 72.5652 92.483C71.6878 93.0803 70.9132 93.743 70.2412 94.471C70.0358 94.7136 69.7838 95.0496 69.4852 95.479C69.2052 95.9083 69.0092 96.263 68.8972 96.543C68.8785 96.599 68.8692 96.683 68.8692 96.795C68.8692 96.8136 68.8878 96.823 68.9252 96.823C69.4665 96.823 70.0078 96.823 70.5492 96.823C71.0905 96.8043 71.6225 96.7856 72.1452 96.767L75.6732 96.683C76.6812 96.6643 77.5305 96.5056 78.2212 96.207C78.9305 95.9083 79.5745 95.339 80.1532 94.499C80.1905 94.443 80.2278 94.3963 80.2652 94.359C80.3212 94.3216 80.4052 94.303 80.5172 94.303C80.6292 94.303 80.7318 94.331 80.8252 94.387C80.9372 94.443 80.9932 94.5363 80.9932 94.667ZM97.0888 88.843C97.0888 88.339 97.0701 87.695 97.0328 86.911C97.0141 86.1083 96.9394 85.2776 96.8088 84.419C96.6968 83.5603 96.5101 82.7483 96.2488 81.983C95.9874 81.2176 95.6234 80.5923 95.1568 80.107C94.6901 79.6216 94.0834 79.379 93.3368 79.379C92.6461 79.379 92.0674 79.631 91.6008 80.135C91.1528 80.639 90.7794 81.2923 90.4808 82.095C90.1821 82.879 89.9581 83.719 89.8088 84.615C89.6594 85.4923 89.5568 86.3323 89.5008 87.135C89.4448 87.919 89.4168 88.5536 89.4168 89.039C89.4168 89.5056 89.4354 90.1123 89.4728 90.859C89.5288 91.6056 89.6221 92.3896 89.7528 93.211C89.8834 94.0136 90.0794 94.779 90.3408 95.507C90.6208 96.235 90.9848 96.8323 91.4328 97.299C91.8994 97.747 92.4688 97.971 93.1408 97.971C93.8501 97.971 94.4381 97.7376 94.9048 97.271C95.3901 96.8043 95.7728 96.207 96.0528 95.479C96.3514 94.751 96.5754 93.967 96.7248 93.127C96.8741 92.287 96.9674 91.4936 97.0048 90.747C97.0608 89.9816 97.0888 89.347 97.0888 88.843ZM100.309 88.479C100.309 89.3563 100.225 90.2803 100.057 91.251C99.9074 92.2216 99.6554 93.1643 99.3008 94.079C98.9461 94.975 98.4888 95.7963 97.9288 96.543C97.3688 97.271 96.6874 97.8496 95.8848 98.279C95.0821 98.7083 94.1488 98.923 93.0848 98.923C91.8154 98.923 90.7421 98.615 89.8648 97.999C89.0061 97.383 88.3154 96.5896 87.7928 95.619C87.2701 94.6296 86.8874 93.575 86.6448 92.455C86.4208 91.3163 86.3088 90.2243 86.3088 89.179C86.3088 88.283 86.3834 87.3496 86.5328 86.379C86.7008 85.3896 86.9528 84.4283 87.2888 83.495C87.6434 82.5616 88.1008 81.7216 88.6608 80.975C89.2208 80.2096 89.9021 79.603 90.7048 79.155C91.5261 78.707 92.4874 78.483 93.5888 78.483C94.6154 78.483 95.5021 78.6976 96.2488 79.127C97.0141 79.5376 97.6581 80.0976 98.1808 80.807C98.7034 81.4976 99.1141 82.2816 99.4128 83.159C99.7301 84.0176 99.9541 84.9136 100.085 85.847C100.234 86.7616 100.309 87.639 100.309 88.479ZM119.624 94.667C119.624 94.6856 119.587 94.779 119.512 94.947C119.456 95.115 119.419 95.2176 119.4 95.255C119.344 95.4416 119.279 95.6283 119.204 95.815C119.13 96.0016 119.074 96.1883 119.036 96.375C118.924 96.7296 118.831 97.0843 118.756 97.439C118.7 97.7936 118.616 98.139 118.504 98.475C118.467 98.643 118.383 98.755 118.252 98.811C118.14 98.867 118 98.895 117.832 98.895C117.291 98.895 116.74 98.8763 116.18 98.839C115.639 98.8016 115.098 98.783 114.556 98.783C114.034 98.783 113.511 98.7923 112.988 98.811C112.466 98.8296 111.934 98.839 111.392 98.839C110.982 98.839 110.562 98.839 110.132 98.839C109.722 98.839 109.302 98.839 108.872 98.839C108.443 98.8576 107.948 98.8763 107.388 98.895C106.828 98.9136 106.418 98.923 106.156 98.923C106.026 98.923 105.904 98.895 105.792 98.839C105.68 98.7643 105.624 98.6523 105.624 98.503C105.624 98.1296 105.662 97.7563 105.736 97.383C105.811 96.991 105.942 96.6176 106.128 96.263C106.464 95.6096 106.903 94.947 107.444 94.275C108.004 93.603 108.62 92.9403 109.292 92.287C109.964 91.615 110.627 90.971 111.28 90.355C111.934 89.739 112.522 89.179 113.044 88.675C113.716 88.0216 114.295 87.2376 114.78 86.323C115.266 85.4083 115.508 84.475 115.508 83.523C115.508 82.8696 115.424 82.235 115.256 81.619C115.107 81.003 114.818 80.499 114.388 80.107C113.959 79.715 113.352 79.519 112.568 79.519C111.187 79.519 110.132 80.0883 109.404 81.227C109.143 81.6376 108.975 82.1136 108.9 82.655C108.826 83.1963 108.77 83.7096 108.732 84.195C108.732 84.5123 108.62 84.7736 108.396 84.979C108.284 85.0723 108.144 85.1376 107.976 85.175C107.808 85.2123 107.65 85.231 107.5 85.231C106.978 85.231 106.576 85.119 106.296 84.895C106.016 84.671 105.876 84.2883 105.876 83.747C105.876 82.8696 106.11 82.1043 106.576 81.451C107.043 80.7976 107.64 80.2563 108.368 79.827C109.115 79.3976 109.908 79.0803 110.748 78.875C111.588 78.651 112.372 78.539 113.1 78.539C114.034 78.539 114.939 78.735 115.816 79.127C116.694 79.5003 117.412 80.051 117.972 80.779C118.551 81.4883 118.84 82.3563 118.84 83.383C118.84 84.5776 118.607 85.623 118.14 86.519C117.674 87.3963 117.058 88.171 116.292 88.843C115.546 89.515 114.724 90.1403 113.828 90.719C112.951 91.2976 112.074 91.8856 111.196 92.483C110.319 93.0803 109.544 93.743 108.872 94.471C108.667 94.7136 108.415 95.0496 108.116 95.479C107.836 95.9083 107.64 96.263 107.528 96.543C107.51 96.599 107.5 96.683 107.5 96.795C107.5 96.8136 107.519 96.823 107.556 96.823C108.098 96.823 108.639 96.823 109.18 96.823C109.722 96.8043 110.254 96.7856 110.776 96.767L114.304 96.683C115.312 96.6643 116.162 96.5056 116.852 96.207C117.562 95.9083 118.206 95.339 118.784 94.499C118.822 94.443 118.859 94.3963 118.896 94.359C118.952 94.3216 119.036 94.303 119.148 94.303C119.26 94.303 119.363 94.331 119.456 94.387C119.568 94.443 119.624 94.5363 119.624 94.667ZM132.92 84.559C132.92 84.1296 132.92 83.7096 132.92 83.299C132.92 82.8696 132.92 82.4403 132.92 82.011L126.116 91.755H132.92C132.92 90.5416 132.92 89.3376 132.92 88.143C132.92 86.9483 132.92 85.7536 132.92 84.559ZM139.808 90.803C139.808 90.859 139.789 90.9523 139.752 91.083C139.715 91.2136 139.677 91.307 139.64 91.363C139.565 91.6056 139.481 91.8763 139.388 92.175C139.295 92.455 139.22 92.7256 139.164 92.987C139.145 93.1176 139.061 93.1923 138.912 93.211C138.781 93.2296 138.651 93.239 138.52 93.239L135.972 93.211V96.375C135.972 96.655 135.972 96.9256 135.972 97.187C135.972 97.4483 136.028 97.663 136.14 97.831C136.271 97.9803 136.523 98.055 136.896 98.055C137.139 98.055 137.381 98.0456 137.624 98.027C137.867 98.0083 138.109 97.999 138.352 97.999C138.501 97.999 138.613 98.055 138.688 98.167C138.763 98.2603 138.8 98.3723 138.8 98.503C138.8 98.8203 138.632 98.979 138.296 98.979C138.147 98.979 137.988 98.979 137.82 98.979C137.671 98.9603 137.521 98.9416 137.372 98.923C136.905 98.9043 136.429 98.8856 135.944 98.867C135.477 98.8483 135.001 98.839 134.516 98.839C134.031 98.839 133.545 98.8483 133.06 98.867C132.575 98.8856 132.089 98.9043 131.604 98.923C131.436 98.9416 131.268 98.9603 131.1 98.979C130.932 98.979 130.764 98.979 130.596 98.979C130.26 98.979 130.092 98.8203 130.092 98.503C130.092 98.2043 130.223 98.055 130.484 98.055C130.745 98.055 130.969 98.055 131.156 98.055C131.343 98.055 131.576 98.055 131.856 98.055C132.136 98.055 132.379 98.0083 132.584 97.915C132.808 97.8216 132.92 97.6443 132.92 97.383V93.211H124.716C124.548 93.211 124.399 93.1736 124.268 93.099C124.137 93.0056 124.072 92.8656 124.072 92.679C124.072 92.5856 124.091 92.5016 124.128 92.427C124.184 92.3523 124.231 92.2776 124.268 92.203C125.817 89.9443 127.376 87.7043 128.944 85.483C130.512 83.243 132.052 80.9843 133.564 78.707C133.639 78.6136 133.732 78.5203 133.844 78.427C133.956 78.3336 134.077 78.287 134.208 78.287H135.664C135.739 78.287 135.823 78.2963 135.916 78.315C136.028 78.3336 136.084 78.3896 136.084 78.483C136.084 78.5203 136.065 78.567 136.028 78.623C135.991 78.679 135.972 78.7256 135.972 78.763V91.755H137.512C137.979 91.755 138.305 91.6523 138.492 91.447C138.679 91.2416 138.837 91.055 138.968 90.887C139.024 90.7936 139.08 90.7096 139.136 90.635C139.211 90.5416 139.295 90.495 139.388 90.495C139.463 90.495 139.547 90.523 139.64 90.579C139.752 90.635 139.808 90.7096 139.808 90.803Z" fill="#C5933B"/>
<path style="mix-blend-mode:color-dodge" d="M65.2671 164.071C87.2283 119.342 113.269 76.5361 143.043 36.0711C131.498 29.3827 118.043 25.6204 103.634 25.6204C61.1005 25.6204 26.6396 58.8118 26.6396 99.6948C26.6396 127.201 42.1774 151.196 65.2671 164.071Z" fill="url(#paint42_linear_396_300)"/>
<path d="M64.348 116.168C63.3773 116.168 62.5373 115.958 61.828 115.538C61.128 115.109 60.5867 114.516 60.204 113.76C59.8307 112.995 59.644 112.113 59.644 111.114C59.644 110.106 59.8307 109.224 60.204 108.468C60.5867 107.703 61.128 107.105 61.828 106.676C62.5373 106.247 63.3773 106.032 64.348 106.032C65.5147 106.032 66.4667 106.321 67.204 106.9C67.9413 107.469 68.408 108.277 68.604 109.322H66.756C66.6253 108.771 66.3593 108.337 65.958 108.02C65.5567 107.703 65.0153 107.544 64.334 107.544C63.718 107.544 63.186 107.689 62.738 107.978C62.2993 108.258 61.9587 108.669 61.716 109.21C61.4827 109.742 61.366 110.377 61.366 111.114C61.366 111.851 61.4827 112.486 61.716 113.018C61.9587 113.541 62.2993 113.947 62.738 114.236C63.186 114.516 63.718 114.656 64.334 114.656C65.0153 114.656 65.5567 114.511 65.958 114.222C66.3593 113.923 66.6253 113.513 66.756 112.99H68.604C68.4173 113.979 67.9507 114.759 67.204 115.328C66.4667 115.888 65.5147 116.168 64.348 116.168ZM73.4959 116.168C72.7959 116.168 72.1799 116.019 71.6479 115.72C71.1159 115.412 70.7006 114.983 70.4019 114.432C70.1032 113.881 69.9539 113.247 69.9539 112.528C69.9539 111.781 70.0986 111.128 70.3879 110.568C70.6866 110.008 71.1019 109.569 71.6339 109.252C72.1752 108.935 72.8006 108.776 73.5099 108.776C74.2006 108.776 74.8026 108.93 75.3159 109.238C75.8292 109.546 76.2259 109.961 76.5059 110.484C76.7859 110.997 76.9259 111.576 76.9259 112.22C76.9259 112.313 76.9259 112.416 76.9259 112.528C76.9259 112.64 76.9166 112.757 76.8979 112.878H71.1579V111.8H75.2319C75.2132 111.287 75.0406 110.885 74.7139 110.596C74.3872 110.297 73.9812 110.148 73.4959 110.148C73.1506 110.148 72.8332 110.227 72.5439 110.386C72.2546 110.545 72.0259 110.783 71.8579 111.1C71.6899 111.408 71.6059 111.8 71.6059 112.276V112.682C71.6059 113.121 71.6852 113.499 71.8439 113.816C72.0119 114.133 72.2359 114.376 72.5159 114.544C72.8052 114.703 73.1272 114.782 73.4819 114.782C73.8739 114.782 74.1959 114.698 74.4479 114.53C74.7092 114.362 74.9006 114.138 75.0219 113.858H76.7299C76.5992 114.297 76.3846 114.693 76.0859 115.048C75.7872 115.393 75.4186 115.669 74.9799 115.874C74.5412 116.07 74.0466 116.168 73.4959 116.168ZM78.4771 116V108.944H79.9751L80.1291 110.26C80.2971 109.952 80.5071 109.691 80.7591 109.476C81.0111 109.252 81.3051 109.079 81.6411 108.958C81.9864 108.837 82.3644 108.776 82.7751 108.776V110.554H82.1871C81.9071 110.554 81.6411 110.591 81.3891 110.666C81.1371 110.731 80.9177 110.843 80.7311 111.002C80.5537 111.151 80.4137 111.361 80.3111 111.632C80.2084 111.893 80.1571 112.225 80.1571 112.626V116H78.4771ZM87.1075 116C86.6315 116 86.2162 115.925 85.8615 115.776C85.5162 115.627 85.2455 115.379 85.0495 115.034C84.8535 114.689 84.7555 114.222 84.7555 113.634V110.358H83.5515V108.944H84.7555L84.9515 107.082H86.4355V108.944H88.3535V110.358H86.4355V113.634C86.4355 113.989 86.5102 114.236 86.6595 114.376C86.8182 114.507 87.0795 114.572 87.4435 114.572H88.3115V116H87.1075ZM90.0041 116V108.944H91.6841V116H90.0041ZM90.8441 107.824C90.5361 107.824 90.2794 107.731 90.0741 107.544C89.8781 107.348 89.7801 107.11 89.7801 106.83C89.7801 106.541 89.8781 106.307 90.0741 106.13C90.2794 105.943 90.5361 105.85 90.8441 105.85C91.1521 105.85 91.4041 105.943 91.6001 106.13C91.8054 106.307 91.9081 106.541 91.9081 106.83C91.9081 107.11 91.8054 107.348 91.6001 107.544C91.4041 107.731 91.1521 107.824 90.8441 107.824ZM93.9615 116V110.358H92.9675V108.944H93.9615V108.174C93.9615 107.633 94.0548 107.199 94.2415 106.872C94.4282 106.536 94.6942 106.293 95.0395 106.144C95.3848 105.995 95.7955 105.92 96.2715 105.92H97.0135V107.348H96.5235C96.2155 107.348 95.9915 107.413 95.8515 107.544C95.7115 107.665 95.6415 107.88 95.6415 108.188V108.944H100.024V116H98.3435V110.358H95.6415V116H93.9615ZM99.1975 107.88C98.8895 107.88 98.6328 107.787 98.4275 107.6C98.2315 107.404 98.1335 107.166 98.1335 106.886C98.1335 106.597 98.2315 106.363 98.4275 106.186C98.6328 105.999 98.8895 105.906 99.1975 105.906C99.5148 105.906 99.7715 105.999 99.9675 106.186C100.164 106.363 100.262 106.597 100.262 106.886C100.262 107.166 100.164 107.404 99.9675 107.6C99.7715 107.787 99.5148 107.88 99.1975 107.88ZM105.311 116.168C104.621 116.168 104 116.014 103.449 115.706C102.908 115.389 102.483 114.955 102.175 114.404C101.877 113.844 101.727 113.209 101.727 112.5C101.727 111.763 101.877 111.119 102.175 110.568C102.483 110.008 102.908 109.569 103.449 109.252C104 108.935 104.625 108.776 105.325 108.776C106.203 108.776 106.94 109.009 107.537 109.476C108.135 109.933 108.517 110.563 108.685 111.366H106.921C106.828 111.011 106.632 110.731 106.333 110.526C106.044 110.321 105.699 110.218 105.297 110.218C104.952 110.218 104.635 110.307 104.345 110.484C104.065 110.661 103.841 110.918 103.673 111.254C103.515 111.59 103.435 111.996 103.435 112.472C103.435 112.836 103.482 113.158 103.575 113.438C103.669 113.718 103.799 113.956 103.967 114.152C104.145 114.339 104.345 114.483 104.569 114.586C104.793 114.689 105.036 114.74 105.297 114.74C105.568 114.74 105.811 114.698 106.025 114.614C106.249 114.521 106.436 114.385 106.585 114.208C106.744 114.031 106.856 113.821 106.921 113.578H108.685C108.517 114.362 108.135 114.992 107.537 115.468C106.94 115.935 106.198 116.168 105.311 116.168ZM112.657 116.168C112.079 116.168 111.598 116.07 111.215 115.874C110.833 115.678 110.548 115.417 110.361 115.09C110.175 114.763 110.081 114.409 110.081 114.026C110.081 113.578 110.193 113.191 110.417 112.864C110.651 112.537 110.991 112.285 111.439 112.108C111.887 111.921 112.438 111.828 113.091 111.828H114.869C114.869 111.455 114.818 111.147 114.715 110.904C114.613 110.652 114.454 110.465 114.239 110.344C114.025 110.223 113.749 110.162 113.413 110.162C113.031 110.162 112.704 110.251 112.433 110.428C112.163 110.596 111.995 110.857 111.929 111.212H110.277C110.333 110.708 110.501 110.279 110.781 109.924C111.061 109.56 111.43 109.28 111.887 109.084C112.354 108.879 112.863 108.776 113.413 108.776C114.076 108.776 114.641 108.893 115.107 109.126C115.574 109.35 115.929 109.677 116.171 110.106C116.423 110.526 116.549 111.035 116.549 111.632V116H115.121L114.953 114.866C114.86 115.053 114.739 115.225 114.589 115.384C114.449 115.543 114.286 115.683 114.099 115.804C113.913 115.916 113.698 116.005 113.455 116.07C113.222 116.135 112.956 116.168 112.657 116.168ZM113.035 114.838C113.306 114.838 113.544 114.791 113.749 114.698C113.964 114.595 114.146 114.455 114.295 114.278C114.454 114.091 114.575 113.886 114.659 113.662C114.743 113.438 114.799 113.2 114.827 112.948V112.92H113.273C112.947 112.92 112.676 112.962 112.461 113.046C112.247 113.13 112.093 113.247 111.999 113.396C111.906 113.536 111.859 113.704 111.859 113.9C111.859 114.096 111.906 114.264 111.999 114.404C112.093 114.544 112.228 114.651 112.405 114.726C112.583 114.801 112.793 114.838 113.035 114.838ZM121.301 116C120.825 116 120.41 115.925 120.055 115.776C119.71 115.627 119.439 115.379 119.243 115.034C119.047 114.689 118.949 114.222 118.949 113.634V110.358H117.745V108.944H118.949L119.145 107.082H120.629V108.944H122.547V110.358H120.629V113.634C120.629 113.989 120.704 114.236 120.853 114.376C121.012 114.507 121.273 114.572 121.637 114.572H122.505V116H121.301ZM124.197 116V108.944H125.877V116H124.197ZM125.037 107.824C124.729 107.824 124.473 107.731 124.267 107.544C124.071 107.348 123.973 107.11 123.973 106.83C123.973 106.541 124.071 106.307 124.267 106.13C124.473 105.943 124.729 105.85 125.037 105.85C125.345 105.85 125.597 105.943 125.793 106.13C125.999 106.307 126.101 106.541 126.101 106.83C126.101 107.11 125.999 107.348 125.793 107.544C125.597 107.731 125.345 107.824 125.037 107.824ZM131.109 116.168C130.437 116.168 129.83 116.014 129.289 115.706C128.757 115.389 128.337 114.955 128.029 114.404C127.73 113.844 127.581 113.205 127.581 112.486C127.581 111.749 127.735 111.105 128.043 110.554C128.351 109.994 128.771 109.56 129.303 109.252C129.844 108.935 130.451 108.776 131.123 108.776C131.795 108.776 132.397 108.935 132.929 109.252C133.47 109.56 133.89 109.989 134.189 110.54C134.497 111.091 134.651 111.735 134.651 112.472C134.651 113.209 134.497 113.853 134.189 114.404C133.881 114.955 133.456 115.389 132.915 115.706C132.383 116.014 131.781 116.168 131.109 116.168ZM131.109 114.726C131.445 114.726 131.748 114.642 132.019 114.474C132.299 114.306 132.523 114.054 132.691 113.718C132.859 113.382 132.943 112.967 132.943 112.472C132.943 111.977 132.859 111.567 132.691 111.24C132.532 110.904 132.313 110.652 132.033 110.484C131.762 110.316 131.459 110.232 131.123 110.232C130.796 110.232 130.493 110.316 130.213 110.484C129.933 110.652 129.709 110.904 129.541 111.24C129.373 111.567 129.289 111.977 129.289 112.472C129.289 112.967 129.373 113.382 129.541 113.718C129.709 114.054 129.928 114.306 130.199 114.474C130.479 114.642 130.782 114.726 131.109 114.726ZM136.295 116V108.944H137.779L137.905 110.12C138.12 109.709 138.428 109.383 138.829 109.14C139.231 108.897 139.707 108.776 140.257 108.776C140.827 108.776 141.312 108.897 141.713 109.14C142.115 109.373 142.423 109.719 142.637 110.176C142.861 110.633 142.973 111.203 142.973 111.884V116H141.293V112.038C141.293 111.45 141.163 110.997 140.901 110.68C140.64 110.363 140.253 110.204 139.739 110.204C139.403 110.204 139.1 110.283 138.829 110.442C138.568 110.601 138.358 110.834 138.199 111.142C138.05 111.441 137.975 111.805 137.975 112.234V116H136.295Z" fill="url(#paint43_radial_396_300)"/>
<defs>
<linearGradient id="paint0_linear_396_300" x1="304.855" y1="60.4335" x2="142.873" y2="299.422" gradientUnits="userSpaceOnUse">
<stop stop-color="#B2782A"/>
<stop offset="0.333" stop-color="#F4D662"/>
<stop offset="0.516" stop-color="#F4DE8B"/>
<stop offset="0.661" stop-color="#F4D662"/>
<stop offset="1" stop-color="#B2782A"/>
</linearGradient>
<linearGradient id="paint1_linear_396_300" x1="103.034" y1="-84.3661" x2="281.846" y2="123.416" gradientUnits="userSpaceOnUse">
<stop stop-color="#B2782A"/>
<stop offset="0.333" stop-color="#F4D662"/>
<stop offset="0.516" stop-color="#F4DE8B"/>
<stop offset="0.661" stop-color="#F4D662"/>
<stop offset="1" stop-color="#B2782A"/>
</linearGradient>
<linearGradient id="paint2_linear_396_300" x1="-25.7132" y1="68.5499" x2="168.697" y2="-133.296" gradientUnits="userSpaceOnUse">
<stop stop-color="#001438"/>
<stop offset="1" stop-color="#005E8A"/>
</linearGradient>
<linearGradient id="paint3_linear_396_300" x1="18.0149" y1="17.37" x2="186.819" y2="17.37" gradientUnits="userSpaceOnUse">
<stop stop-color="#B2782A"/>
<stop offset="0.333" stop-color="#F4D662"/>
<stop offset="0.516" stop-color="#F4DE8B"/>
<stop offset="0.661" stop-color="#F4D662"/>
<stop offset="1" stop-color="#B2782A"/>
</linearGradient>
<linearGradient id="paint4_linear_396_300" x1="69.7817" y1="127.962" x2="83.1016" y2="127.962" gradientUnits="userSpaceOnUse">
<stop stop-color="#B2782A"/>
<stop offset="0.333" stop-color="#F4D662"/>
<stop offset="0.516" stop-color="#F4DE8B"/>
<stop offset="0.661" stop-color="#F4D662"/>
<stop offset="1" stop-color="#B2782A"/>
</linearGradient>
<linearGradient id="paint5_linear_396_300" x1="55.8289" y1="145.708" x2="82.0938" y2="145.708" gradientUnits="userSpaceOnUse">
<stop stop-color="#B2782A"/>
<stop offset="0.333" stop-color="#F4D662"/>
<stop offset="0.516" stop-color="#F4DE8B"/>
<stop offset="0.661" stop-color="#F4D662"/>
<stop offset="1" stop-color="#B2782A"/>
</linearGradient>
<linearGradient id="paint6_linear_396_300" x1="58.1693" y1="119.882" x2="67.5987" y2="119.882" gradientUnits="userSpaceOnUse">
<stop stop-color="#B2782A"/>
<stop offset="0.333" stop-color="#F4D662"/>
<stop offset="0.516" stop-color="#F4DE8B"/>
<stop offset="0.661" stop-color="#F4D662"/>
<stop offset="1" stop-color="#B2782A"/>
</linearGradient>
<linearGradient id="paint7_linear_396_300" x1="42.7814" y1="135.256" x2="65.6081" y2="135.256" gradientUnits="userSpaceOnUse">
<stop stop-color="#B2782A"/>
<stop offset="0.333" stop-color="#F4D662"/>
<stop offset="0.516" stop-color="#F4DE8B"/>
<stop offset="0.661" stop-color="#F4D662"/>
<stop offset="1" stop-color="#B2782A"/>
</linearGradient>
<linearGradient id="paint8_linear_396_300" x1="49.6157" y1="109.451" x2="57.0252" y2="109.451" gradientUnits="userSpaceOnUse">
<stop stop-color="#B2782A"/>
<stop offset="0.333" stop-color="#F4D662"/>
<stop offset="0.516" stop-color="#F4DE8B"/>
<stop offset="0.661" stop-color="#F4D662"/>
<stop offset="1" stop-color="#B2782A"/>
</linearGradient>
<linearGradient id="paint9_linear_396_300" x1="35.3077" y1="120.446" x2="53.6249" y2="120.446" gradientUnits="userSpaceOnUse">
<stop stop-color="#B2782A"/>
<stop offset="0.333" stop-color="#F4D662"/>
<stop offset="0.516" stop-color="#F4DE8B"/>
<stop offset="0.661" stop-color="#F4D662"/>
<stop offset="1" stop-color="#B2782A"/>
</linearGradient>
<linearGradient id="paint10_linear_396_300" x1="44.8421" y1="96.2955" x2="53.0302" y2="96.2955" gradientUnits="userSpaceOnUse">
<stop stop-color="#B2782A"/>
<stop offset="0.333" stop-color="#F4D662"/>
<stop offset="0.516" stop-color="#F4DE8B"/>
<stop offset="0.661" stop-color="#F4D662"/>
<stop offset="1" stop-color="#B2782A"/>
</linearGradient>
<linearGradient id="paint11_linear_396_300" x1="33.3754" y1="99.9147" x2="46.2709" y2="99.9147" gradientUnits="userSpaceOnUse">
<stop stop-color="#B2782A"/>
<stop offset="0.333" stop-color="#F4D662"/>
<stop offset="0.516" stop-color="#F4DE8B"/>
<stop offset="0.661" stop-color="#F4D662"/>
<stop offset="1" stop-color="#B2782A"/>
</linearGradient>
<linearGradient id="paint12_linear_396_300" x1="43.495" y1="82.7689" x2="54.4113" y2="82.7689" gradientUnits="userSpaceOnUse">
<stop stop-color="#B2782A"/>
<stop offset="0.333" stop-color="#F4D662"/>
<stop offset="0.516" stop-color="#F4DE8B"/>
<stop offset="0.661" stop-color="#F4D662"/>
<stop offset="1" stop-color="#B2782A"/>
</linearGradient>
<linearGradient id="paint13_linear_396_300" x1="34.7781" y1="81.988" x2="44.6103" y2="81.988" gradientUnits="userSpaceOnUse">
<stop stop-color="#B2782A"/>
<stop offset="0.333" stop-color="#F4D662"/>
<stop offset="0.516" stop-color="#F4DE8B"/>
<stop offset="0.661" stop-color="#F4D662"/>
<stop offset="1" stop-color="#B2782A"/>
</linearGradient>
<linearGradient id="paint14_linear_396_300" x1="46.4437" y1="72.1159" x2="60.2089" y2="72.1159" gradientUnits="userSpaceOnUse">
<stop stop-color="#B2782A"/>
<stop offset="0.333" stop-color="#F4D662"/>
<stop offset="0.516" stop-color="#F4DE8B"/>
<stop offset="0.661" stop-color="#F4D662"/>
<stop offset="1" stop-color="#B2782A"/>
</linearGradient>
<linearGradient id="paint15_linear_396_300" x1="41.7042" y1="66.0871" x2="48.4471" y2="66.0871" gradientUnits="userSpaceOnUse">
<stop stop-color="#B2782A"/>
<stop offset="0.333" stop-color="#F4D662"/>
<stop offset="0.516" stop-color="#F4DE8B"/>
<stop offset="0.661" stop-color="#F4D662"/>
<stop offset="1" stop-color="#B2782A"/>
</linearGradient>
<linearGradient id="paint16_linear_396_300" x1="68.6054" y1="50.6226" x2="80.0521" y2="50.6226" gradientUnits="userSpaceOnUse">
<stop stop-color="#B2782A"/>
<stop offset="0.333" stop-color="#F4D662"/>
<stop offset="0.516" stop-color="#F4DE8B"/>
<stop offset="0.661" stop-color="#F4D662"/>
<stop offset="1" stop-color="#B2782A"/>
</linearGradient>
<linearGradient id="paint17_linear_396_300" x1="68.0923" y1="42.8665" x2="73.6356" y2="42.8665" gradientUnits="userSpaceOnUse">
<stop stop-color="#B2782A"/>
<stop offset="0.333" stop-color="#F4D662"/>
<stop offset="0.516" stop-color="#F4DE8B"/>
<stop offset="0.661" stop-color="#F4D662"/>
<stop offset="1" stop-color="#B2782A"/>
</linearGradient>
<linearGradient id="paint18_linear_396_300" x1="60.2368" y1="55.9232" x2="74.7902" y2="55.9232" gradientUnits="userSpaceOnUse">
<stop stop-color="#B2782A"/>
<stop offset="0.333" stop-color="#F4D662"/>
<stop offset="0.516" stop-color="#F4DE8B"/>
<stop offset="0.661" stop-color="#F4D662"/>
<stop offset="1" stop-color="#B2782A"/>
</linearGradient>
<linearGradient id="paint19_linear_396_300" x1="59.077" y1="46.0937" x2="65.1827" y2="46.0937" gradientUnits="userSpaceOnUse">
<stop stop-color="#B2782A"/>
<stop offset="0.333" stop-color="#F4D662"/>
<stop offset="0.516" stop-color="#F4DE8B"/>
<stop offset="0.661" stop-color="#F4D662"/>
<stop offset="1" stop-color="#B2782A"/>
</linearGradient>
<linearGradient id="paint20_linear_396_300" x1="51.7119" y1="63.4084" x2="66.3669" y2="63.4084" gradientUnits="userSpaceOnUse">
<stop stop-color="#B2782A"/>
<stop offset="0.333" stop-color="#F4D662"/>
<stop offset="0.516" stop-color="#F4DE8B"/>
<stop offset="0.661" stop-color="#F4D662"/>
<stop offset="1" stop-color="#B2782A"/>
</linearGradient>
<linearGradient id="paint21_linear_396_300" x1="48.81" y1="54.787" x2="54.7977" y2="54.787" gradientUnits="userSpaceOnUse">
<stop stop-color="#B2782A"/>
<stop offset="0.333" stop-color="#F4D662"/>
<stop offset="0.516" stop-color="#F4DE8B"/>
<stop offset="0.661" stop-color="#F4D662"/>
<stop offset="1" stop-color="#B2782A"/>
</linearGradient>
<linearGradient id="paint22_linear_396_300" x1="75.8682" y1="45.0729" x2="86.7325" y2="45.0729" gradientUnits="userSpaceOnUse">
<stop stop-color="#B2782A"/>
<stop offset="0.333" stop-color="#F4D662"/>
<stop offset="0.516" stop-color="#F4DE8B"/>
<stop offset="0.661" stop-color="#F4D662"/>
<stop offset="1" stop-color="#B2782A"/>
</linearGradient>
<linearGradient id="paint23_linear_396_300" x1="121.72" y1="127.962" x2="135.04" y2="127.962" gradientUnits="userSpaceOnUse">
<stop stop-color="#B2782A"/>
<stop offset="0.333" stop-color="#F4D662"/>
<stop offset="0.516" stop-color="#F4DE8B"/>
<stop offset="0.661" stop-color="#F4D662"/>
<stop offset="1" stop-color="#B2782A"/>
</linearGradient>
<linearGradient id="paint24_linear_396_300" x1="122.721" y1="145.708" x2="148.993" y2="145.708" gradientUnits="userSpaceOnUse">
<stop stop-color="#B2782A"/>
<stop offset="0.333" stop-color="#F4D662"/>
<stop offset="0.516" stop-color="#F4DE8B"/>
<stop offset="0.661" stop-color="#F4D662"/>
<stop offset="1" stop-color="#B2782A"/>
</linearGradient>
<linearGradient id="paint25_linear_396_300" x1="137.223" y1="119.882" x2="146.659" y2="119.882" gradientUnits="userSpaceOnUse">
<stop stop-color="#B2782A"/>
<stop offset="0.333" stop-color="#F4D662"/>
<stop offset="0.516" stop-color="#F4DE8B"/>
<stop offset="0.661" stop-color="#F4D662"/>
<stop offset="1" stop-color="#B2782A"/>
</linearGradient>
<linearGradient id="paint26_linear_396_300" x1="139.214" y1="135.256" x2="162.047" y2="135.256" gradientUnits="userSpaceOnUse">
<stop stop-color="#B2782A"/>
<stop offset="0.333" stop-color="#F4D662"/>
<stop offset="0.516" stop-color="#F4DE8B"/>
<stop offset="0.661" stop-color="#F4D662"/>
<stop offset="1" stop-color="#B2782A"/>
</linearGradient>
<linearGradient id="paint27_linear_396_300" x1="147.798" y1="109.451" x2="155.207" y2="109.451" gradientUnits="userSpaceOnUse">
<stop stop-color="#B2782A"/>
<stop offset="0.333" stop-color="#F4D662"/>
<stop offset="0.516" stop-color="#F4DE8B"/>
<stop offset="0.661" stop-color="#F4D662"/>
<stop offset="1" stop-color="#B2782A"/>
</linearGradient>
<linearGradient id="paint28_linear_396_300" x1="151.204" y1="120.446" x2="169.521" y2="120.446" gradientUnits="userSpaceOnUse">
<stop stop-color="#B2782A"/>
<stop offset="0.333" stop-color="#F4D662"/>
<stop offset="0.516" stop-color="#F4DE8B"/>
<stop offset="0.661" stop-color="#F4D662"/>
<stop offset="1" stop-color="#B2782A"/>
</linearGradient>
<linearGradient id="paint29_linear_396_300" x1="151.801" y1="96.2955" x2="159.976" y2="96.2955" gradientUnits="userSpaceOnUse">
<stop stop-color="#B2782A"/>
<stop offset="0.333" stop-color="#F4D662"/>
<stop offset="0.516" stop-color="#F4DE8B"/>
<stop offset="0.661" stop-color="#F4D662"/>
<stop offset="1" stop-color="#B2782A"/>
</linearGradient>
<linearGradient id="paint30_linear_396_300" x1="158.559" y1="99.9147" x2="171.46" y2="99.9147" gradientUnits="userSpaceOnUse">
<stop stop-color="#B2782A"/>
<stop offset="0.333" stop-color="#F4D662"/>
<stop offset="0.516" stop-color="#F4DE8B"/>
<stop offset="0.661" stop-color="#F4D662"/>
<stop offset="1" stop-color="#B2782A"/>
</linearGradient>
<linearGradient id="paint31_linear_396_300" x1="150.41" y1="82.7689" x2="161.329" y2="82.7689" gradientUnits="userSpaceOnUse">
<stop stop-color="#B2782A"/>
<stop offset="0.333" stop-color="#F4D662"/>
<stop offset="0.516" stop-color="#F4DE8B"/>
<stop offset="0.661" stop-color="#F4D662"/>
<stop offset="1" stop-color="#B2782A"/>
</linearGradient>
<linearGradient id="paint32_linear_396_300" x1="160.216" y1="81.988" x2="170.05" y2="81.988" gradientUnits="userSpaceOnUse">
<stop stop-color="#B2782A"/>
<stop offset="0.333" stop-color="#F4D662"/>
<stop offset="0.516" stop-color="#F4DE8B"/>
<stop offset="0.661" stop-color="#F4D662"/>
<stop offset="1" stop-color="#B2782A"/>
</linearGradient>
<linearGradient id="paint33_linear_396_300" x1="144.612" y1="72.1159" x2="158.378" y2="72.1159" gradientUnits="userSpaceOnUse">
<stop stop-color="#B2782A"/>
<stop offset="0.333" stop-color="#F4D662"/>
<stop offset="0.516" stop-color="#F4DE8B"/>
<stop offset="0.661" stop-color="#F4D662"/>
<stop offset="1" stop-color="#B2782A"/>
</linearGradient>
<linearGradient id="paint34_linear_396_300" x1="156.378" y1="66.0871" x2="163.117" y2="66.0871" gradientUnits="userSpaceOnUse">
<stop stop-color="#B2782A"/>
<stop offset="0.333" stop-color="#F4D662"/>
<stop offset="0.516" stop-color="#F4DE8B"/>
<stop offset="0.661" stop-color="#F4D662"/>
<stop offset="1" stop-color="#B2782A"/>
</linearGradient>
<linearGradient id="paint35_linear_396_300" x1="124.783" y1="50.6226" x2="136.223" y2="50.6226" gradientUnits="userSpaceOnUse">
<stop stop-color="#B2782A"/>
<stop offset="0.333" stop-color="#F4D662"/>
<stop offset="0.516" stop-color="#F4DE8B"/>
<stop offset="0.661" stop-color="#F4D662"/>
<stop offset="1" stop-color="#B2782A"/>
</linearGradient>
<linearGradient id="paint36_linear_396_300" x1="131.182" y1="42.8665" x2="136.734" y2="42.8665" gradientUnits="userSpaceOnUse">
<stop stop-color="#B2782A"/>
<stop offset="0.333" stop-color="#F4D662"/>
<stop offset="0.516" stop-color="#F4DE8B"/>
<stop offset="0.661" stop-color="#F4D662"/>
<stop offset="1" stop-color="#B2782A"/>
</linearGradient>
<linearGradient id="paint37_linear_396_300" x1="130.039" y1="55.9232" x2="144.585" y2="55.9232" gradientUnits="userSpaceOnUse">
<stop stop-color="#B2782A"/>
<stop offset="0.333" stop-color="#F4D662"/>
<stop offset="0.516" stop-color="#F4DE8B"/>
<stop offset="0.661" stop-color="#F4D662"/>
<stop offset="1" stop-color="#B2782A"/>
</linearGradient>
<linearGradient id="paint38_linear_396_300" x1="139.644" y1="46.0937" x2="145.748" y2="46.0937" gradientUnits="userSpaceOnUse">
<stop stop-color="#B2782A"/>
<stop offset="0.333" stop-color="#F4D662"/>
<stop offset="0.516" stop-color="#F4DE8B"/>
<stop offset="0.661" stop-color="#F4D662"/>
<stop offset="1" stop-color="#B2782A"/>
</linearGradient>
<linearGradient id="paint39_linear_396_300" x1="138.461" y1="63.4084" x2="153.116" y2="63.4084" gradientUnits="userSpaceOnUse">
<stop stop-color="#B2782A"/>
<stop offset="0.333" stop-color="#F4D662"/>
<stop offset="0.516" stop-color="#F4DE8B"/>
<stop offset="0.661" stop-color="#F4D662"/>
<stop offset="1" stop-color="#B2782A"/>
</linearGradient>
<linearGradient id="paint40_linear_396_300" x1="150.024" y1="54.787" x2="156.018" y2="54.787" gradientUnits="userSpaceOnUse">
<stop stop-color="#B2782A"/>
<stop offset="0.333" stop-color="#F4D662"/>
<stop offset="0.516" stop-color="#F4DE8B"/>
<stop offset="0.661" stop-color="#F4D662"/>
<stop offset="1" stop-color="#B2782A"/>
</linearGradient>
<linearGradient id="paint41_linear_396_300" x1="118.103" y1="45.0729" x2="128.954" y2="45.0729" gradientUnits="userSpaceOnUse">
<stop stop-color="#B2782A"/>
<stop offset="0.333" stop-color="#F4D662"/>
<stop offset="0.516" stop-color="#F4DE8B"/>
<stop offset="0.661" stop-color="#F4D662"/>
<stop offset="1" stop-color="#B2782A"/>
</linearGradient>
<linearGradient id="paint42_linear_396_300" x1="167.73" y1="181.697" x2="24.7186" y2="165.832" gradientUnits="userSpaceOnUse">
<stop stop-color="#A6A6A6"/>
<stop offset="1"/>
</linearGradient>
<radialGradient id="paint43_radial_396_300" cx="0" cy="0" r="1" gradientUnits="userSpaceOnUse" gradientTransform="translate(101.5 111) scale(42.5 9)">
<stop stop-color="#E4CCAA"/>
<stop offset="1" stop-color="#FFDC58"/>
</radialGradient>
</defs>
</svg>
