<svg width="110" height="170" viewBox="0 0 110 170" fill="none" xmlns="http://www.w3.org/2000/svg">
<g filter="url(#filter0_f_459_1564)">
<path opacity="0.1" d="M99.2258 130.203C103.723 135.192 72.834 151.966 50.168 156.529C35.495 159.483 13.6168 161.009 11.3518 157.481C7.51123 151.539 35.9053 141.134 57.9477 133.83C77.446 127.38 95.139 125.689 99.2258 130.203Z" fill="black"/>
</g>
<path d="M12.1349 99.6418L13.5956 119.534L18.4046 152.458H22.0974L24.4445 122.078L25.4785 97.4917L12.1349 99.6418Z" fill="#49556F"/>
<path d="M22.081 152.015V154.017L18.0763 156.02L16.074 154.017L18.0763 152.015H22.081Z" fill="#3A3029"/>
<path d="M38.3461 94.9645L36.9346 122.833L33.7177 154.838H29.9263L26.8407 124.524L22.3436 92.6011L38.3461 94.9645Z" fill="#49556F"/>
<path d="M29.9427 154.378V156.43L34.0459 158.482L36.0975 156.43L34.0459 154.378H29.9427Z" fill="#3A3029"/>
<path d="M25.4293 50.2558C26.7204 50.1355 28.0116 50.0096 29.3027 49.8783C29.3191 48.8443 29.2535 47.8103 29.1057 46.7763C30.1726 46.3988 31.4199 45.8408 31.6169 44.7083C31.6661 44.3636 31.6169 44.0025 31.5512 43.6415C31.2996 42.1753 31.0479 40.7091 30.7963 39.2428C30.7142 38.7341 30.6157 38.2088 30.3367 37.7821C29.8607 37.0107 28.9252 36.6825 28.0389 36.5347C25.7575 36.1244 23.2956 36.6168 21.523 38.1104C21.0635 38.5043 20.6368 38.9802 20.4234 39.5547C20.1115 40.441 20.3413 41.4257 20.5875 42.3284C20.8064 43.1819 21.0252 44.0299 21.244 44.8724C21.5066 45.8408 21.8677 46.9404 22.8032 47.3015C23.2956 47.4985 23.8865 47.4492 24.3296 47.7282C25.1174 48.237 25.019 49.4188 25.4293 50.2558Z" fill="#EACDB0"/>
<path d="M12.7914 35.6158C12.775 34.5982 12.9063 33.5971 13.1197 32.6779C13.4643 31.1023 15.319 30.3966 16.9274 30.2817C20.3905 30.0355 23.7551 28.4599 27.1362 29.6744C29.0729 30.3802 31.6825 30.5443 33.4387 31.5126C34.1773 31.923 34.7517 32.5631 35.2113 33.2688C36.7869 35.7143 36.7869 39.0789 35.2277 41.5244C34.8666 42.066 34.4399 42.5748 33.9967 43.0508C33.094 44.052 31.9944 45.2665 30.7306 45.6276C30.6977 44.5116 31.7317 40.9664 30.8619 40.0309C29.4996 38.5701 26.3976 39.0789 24.6907 39.44C22.836 39.8175 21.1783 41.1305 19.3401 41.4095C18.0107 41.6229 16.3202 40.9664 15.1877 40.2771C13.4315 39.2102 12.8407 37.4212 12.7914 35.6158Z" fill="#3A3029"/>
<path d="M22.3601 49.2549L34.604 49.7801L40.7916 73.3324L45.9124 105.961L6.47253 106.929L15.7457 60.7931L22.3601 49.2549Z" fill="#DCE7FF"/>
<path d="M51.5419 24.9146C51.5419 38.6685 40.3977 49.8292 26.6273 49.8292C12.8735 49.8292 1.71277 38.6685 1.71277 24.9146C1.71277 11.1607 12.8735 0 26.6273 0C40.3977 0 51.5419 11.1607 51.5419 24.9146Z" fill="#DCE7FF"/>
<path d="M48.2265 24.9146C48.2265 36.8467 38.5594 46.5138 26.6273 46.5138C14.7117 46.5138 5.04456 36.8467 5.04456 24.9146C5.04456 12.9825 14.7117 3.31543 26.6273 3.31543C38.5594 3.31543 48.2265 12.9825 48.2265 24.9146Z" fill="white"/>
<g style="mix-blend-mode:multiply" opacity="0.1">
<path d="M41.4481 9.35547C44.6321 13.114 46.5689 17.9886 46.5689 23.3063C46.5689 35.222 36.9017 44.8891 24.9697 44.8891C19.2252 44.8891 14.0223 42.657 10.1489 38.9969C14.1044 43.6746 20.0294 46.6453 26.6273 46.6453C38.5594 46.6453 48.2265 36.9782 48.2265 25.0461C48.2265 18.8585 45.6169 13.2945 41.4481 9.35547Z" fill="#2E4661"/>
</g>
<path d="M25.101 24.9966L25.0682 25.6367C25.0518 25.9322 25.2816 26.1619 25.5606 26.1783L46.0273 27.0318C46.3227 27.0482 46.5525 26.8349 46.5689 26.5394L46.6018 25.8993C46.6018 25.6203 46.3884 25.3741 46.1094 25.3577L25.6262 24.5042C25.3472 24.4878 25.101 24.7176 25.101 24.9966Z" fill="#013BB7"/>
<path d="M27.4645 23.4866V12.8675C27.4645 12.408 27.087 12.0469 26.6274 12.0469C26.1679 12.0469 25.8068 12.408 25.8068 12.8675V23.4866C25.298 23.7656 24.9697 24.3072 24.9697 24.9145C24.9697 25.8336 25.7083 26.5722 26.6274 26.5722C27.5465 26.5722 28.2851 25.8336 28.2851 24.9145C28.2851 24.3072 27.9569 23.7656 27.4645 23.4866Z" fill="#150936"/>
<path d="M49.4575 35.7143L50.393 33.4493L49.5232 31.4634L49.8514 31.0695L50.3602 31.447L50.114 29.5924L50.9183 28.3122L52.937 28.1973L54.644 29.3626L54.5619 31.3813L53.2653 33.4001L52.1164 36.5678L49.4575 35.7143Z" fill="#EACDB0"/>
<path d="M49.4903 33.9907L53.1503 34.4831L48.0132 52.4223L36.6227 62.434L33.6848 50.5512L42.9252 46.448L49.4903 33.9907Z" fill="#DCE7FF"/>
<path d="M5.09387 35.2383L4.33889 32.9077L5.35648 31.0038L5.06105 30.5771L4.53584 30.9218L4.92975 29.1L4.224 27.7541L2.22164 27.4751L0.416236 28.5091L0.350586 30.5279L1.48307 32.6287L2.36935 35.8784L5.09387 35.2383Z" fill="#EACDB0"/>
<path d="M5.19226 33.5146L1.49939 33.728L5.19226 52.0118L16.4022 63.3695L21.2439 50.666L10.7562 46.4643L5.19226 33.5146Z" fill="#DCE7FF"/>
<defs>
<filter id="filter0_f_459_1564" x="1" y="117.666" width="108.666" height="51.856" filterUnits="userSpaceOnUse" color-interpolation-filters="sRGB">
<feFlood flood-opacity="0" result="BackgroundImageFix"/>
<feBlend mode="normal" in="SourceGraphic" in2="BackgroundImageFix" result="shape"/>
<feGaussianBlur stdDeviation="5" result="effect1_foregroundBlur_459_1564"/>
</filter>
</defs>
</svg>
