<svg width="40" height="40" viewBox="0 0 40 40" fill="none" xmlns="http://www.w3.org/2000/svg">
<rect width="40" height="40" rx="5" fill="#EFF4FF"/>
<path fillRule="evenodd" clipRule="evenodd" d="M15.8334 12.2917C14.4876 12.2917 13.2706 12.6281 12.3873 13.4483C11.4956 14.2763 11.0417 15.506 11.0417 17.0834V22.9167C11.0417 24.4942 11.4956 25.7238 12.3873 26.5518C13.2706 27.3721 14.4876 27.7084 15.8334 27.7084H24.1667C25.5126 27.7084 26.7296 27.3721 27.6128 26.5518C28.5046 25.7238 28.9584 24.4942 28.9584 22.9167V17.0834C28.9584 15.506 28.5046 14.2763 27.6128 13.4483C26.7296 12.6281 25.5126 12.2917 24.1667 12.2917H15.8334ZM26.0238 16.9687C26.2969 16.7576 26.3472 16.3651 26.1362 16.092C25.9252 15.8188 25.5327 15.7685 25.2595 15.9796L20.6369 19.5514C20.2618 19.8413 19.7382 19.8413 19.3631 19.5514L14.7406 15.9796C14.4674 15.7685 14.0749 15.8188 13.8639 16.092C13.6528 16.3651 13.7031 16.7576 13.9763 16.9687L18.5988 20.5406C19.4242 21.1782 20.5759 21.1782 21.4012 20.5406L26.0238 16.9687Z" fill="#013BB7"/>
</svg>
