<svg width="18" height="18" viewBox="0 0 18 18" fill="none" xmlns="http://www.w3.org/2000/svg">
<path d="M10.8974 7.10244L7.10244 10.8974C6.61494 10.4099 6.31494 9.74241 6.31494 8.99991C6.31494 7.51491 7.51491 6.31494 8.99991 6.31494C9.74241 6.31494 10.4099 6.61494 10.8974 7.10244Z" stroke="#013BB7" stroke-linecap="round" stroke-linejoin="round"/>
<path d="M13.3649 4.32736C12.0524 3.33736 10.5524 2.79736 8.99991 2.79736C6.35238 2.79736 3.88488 4.35736 2.16738 7.05736C1.49238 8.11488 1.49238 9.89238 2.16738 10.9499C2.75988 11.8799 3.44988 12.6824 4.19988 13.3274" stroke="#013BB7" stroke-linecap="round" stroke-linejoin="round"/>
<path d="M6.31494 14.6475C7.16994 15.0075 8.07741 15.2025 8.99991 15.2025C11.6474 15.2025 14.1149 13.6425 15.8324 10.9425C16.5074 9.88505 16.5074 8.10755 15.8324 7.05001C15.5849 6.66001 15.3149 6.29251 15.0374 5.94751" stroke="#013BB7" stroke-linecap="round" stroke-linejoin="round"/>
<path d="M11.6324 9.5249C11.4374 10.5824 10.5749 11.4449 9.51736 11.6399" stroke="#013BB7" stroke-linecap="round" stroke-linejoin="round"/>
<path d="M7.10244 10.8975L1.49994 16.5" stroke="#013BB7" stroke-linecap="round" stroke-linejoin="round"/>
<path d="M16.4999 1.5L10.8974 7.1025" stroke="#013BB7" stroke-linecap="round" stroke-linejoin="round"/>
</svg>
