<svg width="18" height="18" viewBox="0 0 18 18" fill="none" xmlns="http://www.w3.org/2000/svg">
<path fill-rule="evenodd" clip-rule="evenodd" d="M9 11.8125C7.4467 11.8125 6.1875 10.5533 6.1875 9C6.1875 7.44668 7.4467 6.1875 9 6.1875C10.5533 6.1875 11.8125 7.44668 11.8125 9C11.8125 10.5533 10.5533 11.8125 9 11.8125ZM7.3125 9C7.3125 9.93195 8.06805 10.6875 9 10.6875C9.93195 10.6875 10.6875 9.93195 10.6875 9C10.6875 8.06805 9.93195 7.3125 9 7.3125C8.06805 7.3125 7.3125 8.06805 7.3125 9Z" fill="#013BB7"/>
<path fill-rule="evenodd" clip-rule="evenodd" d="M9 15.5625C5.6144 15.5625 3.33397 13.5344 2.01043 11.8149L1.98655 11.7838C1.68723 11.3951 1.41154 11.0371 1.22452 10.6137C1.02423 10.1603 0.9375 9.66623 0.9375 9C0.9375 8.33378 1.02423 7.83968 1.22452 7.3863C1.41154 6.96293 1.68723 6.60488 1.98656 6.21615L2.01043 6.18518C3.33397 4.46565 5.6144 2.4375 9 2.4375C12.3856 2.4375 14.666 4.46565 15.9895 6.18518L16.0134 6.21615C16.3128 6.60488 16.5884 6.96293 16.7755 7.3863C16.9758 7.83968 17.0625 8.33378 17.0625 9C17.0625 9.66623 16.9758 10.1603 16.7755 10.6137C16.5884 11.0371 16.3128 11.3951 16.0134 11.7839L15.9895 11.8149C14.666 13.5344 12.3856 15.5625 9 15.5625ZM2.90191 11.1287C4.12398 12.7163 6.11277 14.4375 9 14.4375C11.8872 14.4375 13.876 12.7163 15.0981 11.1287C15.427 10.7013 15.6197 10.4459 15.7464 10.1591C15.8649 9.891 15.9375 9.56333 15.9375 9C15.9375 8.43668 15.8649 8.109 15.7464 7.84088C15.6197 7.55408 15.427 7.2987 15.0981 6.87135C13.876 5.28368 11.8872 3.5625 9 3.5625C6.11277 3.5625 4.12398 5.28368 2.90191 6.87135C2.57298 7.2987 2.3803 7.55408 2.25357 7.84088C2.13513 8.109 2.0625 8.43668 2.0625 9C2.0625 9.56333 2.13513 9.891 2.25357 10.1591C2.3803 10.4459 2.57297 10.7013 2.90191 11.1287Z" fill="#013BB7"/>
</svg>
