<svg width="20" height="20" viewBox="0 0 20 20" fill="none" xmlns="http://www.w3.org/2000/svg">
<g clip-path="url(#clip0_46_254)">
<path fill-rule="evenodd" clip-rule="evenodd" d="M20 10.2222C20 9.39994 19.9319 8.79993 19.7846 8.17773H10.2041V11.8888H15.8276C15.7143 12.8111 15.102 14.1999 13.7415 15.1332L13.7224 15.2575L16.7516 17.5572L16.9614 17.5778C18.8888 15.8333 20 13.2666 20 10.2222Z" fill="#4285F4"/>
<path fill-rule="evenodd" clip-rule="evenodd" d="M10.2041 20C12.9591 20 15.272 19.1111 16.9614 17.5778L13.7415 15.1332C12.8798 15.7221 11.7233 16.1333 10.2041 16.1333C7.50569 16.1333 5.21546 14.3889 4.39904 11.9778L4.2794 11.9877L1.12959 14.3766L1.08839 14.4888C2.76636 17.7555 6.21312 20 10.2041 20Z" fill="#34A853"/>
<path fill-rule="evenodd" clip-rule="evenodd" d="M4.39904 11.9778C4.18365 11.3556 4.05893 10.6889 4.05893 10C4.05893 9.31111 4.18359 8.64445 4.38771 8.02224L4.38202 7.8897L1.19277 5.4624L1.08845 5.51106C0.396856 6.86664 6.10352e-05 8.38885 6.10352e-05 9.99997C6.10352e-05 11.6111 0.396918 13.1332 1.08845 14.4888L4.3991 11.9777" fill="#FBBC04"/>
<path fill-rule="evenodd" clip-rule="evenodd" d="M10.2041 3.86658C12.1202 3.86658 13.4126 4.67772 14.1496 5.35555L17.0295 2.59998C15.2608 0.988861 12.9591 0 10.2041 0C6.21312 0 2.76643 2.24442 1.08839 5.51107L4.38771 8.02225C5.21546 5.61115 7.50569 3.86664 10.2041 3.86664" fill="#EA4335"/>
</g>
<defs>
<clipPath id="clip0_46_254">
<rect width="20" height="20" fill="white"/>
</clipPath>
</defs>
</svg>
