<svg width="158" height="146" viewBox="0 0 158 146" fill="none" xmlns="http://www.w3.org/2000/svg">
<path d="M157 75L151 69" stroke="#EFF4FF" stroke-width="2" stroke-linecap="round"/>
<path d="M157 69L151 75" stroke="#EFF4FF" stroke-width="2" stroke-linecap="round"/>
<path d="M10.2426 39H1.75732" stroke="#3751F2" stroke-width="2" stroke-linecap="round"/>
<path d="M6 34.7574L6 43.2427" stroke="#3751F2" stroke-width="2" stroke-linecap="round"/>
<path d="M122.085 45.6138V51.8224C122.085 63.9121 120.025 74.4808 115.97 83.2322C112.725 90.2286 108.201 96.0862 102.523 100.649C92.9758 108.324 83.6005 109.666 82.9999 109.744C82.3915 109.658 73.024 108.316 63.477 100.649C57.7988 96.0862 53.2749 90.2286 50.0302 83.2322C45.9743 74.4808 43.9152 63.9121 43.9152 51.8224V37.2057L82.9999 19.9057L107.764 30.8644L114.87 24.102L82.9999 10L35 31.2466V50.8865C35 64.7389 37.3945 76.93 42.1212 87.1243C45.9977 95.4856 51.4263 102.505 58.2512 107.989C69.9352 117.38 81.7519 118.971 82.2511 119.033L82.9999 119.127L83.7487 119.033C84.2478 118.971 96.0645 117.38 107.749 107.989C114.573 102.505 120.002 95.4856 123.879 87.1243C128.605 76.93 131 64.7389 131 50.8865V31.7536L122.085 45.6138Z" fill="#013BB7"/>
<path d="M128.051 24.8899L88.6234 86.1884C86.2132 89.9401 80.7924 90.1273 78.1405 86.5394L53.0096 52.6961C51.902 51.2064 53.5711 49.233 55.2247 50.0754L82.1183 63.8108L125.36 22.667C126.866 21.224 129.182 23.1349 128.051 24.8899Z" fill="#013BB7"/>
<path d="M131 31.7537V50.8865C131 64.739 128.605 76.93 123.879 87.1243C120.002 95.4857 114.574 102.506 107.749 107.989C96.0646 117.38 84.248 118.971 83.7488 119.033L83 119.127V109.744C83.6006 109.666 92.9759 108.324 102.523 100.649C108.201 96.0863 112.725 90.2286 115.97 83.2322C120.026 74.4809 122.085 63.9122 122.085 51.8225V45.6139L131 31.7537Z" fill="#49556F"/>
<path d="M114.87 24.102L107.764 30.8644L83 19.9057V10L114.87 24.102Z" fill="#49556F"/>
<g filter="url(#filter0_f_459_1381)">
<path d="M119 132C119 134.205 102.888 136 83 136C63.1119 136 47 134.205 47 132C47 129.795 63.1119 128 83 128C102.888 128 119 129.795 119 132Z" fill="#D8DFE5" fill-opacity="0.5"/>
</g>
<circle cx="19.5" cy="101.5" r="3" fill="white" stroke="#49556F"/>
<circle cx="138.5" cy="3.5" r="3" fill="white" stroke="#49556F"/>
<circle cx="48.5" cy="5.5" r="2.5" fill="#EFF4FF"/>
<circle cx="125.5" cy="109.5" r="2.5" fill="#B9B9B9"/>
<defs>
<filter id="filter0_f_459_1381" x="37" y="118" width="92" height="28" filterUnits="userSpaceOnUse" color-interpolation-filters="sRGB">
<feFlood flood-opacity="0" result="BackgroundImageFix"/>
<feBlend mode="normal" in="SourceGraphic" in2="BackgroundImageFix" result="shape"/>
<feGaussianBlur stdDeviation="5" result="effect1_foregroundBlur_459_1381"/>
</filter>
</defs>
</svg>
