<svg width="1440" height="633" viewBox="0 0 1440 633" fill="none" xmlns="http://www.w3.org/2000/svg">
<path fill-rule="evenodd" clip-rule="evenodd" d="M1440 647.201V647.719C1417.88 629.539 1395.24 610.61 1372.15 591.278C1248.11 487.5 1110.53 372.371 963.418 299.104C674.122 155.019 347.904 172.825 15.2928 757H14.832C347.645 172.364 674.093 154.558 963.59 298.758C1110.76 372.054 1248.36 487.183 1372.41 590.99C1395.42 610.236 1417.97 629.078 1440 647.201ZM1440 672.266V672.785C1411.75 648.901 1382.89 623.691 1353.4 597.962C1240.53 499.428 1118.65 393 987.552 322.499C712.598 174.64 397.123 184.781 39.2832 757H38.8224C396.864 184.32 712.598 174.179 987.754 322.153C1118.88 392.683 1240.79 499.111 1353.66 597.674C1383.06 623.345 1411.83 648.468 1440 672.266ZM1440 697.303V697.822C1406.76 668.895 1372.98 637.981 1338.51 606.433C1235.46 512.134 1126.45 412.39 1008.52 344.395C748.454 194.491 444.845 199.072 65.5776 757H65.1168C444.586 198.611 748.426 194.03 1008.72 344.078C1126.71 412.073 1235.72 511.846 1338.8 606.174C1373.16 637.607 1406.85 668.434 1440 697.303ZM1440 722.254V722.772C1402.7 689.323 1365.12 653.136 1326.93 616.344C1232.44 525.329 1134.09 430.656 1026.95 364.88C781.978 214.486 490.896 215.35 94.032 757H93.5424C490.666 214.889 781.978 214.025 1027.15 364.534C1134.35 430.339 1232.7 525.041 1327.22 616.085C1365.32 652.79 1402.82 688.89 1440 722.254ZM1440 747.118V747.665C1399.45 710.124 1359.04 669.039 1318.15 627.407C1231.08 538.813 1141.72 447.885 1043.48 383.982C813.658 234.538 535.248 233.299 124.502 757H124.013C535.046 232.838 813.658 234.077 1043.71 383.665C1141.98 447.597 1231.37 538.554 1318.44 627.148C1359.24 668.665 1399.54 709.663 1440 747.118ZM1424.62 757H1424.07C1386.37 719.92 1349.22 679.815 1311.78 639.422C1231.26 552.498 1149.52 464.25 1058.69 401.96C843.811 254.591 577.958 252.603 156.96 757H156.442C577.757 252.142 843.84 254.159 1058.92 401.643C1149.78 463.962 1231.55 552.21 1312.1 639.162C1349.6 679.642 1386.84 719.862 1424.62 757ZM1401.52 757H1400.98C1369.47 723.377 1338.57 687.824 1307.58 652.214C1232.87 566.27 1157.73 479.894 1073.09 418.93C872.813 274.672 619.142 273.001 191.261 757H190.742C618.941 272.511 872.842 274.24 1073.32 418.613C1158.02 479.606 1233.16 566.011 1307.89 651.954C1338.94 687.68 1369.93 723.32 1401.52 757ZM1381.45 757H1380.93C1355.36 727.296 1330.3 696.468 1305.27 665.669C1235.78 580.157 1166.52 494.962 1087.14 435.122C900.95 294.782 658.915 294.177 227.405 757H226.858C658.742 293.688 900.979 294.35 1087.37 434.805C1166.8 494.674 1236.07 579.927 1305.59 665.438C1330.68 696.324 1355.82 727.238 1381.45 757ZM1364.43 757H1363.94C1343.89 731.617 1324.22 705.601 1304.64 679.7C1239.98 594.188 1176.05 509.598 1101.14 450.708C928.483 314.95 697.507 315.901 265.248 757H264.701C697.334 315.411 928.541 314.489 1101.4 450.42C1176.34 509.31 1240.3 593.929 1304.96 679.469C1324.6 705.457 1344.33 731.531 1364.43 757ZM1440 622.106V622.596C1425.46 610.956 1410.68 599.057 1395.62 586.928C1259.08 476.898 1102.15 350.446 935.453 274.24C634.694 136.753 302.083 163.029 0 744.698V743.833C302.141 162.539 634.781 136.379 935.626 273.894C1102.38 350.129 1259.31 476.581 1395.88 586.64C1410.85 598.683 1425.54 610.524 1440 622.106ZM1440 596.925V597.415C1435.03 593.535 1430.02 589.626 1424.97 585.689C1274.89 468.543 1093.77 327.195 903.053 248.079C597.485 121.31 267.178 154.386 0 702.72V701.798C267.235 153.925 597.6 120.936 903.197 247.705C1094 326.849 1275.12 468.226 1425.23 585.401C1430.18 589.281 1435.1 593.122 1440 596.925ZM1440 571.715V572.205C1279.44 450.075 1076.46 299.075 865.613 220.795C558.115 106.617 233.856 147.212 0 657.659V656.708C233.971 146.779 558.23 106.242 865.757 220.421C1076.54 298.701 1279.44 449.585 1440 571.715ZM1440 546.477V546.967C1270.66 421.206 1048.87 266.547 822.701 192.733C516.816 92.9314 202.954 141.161 0 608.968V607.989C203.069 140.7 516.931 92.5568 822.845 192.388C1048.95 266.173 1270.66 420.745 1440 546.477ZM1440 521.181V521.67C1243.96 379.458 971.078 202.529 706.32 147.874C429.725 90.7993 162 167.207 0 556.013V555.005C162.144 166.717 429.84 90.4248 706.378 147.5C971.136 202.154 1243.96 378.997 1440 521.181ZM1440 495.884V496.345C1240.21 354.681 954.173 180.834 681.667 128.225C406.31 75.0684 144.778 145.742 0 498.535V497.498C144.922 145.252 406.426 74.6939 681.754 127.851C954.23 180.46 1240.19 354.191 1440 495.884ZM1440 470.531V470.992C1236.99 330.163 938.736 159.946 659.059 108.95C550.022 89.0418 443.808 87.2844 347.184 112.494C250.56 137.646 163.526 189.766 92.8224 277.64C57.5424 321.49 26.3232 374.244 0 436.994V435.986C26.2656 373.581 57.3696 321.087 92.5056 277.409C163.267 189.478 250.387 137.301 347.069 112.12C443.75 86.9098 550.022 88.6673 659.117 108.547C938.765 159.543 1236.96 329.702 1440 470.531ZM1440 445.148V445.609C1223.51 298.614 891.965 122.204 593.568 83.1068C491.213 69.6807 392.746 72.4178 304.157 98.0309C215.597 123.644 136.886 172.133 74.0736 250.212C46.0512 285.015 21.1968 325.726 0 372.889V371.91C21.1104 325.063 45.8784 284.612 73.7568 249.981C136.627 171.816 215.395 123.298 304.042 97.6564C392.688 72.0144 491.213 69.2774 593.626 82.7034C891.994 121.829 1223.45 298.125 1440 445.148ZM1440 419.708V420.197C1282.67 315.555 1061.28 197.429 836.093 124.969C667.843 70.8332 497.462 42.1661 350.179 63.688C202.896 85.21 78.6816 156.863 2.6496 303.368C1.7664 305.097 0.8832 306.835 0 308.583V307.69C0.768 306.192 1.536 304.693 2.304 303.195C78.3936 156.575 202.723 84.8354 350.122 63.3135C497.491 41.7915 667.901 70.4586 836.208 124.595C1061.34 197.055 1282.67 315.094 1440 419.708ZM1440 394.296V394.757C1271.84 285.131 1026.86 162.309 782.525 93.1042C616.147 45.9691 450.058 23.6981 308.736 47.3521C178.387 69.191 69.0912 130.127 0 246.668V245.89C69.1776 129.608 178.416 68.7876 308.65 46.9776C450.058 23.2948 616.205 45.5946 782.611 92.7297C1026.92 161.934 1271.81 284.698 1440 394.296ZM1440 368.827V369.288C1260.66 254.677 990.115 127.39 726.394 62.4203C562.752 22.1135 401.731 5.80639 266.774 31.4195C155.981 52.4229 62.7264 101.719 0 189.161V188.469C62.784 101.229 155.981 52.0195 266.717 31.0162C401.731 5.43184 562.781 21.739 726.48 62.0458C990.144 126.986 1260.63 254.216 1440 368.827ZM1440 343.329V343.79C1249.37 224.281 951.552 92.9602 668.707 33.2346C508.493 -0.589693 353.117 -11.4803 224.755 15.7462C133.546 35.1073 55.9584 73.7143 0 136.984V136.407C55.9872 73.2533 133.546 34.704 224.698 15.3717C353.117 -11.8549 508.55 -0.993046 668.794 32.8601C951.581 92.5856 1249.32 223.821 1440 343.329ZM304.214 757C734.918 337.481 955.67 334.686 1115.68 465.575C1186.7 523.658 1245.74 608.046 1305.85 694.019C1320.57 715.022 1335.34 736.17 1350.37 757H1349.88C1334.91 736.227 1320.19 715.166 1305.53 694.22C1245.43 608.306 1186.39 523.918 1115.42 465.863C955.613 335.147 735.062 337.942 304.79 757H304.214Z" fill="#EFF4FF"/>
</svg>
