<svg width="16" height="16" viewBox="0 0 16 16" fill="none" xmlns="http://www.w3.org/2000/svg">
<path d="M10.4297 10.363L10.7333 10.0433L10.0083 9.35463L9.7046 9.6743L10.4297 10.363ZM11.7325 9.9087L13.0061 10.6418L13.505 9.77517L12.2313 9.04203L11.7325 9.9087ZM13.2519 12.1618L12.3049 13.1588L13.0299 13.8475L13.977 12.8504L13.2519 12.1618ZM11.7351 13.4783C10.7784 13.5728 8.2822 13.4922 5.57277 10.6396L4.84771 11.3283C7.8006 14.4372 10.6174 14.5935 11.8333 14.4735L11.7351 13.4783ZM5.57277 10.6396C2.98869 7.91903 2.55523 5.62421 2.50121 4.61766L1.50265 4.67125C1.56881 5.90407 2.09227 8.42737 4.84771 11.3283L5.57277 10.6396ZM6.48967 6.21489L6.68087 6.01359L5.95581 5.3249L5.76461 5.52621L6.48967 6.21489ZM6.83107 3.50725L5.99043 2.31825L5.17391 2.89557L6.01457 4.08455L6.83107 3.50725ZM3.14511 2.06192L2.09871 3.16358L2.82376 3.85227L3.87016 2.75061L3.14511 2.06192ZM6.12713 5.87055C5.76461 5.52621 5.76415 5.52669 5.76368 5.52718C5.76352 5.52735 5.76305 5.52785 5.76274 5.52818C5.76211 5.52886 5.76146 5.52955 5.76081 5.53025C5.75949 5.53167 5.75813 5.53314 5.75673 5.53468C5.75394 5.53775 5.75097 5.54108 5.74785 5.54467C5.74162 5.55184 5.73477 5.56004 5.72744 5.5693C5.71279 5.58782 5.69621 5.61058 5.67881 5.63775C5.64394 5.69226 5.60611 5.76404 5.57408 5.85405C5.50895 6.0371 5.47345 6.2795 5.51781 6.58221C5.60495 7.17697 5.99465 7.97677 7.01287 9.04877L7.73793 8.3601C6.7862 7.35803 6.55174 6.7409 6.50724 6.43724C6.48577 6.29074 6.50759 6.21355 6.51621 6.18931C6.52106 6.17568 6.52423 6.17189 6.52113 6.17675C6.51963 6.17909 6.51663 6.18351 6.51159 6.18988C6.50906 6.19307 6.50603 6.19675 6.5024 6.20092C6.50059 6.203 6.49862 6.20521 6.49651 6.20754C6.49545 6.20871 6.49435 6.2099 6.49321 6.21113C6.49264 6.21174 6.49206 6.21236 6.49147 6.21299C6.49117 6.2133 6.49072 6.21378 6.49057 6.21393C6.49012 6.21441 6.48967 6.21489 6.12713 5.87055ZM7.01287 9.04877C8.02813 10.1176 8.79487 10.5378 9.37987 10.6328C9.68007 10.6816 9.92307 10.6426 10.1071 10.5701C10.197 10.5346 10.2681 10.493 10.3215 10.4551C10.3482 10.4362 10.3704 10.4182 10.3883 10.4026C10.3973 10.3947 10.4051 10.3874 10.412 10.3807C10.4155 10.3774 10.4187 10.3742 10.4216 10.3713C10.4231 10.3698 10.4245 10.3684 10.4258 10.367C10.4265 10.3663 10.4271 10.3656 10.4278 10.365C10.4281 10.3646 10.4286 10.3641 10.4287 10.364C10.4292 10.3634 10.4297 10.363 10.0671 10.0186C9.7046 9.6743 9.70507 9.67383 9.70553 9.67337C9.70567 9.67317 9.70613 9.6727 9.7064 9.67237C9.707 9.67177 9.7076 9.67117 9.7082 9.67057C9.7094 9.66937 9.71053 9.66817 9.7116 9.66703C9.71387 9.66483 9.716 9.6627 9.718 9.66077C9.722 9.6569 9.72567 9.65357 9.72887 9.65077C9.7352 9.64517 9.73993 9.64157 9.743 9.63943C9.74927 9.63497 9.7486 9.6365 9.74013 9.63983C9.72727 9.6449 9.66667 9.6663 9.5402 9.64577C9.2718 9.60217 8.69273 9.3653 7.73793 8.3601L7.01287 9.04877ZM5.99043 2.31825C5.31471 1.36253 3.96256 1.20129 3.14511 2.06192L3.87016 2.75061C4.21872 2.38364 4.83234 2.41247 5.17391 2.89557L5.99043 2.31825ZM2.50121 4.61766C2.48692 4.35146 2.60283 4.08486 2.82376 3.85227L2.09871 3.16358C1.74147 3.53968 1.46995 4.06214 1.50265 4.67125L2.50121 4.61766ZM12.3049 13.1588C12.1189 13.3547 11.9243 13.4596 11.7351 13.4783L11.8333 14.4735C12.3313 14.4243 12.7344 14.1587 13.0299 13.8475L12.3049 13.1588ZM6.68087 6.01359C7.32593 5.33447 7.3716 4.27169 6.83107 3.50725L6.01457 4.08455C6.29599 4.4826 6.25284 5.01219 5.95581 5.3249L6.68087 6.01359ZM13.0061 10.6418C13.5533 10.9568 13.6605 11.7317 13.2519 12.1618L13.977 12.8504C14.8469 11.9345 14.5936 10.4018 13.505 9.77517L13.0061 10.6418ZM10.7333 10.0433C10.9903 9.77277 11.3907 9.71197 11.7325 9.9087L12.2313 9.04203C11.499 8.6205 10.5907 8.74137 10.0083 9.35463L10.7333 10.0433Z" fill="#150936"/>
</svg>
