<svg width="70" height="52" viewBox="0 0 70 52" fill="none" xmlns="http://www.w3.org/2000/svg">
<path fill-rule="evenodd" clip-rule="evenodd" d="M61.2803 47.2619C61.4566 47.2852 61.6329 47.3091 61.809 47.3337L62.6946 47.4573C66.5503 47.9957 70 45.0714 70 41.2646V38.3593C70 35.6367 68.2489 33.2081 65.6256 32.2923C62.5948 31.2344 59.4658 30.5455 56.3072 30.2258C59.603 32.5968 61.6472 36.4362 61.6472 40.6249V44.232C61.6472 45.2795 61.5198 46.2939 61.2803 47.2619ZM47.9214 26.3608C49.2349 26.9004 50.6777 27.1985 52.1917 27.1985C58.2832 27.1985 63.2213 22.3721 63.2213 16.4183C63.2213 10.4646 58.2832 5.63812 52.1917 5.63812C52.0113 5.63812 51.8318 5.64236 51.6535 5.65073C52.7612 7.99816 53.3803 10.6192 53.3803 13.3841C53.3803 18.4633 51.2912 23.0569 47.9214 26.3608Z" fill="#013BB7"/>
<path fill-rule="evenodd" clip-rule="evenodd" d="M8.71969 47.2619C8.54338 47.2851 8.36715 47.3091 8.19098 47.3337L7.3054 47.4573C3.44967 47.9957 0 45.0714 0 41.2646V38.3593C0 35.6367 1.75112 33.2081 4.37441 32.2923C7.40524 31.2344 10.5342 30.5455 13.6928 30.2258C10.397 32.5968 8.35283 36.4362 8.35283 40.6249V44.232C8.35283 45.2795 8.48024 46.2939 8.71969 47.2619ZM22.0786 26.3608C20.7652 26.9003 19.3224 27.1985 17.8083 27.1985C11.7168 27.1985 6.77874 22.3721 6.77874 16.4183C6.77874 10.4646 11.7168 5.63812 17.8083 5.63812C17.9888 5.63812 18.1682 5.64236 18.3465 5.65073C17.2388 7.99816 16.6198 10.6192 16.6198 13.3841C16.6198 18.4633 18.7088 23.0569 22.0786 26.3608Z" fill="#013BB7"/>
<path fill-rule="evenodd" clip-rule="evenodd" d="M48.5235 13.3841C48.5235 5.99228 42.5013 0 35.0725 0C27.6438 0 21.6216 5.99228 21.6216 13.3841C21.6216 20.776 27.6438 26.7683 35.0725 26.7683C42.5013 26.7683 48.5235 20.776 48.5235 13.3841Z" fill="#013BB7"/>
<path fill-rule="evenodd" clip-rule="evenodd" d="M18.6895 33.0925C29.2838 29.3276 40.8613 29.3276 51.4556 33.0925C54.6548 34.2294 56.7904 37.2447 56.7904 40.6249V44.232C56.7904 48.9583 52.5834 52.5889 47.8812 51.9205L46.8012 51.767C39.0216 50.6611 31.1235 50.6611 23.3439 51.767L22.2639 51.9205C17.5617 52.5889 13.3547 48.9583 13.3547 44.232V40.6249C13.3547 37.2447 15.4903 34.2294 18.6895 33.0925Z" fill="#013BB7"/>
</svg>
