<svg width="44" height="52" viewBox="0 0 44 52" fill="none" xmlns="http://www.w3.org/2000/svg">
<path fillRule="evenodd" clipRule="evenodd" d="M35.6257 13.3841C35.6257 5.99228 29.5252 0 22 0C14.4747 0 8.37429 5.99228 8.37429 13.3841C8.37429 20.776 14.4747 26.7683 22 26.7683C29.5252 26.7683 35.6257 20.776 35.6257 13.3841Z" fill="#013BB7"/>
<path fillRule="evenodd" clipRule="evenodd" d="M5.40406 33.0925C16.1361 29.3276 27.8639 29.3276 38.5959 33.0925C41.8367 34.2294 44 37.2447 44 40.6249V44.232C44 48.9583 39.7383 52.5889 34.975 51.9205L33.881 51.767C26.0003 50.6611 17.9997 50.6611 10.119 51.767L9.02495 51.9205C4.26165 52.5889 0 48.9583 0 44.232V40.6249C0 37.2447 2.1633 34.2294 5.40406 33.0925Z" fill="#013BB7"/>
</svg>
