<svg width="16" height="16" viewBox="0 0 16 16" fill="none" xmlns="http://www.w3.org/2000/svg">
<g clip-path="url(#clip0_1280_25)">
<path d="M8.057 -0.00585938C4.7775 -0.00585938 2 2.78764 2 6.09614C2 9.56114 5.2195 13.1046 7.385 15.5951C7.3935 15.6051 7.7435 15.9936 8.1745 15.9936H8.2125C8.644 15.9936 8.9915 15.6051 9 15.5951C11.032 13.2591 14 9.40664 14 6.09614C14 2.78714 11.8335 -0.00585938 8.057 -0.00585938ZM8.2575 14.9241C8.24 14.9416 8.2145 14.9611 8.192 14.9776C8.169 14.9616 8.144 14.9416 8.1255 14.9241L7.864 14.6231C5.811 12.2681 2.9995 9.04264 2.9995 6.09564C2.9995 3.32964 5.3155 0.993141 8.0565 0.993141C11.471 0.993141 12.9995 3.55564 12.9995 6.09564C12.9995 8.33264 11.404 11.3036 8.2575 14.9241ZM8.0175 3.02164C6.361 3.02164 5.0175 4.36464 5.0175 6.02164C5.0175 7.67864 6.361 9.02164 8.0175 9.02164C9.674 9.02164 11.0175 7.67814 11.0175 6.02164C11.0175 4.36514 9.6745 3.02164 8.0175 3.02164ZM8.0175 8.02164C6.9145 8.02164 5.9945 7.10264 5.9945 5.99964C5.9945 4.89664 6.8915 3.99964 7.9945 3.99964C9.098 3.99964 9.9945 4.89664 9.9945 5.99964C9.995 7.10264 9.121 8.02164 8.0175 8.02164Z" fill="#150936"/>
</g>
<defs>
<clipPath id="clip0_1280_25">
<rect width="16" height="16" fill="white"/>
</clipPath>
</defs>
</svg>
