<svg width="16" height="16" viewBox="0 0 16 16" fill="none" xmlns="http://www.w3.org/2000/svg">
<path d="M13.8938 3.46875C10.3034 10.2783 5.6954 10.2719 2.105 3.46875" stroke="#150936" stroke-linecap="round" stroke-linejoin="round"/>
<path d="M1.59375 4.72992V11.1299C1.59375 11.8089 1.86347 12.46 2.34355 12.9401C2.82365 13.4202 3.4748 13.6899 4.15375 13.6899H11.8337C12.5127 13.6899 13.1638 13.4202 13.6439 12.9401C14.124 12.46 14.3937 11.8089 14.3937 11.1299V4.72992C14.3937 4.05097 14.124 3.39978 13.6439 2.91969C13.1638 2.4396 12.5127 2.16992 11.8337 2.16992H4.15375C3.4748 2.16992 2.82365 2.4396 2.34355 2.91969C1.86347 3.39978 1.59375 4.05097 1.59375 4.72992Z" stroke="#150936" stroke-linecap="round" stroke-linejoin="round"/>
</svg>
