<svg width="334" height="56" viewBox="0 0 334 56" fill="none" xmlns="http://www.w3.org/2000/svg">
<g clip-path="url(#clip0_45_162)">
<path d="M29.5939 18.2755V0C13.1057 0.911446 0.000181141 14.7026 0.000181141 31.6065C-0.0237647 38.6633 2.32703 45.5338 6.69363 51.1691C6.9643 51.5229 7.32176 51.8052 7.73339 51.9901C8.14502 52.1751 8.59771 52.2568 9.05015 52.2279C9.50259 52.1989 9.94038 52.0603 10.3236 51.8244C10.7067 51.5886 11.0231 51.2632 11.2438 50.8779C13.4919 46.8856 17.6768 43.694 22.8795 42.0139C21.3416 40.7265 20.1094 39.1298 19.268 37.3339C18.4266 35.538 17.996 33.5859 18.0061 31.6123C18.018 24.7662 23.0651 19.1258 29.5939 18.2755Z" fill="#013BB7"/>
<path d="M62.3068 35.9249C62.502 34.4932 62.602 33.0507 62.6061 31.6065C62.6061 14.7026 49.5126 0.896886 33.0244 0V18.2755C39.5562 19.1258 44.6002 24.7662 44.6002 31.6065C44.6127 34.7642 43.5022 37.8289 41.4571 40.2812L52.8323 51.9291C53.6709 52.7875 54.6777 53.4738 55.7934 53.9475C56.9091 54.4211 58.111 54.6724 59.3282 54.6868C67.4526 54.7886 71.6495 45.2898 65.9888 39.6231L62.3068 35.9249Z" fill="url(#paint0_linear_45_162)"/>
<path d="M31.372 43.6387C30.6015 43.6366 29.8328 43.5645 29.076 43.4232L27.4655 51.9582L31.1625 56L34.9343 51.9582L33.5273 43.4436C32.816 43.5688 32.0949 43.6341 31.372 43.6387Z" fill="#013BB7"/>
<g filter="url(#filter0_d_45_162)">
<path d="M91.4524 25.141C91.4524 17.2322 97.4615 11.8318 105.044 11.8318C109.311 11.8318 112.219 13.4148 114.276 15.6527C114.711 16.1245 114.947 16.745 114.934 17.3853C114.935 17.725 114.868 18.0615 114.737 18.3756C114.607 18.6896 114.415 18.9749 114.173 19.2151C113.932 19.4554 113.645 19.6459 113.329 19.7757C113.014 19.9055 112.675 19.9721 112.334 19.9716C111.96 19.9762 111.588 19.8993 111.247 19.7463C110.905 19.5933 110.601 19.3678 110.356 19.0858C109.692 18.3299 108.872 17.7244 107.953 17.3102C107.034 16.896 106.036 16.6825 105.026 16.6844C100.527 16.6844 97.1145 20.2741 97.1145 25.1338C97.1145 29.9936 100.527 33.5832 105.026 33.5832C106.045 33.591 107.052 33.3775 107.979 32.9578C108.906 32.5381 109.729 31.9223 110.392 31.1534C110.638 30.8869 110.939 30.674 111.272 30.5278C111.606 30.3814 111.966 30.305 112.33 30.3031C112.671 30.3026 113.009 30.3691 113.325 30.4986C113.641 30.6283 113.928 30.8184 114.168 31.0584C114.41 31.2982 114.602 31.5831 114.733 31.8967C114.863 32.2103 114.931 32.5464 114.931 32.886C114.945 33.5168 114.708 34.1276 114.273 34.5865C112.216 36.8243 109.307 38.443 105.041 38.443C97.4615 38.4501 91.4524 33.0496 91.4524 25.141ZM126.437 18.8901C132.024 18.8901 135.823 23.0562 135.823 27.9194C135.823 29.5382 134.775 30.2319 132.875 30.2319H121.898C122.209 32.5871 124.109 34.5545 127.292 34.5545C128.626 34.5267 129.932 34.1684 131.091 33.5121C131.376 33.355 131.698 33.2753 132.024 33.2808C132.536 33.2891 133.024 33.4948 133.386 33.8548C133.748 34.2146 133.955 34.7003 133.963 35.2091C133.95 35.5577 133.847 35.897 133.663 36.1943C133.48 36.4917 133.221 36.7368 132.915 36.9061C131.028 37.9431 128.904 38.4751 126.749 38.4501C121.047 38.4501 116.733 34.6292 116.733 28.6524C116.741 23.2518 120.736 18.8901 126.437 18.8901ZM121.824 26.9162H131.051C130.937 25.1374 129.695 22.7892 126.437 22.7892C123.372 22.7892 122.056 25.0627 121.824 26.9162ZM150.681 21.2239C150.681 22.4193 149.905 23.4226 148.353 23.6538C147.072 23.8068 145.133 24.5041 144.318 25.6994V35.7889C144.331 36.1185 144.276 36.4472 144.158 36.7553C144.04 37.0635 143.861 37.3447 143.631 37.5823C143.401 37.8198 143.125 38.0088 142.82 38.1379C142.515 38.267 142.187 38.3335 141.856 38.3335C141.524 38.3335 141.196 38.267 140.89 38.1379C140.585 38.0088 140.31 37.8198 140.08 37.5823C139.85 37.3447 139.671 37.0635 139.552 36.7553C139.434 36.4472 139.38 36.1185 139.392 35.7889V21.5904C139.39 21.2661 139.452 20.9447 139.575 20.6442C139.697 20.3438 139.878 20.0702 140.107 19.8393C140.336 19.6084 140.608 19.4246 140.908 19.2984C141.208 19.1721 141.532 19.1059 141.858 19.1036C142.183 19.1012 142.507 19.1628 142.809 19.2847C143.11 19.4067 143.385 19.5865 143.618 19.8141C143.85 20.0417 144.035 20.3126 144.162 20.6113C144.288 20.9099 144.355 21.2305 144.358 21.5548L144.318 21.9105C145.133 20.7935 146.26 19.7511 147.383 19.3277C147.77 19.138 148.194 19.0325 148.624 19.0182C149.93 19.0075 150.681 20.0108 150.681 21.2062V21.2239ZM163.672 36.1661C163.675 36.6042 163.532 37.0309 163.265 37.3796C162.999 37.7284 162.623 37.9797 162.199 38.0943C161.375 38.3675 160.51 38.4986 159.641 38.4822C156.19 38.4822 154.326 36.7034 154.326 33.3911V23.636H153.124C152.554 23.636 152.009 23.4111 151.606 23.0108C151.204 22.6105 150.978 22.0675 150.978 21.5014C150.978 20.9353 151.204 20.3924 151.606 19.9921C152.009 19.5917 152.554 19.3668 153.124 19.3668H154.326V16.4744C154.326 15.8196 154.587 15.1917 155.053 14.7286C155.519 14.2656 156.15 14.0054 156.808 14.0054C157.466 14.0054 158.098 14.2656 158.564 14.7286C159.029 15.1917 159.29 15.8196 159.29 16.4744V19.3668H161.23C161.798 19.3668 162.344 19.5917 162.746 19.9921C163.149 20.3924 163.376 20.9353 163.376 21.5014C163.376 22.0675 163.149 22.6105 162.746 23.0108C162.344 23.4111 161.798 23.636 161.23 23.636H159.29V32.0463C159.29 33.2026 159.874 34.0919 160.957 34.0919C161.315 34.0919 161.541 34.0137 161.773 34.0137C162.038 34.0273 162.298 34.0931 162.538 34.2074C162.777 34.3216 162.991 34.482 163.168 34.6793C163.345 34.8765 163.48 35.1066 163.567 35.3564C163.653 35.6061 163.689 35.8705 163.672 36.1341V36.1661ZM165.961 13.3971C165.96 12.8164 166.133 12.2486 166.457 11.7655C166.78 11.2824 167.242 10.9056 167.78 10.6829C168.319 10.4602 168.913 10.4016 169.486 10.5144C170.059 10.6273 170.585 10.9065 170.997 11.3168C171.411 11.7273 171.692 12.2501 171.806 12.8196C171.921 13.389 171.862 13.9794 171.639 14.516C171.416 15.0524 171.038 15.5111 170.552 15.8337C170.067 16.1564 169.496 16.3286 168.913 16.3286C168.128 16.323 167.379 16.0095 166.826 15.4565C166.273 14.9034 165.962 14.1556 165.961 13.3757V13.3971ZM166.465 35.8103V21.5797C166.465 21.2578 166.53 20.9391 166.653 20.6417C166.777 20.3442 166.958 20.074 167.188 19.8464C167.417 19.6188 167.688 19.4383 167.987 19.3151C168.286 19.1919 168.606 19.1285 168.93 19.1285C169.254 19.1285 169.575 19.1919 169.873 19.3151C170.172 19.4383 170.443 19.6188 170.673 19.8464C170.902 20.074 171.084 20.3442 171.207 20.6417C171.331 20.9391 171.395 21.2578 171.395 21.5797V35.8103C171.389 36.4634 171.125 37.0882 170.661 37.55C170.197 38.0119 169.569 38.2737 168.913 38.2793C168.586 38.2766 168.265 38.2098 167.966 38.0829C167.667 37.9561 167.396 37.7717 167.168 37.5402C166.94 37.3088 166.761 37.0349 166.641 36.7344C166.521 36.4338 166.461 36.1125 166.465 35.7889V35.8103ZM182.332 19.3739H184.232C184.801 19.3739 185.347 19.5989 185.75 19.9992C186.151 20.3995 186.378 20.9424 186.378 21.5086C186.378 22.0746 186.151 22.6176 185.75 23.0179C185.347 23.4183 184.801 23.6431 184.232 23.6431H182.332V35.7889C182.332 36.4439 182.071 37.0718 181.606 37.5348C181.14 37.9979 180.508 38.258 179.85 38.258C179.192 38.258 178.561 37.9979 178.095 37.5348C177.629 37.0718 177.368 36.4439 177.368 35.7889V23.636H176.162C175.594 23.636 175.048 23.4111 174.645 23.0108C174.243 22.6105 174.016 22.0675 174.016 21.5014C174.016 20.9353 174.243 20.3924 174.645 19.9921C175.048 19.5917 175.594 19.3668 176.162 19.3668H177.368V18.3671C177.368 14.3149 180.004 11.8851 183.688 11.8851C184.354 11.8819 185.019 11.9595 185.666 12.1163C186.091 12.1978 186.473 12.4233 186.749 12.7541C187.025 13.085 187.177 13.5008 187.179 13.9307C187.189 14.1799 187.147 14.4284 187.055 14.6601C186.962 14.8919 186.822 15.1019 186.643 15.2763C186.464 15.4508 186.251 15.5858 186.015 15.6727C185.781 15.7596 185.53 15.7964 185.28 15.7807C185.083 15.7807 184.814 15.7416 184.657 15.7416C183.263 15.7274 182.332 16.6523 182.332 18.4276V19.3739ZM190.284 41.2322C190.362 41.2322 190.438 41.193 190.516 41.193C191.797 41.1539 192.613 40.8373 193.077 39.8412L193.775 38.2616L187.336 22.4051C187.225 22.1232 187.173 21.8219 187.182 21.5192C187.176 21.2017 187.234 20.8862 187.352 20.5912C187.47 20.2962 187.646 20.0276 187.87 19.8012C188.095 19.5748 188.361 19.3953 188.656 19.273C188.951 19.1508 189.267 19.0883 189.587 19.0894C190.072 19.0744 190.55 19.2111 190.954 19.4804C191.357 19.7497 191.666 20.138 191.836 20.5906L196.335 32.4733L200.796 20.5978C201.016 20.0788 201.409 19.6512 201.909 19.3868C202.409 19.1225 202.986 19.0377 203.54 19.1468C204.096 19.2558 204.597 19.5521 204.958 19.9855C205.32 20.419 205.519 20.9632 205.524 21.5263C205.521 21.8442 205.456 22.1583 205.331 22.4514L197.731 41.0436C196.335 44.5159 193.735 45.5192 190.935 45.5583C190.753 45.5633 190.571 45.5502 190.391 45.5192C190.1 45.5225 189.81 45.4679 189.541 45.3586C189.272 45.2493 189.026 45.0875 188.82 44.8827C188.615 44.6778 188.452 44.4341 188.342 44.1659C188.232 43.8975 188.177 43.6101 188.18 43.3206C188.183 42.7669 188.406 42.2368 188.799 41.8457C189.194 41.4546 189.727 41.234 190.284 41.2322Z" fill="#013BB7"/>
<path d="M229.246 33.9354C229.545 34.3312 229.729 34.8014 229.778 35.2942C229.827 35.7871 229.738 36.2839 229.523 36.7302C229.307 37.1765 228.972 37.5551 228.553 37.8246C228.136 38.094 227.652 38.2439 227.154 38.258C226.708 38.256 226.269 38.1503 225.871 37.9496C225.474 37.7488 225.129 37.4585 224.865 37.1018L219.048 28.7804H214.51V35.54C214.509 36.2594 214.223 36.9499 213.716 37.4623C213.208 37.9747 212.518 38.2681 211.795 38.2793C211.061 38.2785 210.356 37.9909 209.835 37.4784C209.312 36.966 209.012 36.2698 209.002 35.54V15.151C209.002 13.2974 210.049 12.2551 211.909 12.2551H221.109C226.499 12.2551 229.797 15.7665 229.797 20.5515C229.797 24.6785 227.433 27.0692 224.871 27.9977L229.246 33.9354ZM214.51 24.0594H220.29C222.501 24.0594 224.167 22.6719 224.167 20.5017C224.167 18.3316 222.501 16.9441 220.29 16.9441H214.51V24.0594ZM241.39 18.8901C246.976 18.8901 250.775 23.0597 250.775 27.9194C250.775 29.5382 249.727 30.2319 247.828 30.2319H236.847C237.158 32.5871 239.058 34.5545 242.24 34.5545C243.574 34.5267 244.88 34.1684 246.04 33.5121C246.325 33.355 246.647 33.2753 246.973 33.2808C247.484 33.2891 247.973 33.4948 248.335 33.8548C248.697 34.2146 248.904 34.7003 248.912 35.2091C248.899 35.5577 248.795 35.8971 248.611 36.1943C248.427 36.4917 248.17 36.7368 247.864 36.9061C245.977 37.9431 243.852 38.4751 241.697 38.4501C235.996 38.4501 231.682 34.6328 231.682 28.6524C231.693 23.2518 235.688 18.8901 241.39 18.8901ZM236.775 26.9162H246.004C245.89 25.1374 244.648 22.7893 241.39 22.7893C238.324 22.7893 237.008 25.0627 236.775 26.9162ZM263.073 18.8901C265.555 18.8901 267.364 19.6016 268.774 20.6262C269.165 20.8898 269.461 21.2714 269.619 21.7148C269.776 22.1583 269.786 22.6402 269.646 23.0897C269.507 23.5391 269.227 23.9322 268.846 24.2112C268.465 24.4901 268.005 24.6402 267.533 24.6393C267.07 24.6471 266.618 24.4978 266.252 24.2159C265.41 23.5684 264.369 23.2281 263.304 23.2518C260.318 23.2518 258.226 25.4113 258.226 28.6524C258.226 31.8933 260.318 34.092 263.304 34.092C264.358 34.1224 265.388 33.7808 266.213 33.1278C266.582 32.8506 267.031 32.7007 267.493 32.701C267.969 32.6914 268.436 32.8354 268.823 33.1112C269.21 33.3871 269.497 33.7801 269.641 34.2316C269.786 34.683 269.779 35.1687 269.622 35.6161C269.465 36.0635 269.168 36.4487 268.774 36.714C267.379 37.7563 265.555 38.4501 263.073 38.4501C257.292 38.4501 253.143 34.398 253.143 28.6524C253.143 22.9068 257.292 18.8901 263.073 18.8901ZM284.755 21.2062C284.755 22.4015 283.979 23.4048 282.427 23.636C281.146 23.7926 279.207 24.4863 278.395 25.6817V35.7889C278.408 36.1185 278.353 36.4472 278.236 36.7553C278.118 37.0635 277.938 37.3447 277.708 37.5823C277.478 37.8198 277.202 38.0088 276.898 38.1379C276.593 38.267 276.265 38.3335 275.933 38.3335C275.601 38.3335 275.273 38.267 274.968 38.1379C274.663 38.0088 274.387 37.8198 274.157 37.5823C273.928 37.3447 273.748 37.0635 273.63 36.7553C273.512 36.4472 273.458 36.1185 273.47 35.7889V21.5939C273.455 21.2624 273.507 20.9311 273.624 20.6201C273.741 20.309 273.919 20.0246 274.148 19.7838C274.378 19.5429 274.654 19.3506 274.961 19.2183C275.267 19.0859 275.597 19.0165 275.93 19.0138C276.264 19.0112 276.595 19.0755 276.903 19.203C277.211 19.3304 277.49 19.5184 277.724 19.7556C277.958 19.9928 278.141 20.2744 278.262 20.5835C278.383 20.8927 278.441 21.223 278.431 21.5548L278.395 21.9105C279.207 20.7935 280.334 19.7511 281.457 19.3277C281.844 19.1398 282.268 19.0343 282.698 19.0182C284.018 19.0076 284.755 20.0108 284.755 21.2062ZM305 35.7925C305.008 36.4449 304.754 37.0735 304.297 37.5405C303.839 38.0074 303.212 38.2745 302.557 38.2829C302.226 38.2852 301.899 38.2226 301.593 38.0985C301.287 37.9744 301.01 37.7913 300.775 37.5598C300.54 37.3283 300.354 37.053 300.227 36.7497C300.101 36.4464 300.035 36.1211 300.035 35.7925V35.6751C299.198 36.5681 298.183 37.2767 297.055 37.7553C295.926 38.2339 294.709 38.4718 293.483 38.4537C289.372 38.4537 287.431 36.2159 287.431 32.5907V21.5619C287.418 21.2325 287.473 20.9038 287.59 20.5956C287.708 20.2875 287.888 20.0062 288.118 19.7686C288.347 19.531 288.624 19.342 288.928 19.2129C289.233 19.0839 289.561 19.0173 289.893 19.0173C290.224 19.0173 290.553 19.0839 290.857 19.2129C291.163 19.342 291.439 19.531 291.668 19.7686C291.898 20.0062 292.078 20.2875 292.196 20.5956C292.314 20.9038 292.368 21.2325 292.355 21.5619V30.666C292.355 33.2488 293.715 34.0991 295.811 34.0991C296.637 34.0844 297.449 33.8848 298.187 33.5153C298.925 33.1458 299.57 32.6158 300.074 31.9645V21.5548C300.071 20.9056 300.326 20.2813 300.784 19.8186C301.241 19.3559 301.864 19.0924 302.518 19.0858C303.175 19.0914 303.802 19.3533 304.267 19.8151C304.731 20.2769 304.995 20.9017 305 21.5548V35.7925ZM309.385 13.3794C309.384 12.7987 309.556 12.2309 309.88 11.7477C310.204 11.2646 310.665 10.8878 311.204 10.6652C311.743 10.4424 312.337 10.3838 312.909 10.4967C313.482 10.6095 314.008 10.8888 314.421 11.2991C314.834 11.7094 315.116 12.2324 315.229 12.8019C315.344 13.3713 315.286 13.9616 315.062 14.4981C314.84 15.0347 314.461 15.4932 313.976 15.8159C313.491 16.1385 312.919 16.3108 312.336 16.3108C311.555 16.3052 310.808 15.9942 310.255 15.445C309.703 14.8957 309.39 14.1524 309.385 13.3758V13.3794ZM309.889 35.7925V21.5619C309.889 20.9118 310.149 20.2883 310.611 19.8287C311.073 19.369 311.701 19.1107 312.354 19.1107C313.008 19.1107 313.634 19.369 314.096 19.8287C314.558 20.2883 314.818 20.9118 314.818 21.5619V35.7925C314.813 36.4457 314.549 37.0704 314.085 37.5323C313.621 37.994 312.993 38.256 312.336 38.2616C311.682 38.2559 311.057 37.9923 310.598 37.5287C310.14 37.0652 309.884 36.4394 309.889 35.7889V35.7925ZM330.02 36.1483C330.023 36.5869 329.88 37.0141 329.613 37.3635C329.347 37.7129 328.971 37.9648 328.546 38.0801C327.722 38.3501 326.857 38.4801 325.989 38.4643C322.537 38.4643 320.674 36.6855 320.674 33.3734V23.636H319.472C318.902 23.636 318.357 23.4111 317.954 23.0108C317.551 22.6105 317.326 22.0675 317.326 21.5014C317.326 20.9353 317.551 20.3924 317.954 19.9921C318.357 19.5918 318.902 19.3668 319.472 19.3668H320.674V16.4709C320.674 16.1467 320.737 15.8256 320.863 15.5261C320.987 15.2265 321.17 14.9543 321.4 14.7251C321.631 14.4958 321.904 14.3139 322.206 14.1898C322.507 14.0658 322.83 14.0019 323.156 14.0019C323.482 14.0019 323.805 14.0658 324.105 14.1898C324.406 14.3139 324.681 14.4958 324.911 14.7251C325.142 14.9543 325.324 15.2265 325.449 15.5261C325.573 15.8256 325.638 16.1467 325.638 16.4709V19.3668H327.576C328.146 19.3668 328.692 19.5918 329.094 19.9921C329.497 20.3924 329.723 20.9353 329.723 21.5014C329.723 22.0675 329.497 22.6105 329.094 23.0108C328.692 23.4111 328.146 23.636 327.576 23.636H325.638V32.0463C325.638 33.2026 326.222 34.092 327.305 34.092C327.663 34.092 327.888 34.0137 328.12 34.0137C328.386 34.0273 328.645 34.0931 328.885 34.2074C329.124 34.3217 329.339 34.482 329.516 34.6793C329.692 34.8765 329.828 35.1066 329.914 35.3564C330.001 35.6061 330.037 35.8705 330.02 36.1341V36.1483Z" fill="url(#paint1_linear_45_162)"/>
</g>
</g>
<defs>
<filter id="filter0_d_45_162" x="87.4524" y="10.4407" width="246.572" height="43.1186" filterUnits="userSpaceOnUse" color-interpolation-filters="sRGB">
<feFlood flood-opacity="0" result="BackgroundImageFix"/>
<feColorMatrix in="SourceAlpha" type="matrix" values="0 0 0 0 0 0 0 0 0 0 0 0 0 0 0 0 0 0 127 0" result="hardAlpha"/>
<feOffset dy="4"/>
<feGaussianBlur stdDeviation="2"/>
<feComposite in2="hardAlpha" operator="out"/>
<feColorMatrix type="matrix" values="0 0 0 0 0 0 0 0 0 0 0 0 0 0 0 0 0 0 0.25 0"/>
<feBlend mode="normal" in2="BackgroundImageFix" result="effect1_dropShadow_45_162"/>
<feBlend mode="normal" in="SourceGraphic" in2="effect1_dropShadow_45_162" result="shape"/>
</filter>
<linearGradient id="paint0_linear_45_162" x1="11.985" y1="14.9361" x2="27.8691" y2="53.6635" gradientUnits="userSpaceOnUse">
<stop stop-color="#07E2FA"/>
<stop offset="1" stop-color="#3650F1"/>
</linearGradient>
<linearGradient id="paint1_linear_45_162" x1="209.002" y1="24.4471" x2="330.02" y2="24.4471" gradientUnits="userSpaceOnUse">
<stop stop-color="#07E2FA"/>
<stop offset="1" stop-color="#3650F1"/>
</linearGradient>
<clipPath id="clip0_45_162">
<rect width="334" height="56" fill="white"/>
</clipPath>
</defs>
</svg>
