<svg width="21" height="21" viewBox="0 0 21 21" fill="none" xmlns="http://www.w3.org/2000/svg">
<path fill-rule="evenodd" clip-rule="evenodd" d="M3.65012 2.77512C2.625 3.80026 2.625 5.45017 2.625 8.75V12.25C2.625 15.5498 2.625 17.1998 3.65012 18.2248C4.67526 19.25 6.32517 19.25 9.625 19.25H11.375C14.6748 19.25 16.3248 19.25 17.3498 18.2248C18.375 17.1998 18.375 15.5498 18.375 12.25V8.75C18.375 5.45017 18.375 3.80026 17.3498 2.77512C16.3248 1.75 14.6748 1.75 11.375 1.75H9.625C6.32517 1.75 4.67526 1.75 3.65012 2.77512ZM6.34375 7C6.34375 6.63757 6.63757 6.34375 7 6.34375H14C14.3624 6.34375 14.6562 6.63757 14.6562 7C14.6562 7.36243 14.3624 7.65625 14 7.65625H7C6.63757 7.65625 6.34375 7.36243 6.34375 7ZM6.34375 10.5C6.34375 10.1376 6.63757 9.84375 7 9.84375H14C14.3624 9.84375 14.6562 10.1376 14.6562 10.5C14.6562 10.8624 14.3624 11.1562 14 11.1562H7C6.63757 11.1562 6.34375 10.8624 6.34375 10.5ZM7 13.3438C6.63757 13.3438 6.34375 13.6376 6.34375 14C6.34375 14.3624 6.63757 14.6562 7 14.6562H11.375C11.7374 14.6562 12.0312 14.3624 12.0312 14C12.0312 13.6376 11.7374 13.3438 11.375 13.3438H7Z" fill="#49556F"/>
</svg>
