<svg width="23" height="23" viewBox="0 0 23 23" fill="none" xmlns="http://www.w3.org/2000/svg">
<path d="M3.72501 7.8125C2.77626 7.8125 2.28751 7.32375 2.28751 6.375C2.28751 5.42625 2.77626 4.9375 3.72501 4.9375H18.675C18.675 4.9375 19.25 4.9375 19.25 5.5125V7.8125H3.72501Z" fill="#C89005"/>
<path d="M19.25 8.09941H3.725C2.60375 8.09941 2 7.49566 2 6.37441C2 5.25316 2.60375 4.64941 3.725 4.64941H18.675C19.02 4.64941 19.5375 4.87941 19.5375 5.51191V7.81191C19.5375 7.98441 19.3937 8.09941 19.25 8.09941ZM18.675 5.22441H3.725C2.92 5.22441 2.575 5.56941 2.575 6.37441C2.575 7.17941 2.92 7.52441 3.725 7.52441H18.9625V5.51191C18.9625 5.28191 18.79 5.22441 18.675 5.22441Z" fill="#231C1C"/>
<path d="M19.0775 12.2686C19.135 12.5848 18.9337 12.8723 18.6175 12.9586L5.10499 15.7186C4.78874 15.7761 4.50124 15.5748 4.41499 15.2586L2.74749 7.09358C2.68999 6.77733 2.89124 6.48983 3.20749 6.40358L16.72 3.64358C17.0362 3.58608 17.3237 3.78733 17.41 4.10358L19.0775 12.2686Z" fill="#C11F29"/>
<path d="M4.98999 16.0061C4.58749 16.0061 4.24249 15.7186 4.15624 15.3161L2.48874 7.15107C2.43124 6.92107 2.48874 6.69107 2.60374 6.48982C2.71874 6.28857 2.91999 6.17357 3.14999 6.11607L16.6625 3.35607C17.1225 3.26982 17.5825 3.55732 17.6687 4.01732L19.3362 12.1823C19.4225 12.6423 19.135 13.1023 18.675 13.1886L5.16249 15.9486C5.10499 16.0061 5.04749 16.0061 4.98999 16.0061ZM16.835 3.93107H16.7775L3.26499 6.69107C3.12124 6.71982 3.00624 6.86357 3.03499 7.03607L4.70249 15.2011C4.73124 15.3448 4.87499 15.4598 5.04749 15.4311L18.56 12.6711C18.6462 12.6423 18.7037 12.6136 18.7325 12.5561C18.7612 12.4986 18.79 12.4123 18.7612 12.3261L17.0937 4.16107C17.0937 4.01732 16.9787 3.93107 16.835 3.93107Z" fill="#231C1C"/>
<path d="M18.0137 7.0934C18.0425 7.29465 17.8412 7.52465 17.525 7.58215L4.0125 10.3421C3.69625 10.3996 3.40875 10.2846 3.38 10.0834L3.17875 9.13465C3.15 8.9334 3.35125 8.7034 3.6675 8.6459L17.18 5.8859C17.4962 5.8284 17.7837 5.9434 17.8125 6.14465L18.0137 7.0934Z" fill="#513328"/>
<path d="M3.84001 10.6585C3.46626 10.6585 3.15001 10.4572 3.09251 10.141L2.89126 9.22098C2.80501 8.84723 3.12126 8.47348 3.61001 8.38723L17.1225 5.62723C17.5825 5.54098 18.0138 5.74224 18.1 6.11598L18.3013 7.06473C18.3875 7.43848 18.0713 7.81223 17.5825 7.89848L4.07001 10.6585H3.84001ZM17.3525 6.17348H17.2375L3.72501 8.93348C3.55251 8.96223 3.46626 9.04848 3.46626 9.10598L3.66751 10.026C3.69626 10.0547 3.81126 10.0835 3.95501 10.0547L17.4675 7.29474C17.64 7.26599 17.7263 7.17973 17.7263 7.15098L17.525 6.23098C17.525 6.20223 17.4675 6.17348 17.3525 6.17348ZM10.2188 12.0172L12.7534 11.4965L12.8692 12.06L10.3344 12.5804L10.2188 12.0172ZM8.75799 13.4858L14.6724 12.2711L14.788 12.8346L8.87356 14.0493L8.75799 13.4858Z" fill="#231C1C"/>
<path d="M17.5537 16.5805C17.4675 16.8968 17.1512 17.0693 16.835 16.9543L2.805 12.6705C2.5175 12.5843 2.345 12.268 2.43125 11.9518L4.96125 3.70051C5.0475 3.38426 5.36375 3.21176 5.68 3.32676L19.7387 7.61051C20.0262 7.69676 20.1987 8.01301 20.1125 8.32926L17.5537 16.5805Z" fill="#B8CA43"/>
<path d="M17.0075 17.2997C16.9213 17.2997 16.835 17.2997 16.7488 17.271L2.71876 12.9585C2.48876 12.901 2.31626 12.7285 2.20126 12.5272C2.08626 12.326 2.08626 12.096 2.14376 11.866L4.67376 3.61473C4.81751 3.15473 5.27751 2.89598 5.73751 3.03973L19.7963 7.32348C20.2563 7.46723 20.4863 7.95598 20.3713 8.38723L17.8413 16.6385C17.7838 16.8685 17.64 17.041 17.4388 17.156C17.295 17.2422 17.1513 17.2997 17.0075 17.2997ZM5.50751 3.58598C5.39251 3.58598 5.27751 3.67223 5.24876 3.78723L2.71876 12.0385C2.69001 12.1247 2.69001 12.1822 2.74751 12.2685C2.77626 12.326 2.83376 12.3835 2.92001 12.4122L16.95 16.696C17.0075 16.7247 17.0938 16.696 17.1513 16.6672C17.2088 16.6385 17.2663 16.581 17.295 16.4947L19.825 8.24348C19.8825 8.09973 19.7963 7.92723 19.6525 7.89848L5.56501 3.61473C5.53626 3.58598 5.53626 3.58598 5.50751 3.58598Z" fill="#231C1C"/>
<path d="M16.8063 14.2522L18.1575 9.85348C17.5538 9.68098 17.2375 9.01973 17.41 8.41598L7.11751 5.28223C6.94501 5.88598 6.28376 6.23098 5.70876 6.05848L4.35751 10.4572C4.96126 10.6297 5.27751 11.291 5.10501 11.8947L15.3688 15.0285C15.57 14.4247 16.2025 14.0797 16.8063 14.2522Z" fill="#B8CA43"/>
<path d="M15.57 15.3732L4.76001 12.067L4.84626 11.7795C4.90376 11.5495 4.90376 11.3195 4.78876 11.1182C4.67376 10.917 4.50126 10.7732 4.30001 10.7157L4.01251 10.6295L5.53626 5.68445L5.82376 5.7707C6.25501 5.91445 6.74376 5.6557 6.88751 5.1957L6.97376 4.9082L17.7838 8.21445L17.6975 8.50195C17.64 8.73195 17.64 8.96195 17.755 9.1632C17.87 9.36445 18.0425 9.5082 18.2438 9.5657L18.5313 9.65195L17.0075 14.597L16.72 14.5107C16.2888 14.367 15.8 14.6257 15.6563 15.0857L15.57 15.3732ZM5.45001 11.6932L15.225 14.6832C15.4838 14.1657 16.03 13.8782 16.605 13.9357L17.8125 10.0257C17.5825 9.88195 17.3813 9.6807 17.2375 9.4507C17.0938 9.19195 17.065 8.9332 17.0938 8.6457L7.31876 5.6557C7.06001 6.1732 6.48501 6.4607 5.93876 6.4032L4.73126 10.2845C4.96126 10.4282 5.16251 10.6295 5.30626 10.8595C5.42126 11.1182 5.47876 11.4057 5.45001 11.6932Z" fill="#231C1C"/>
<path d="M10.0689 13.9991C11.0022 14.2845 12.0213 14.1526 12.902 13.6326C13.7827 13.1125 14.4528 12.2469 14.765 11.226C15.0771 10.2052 15.0057 9.11281 14.5665 8.18916C14.1272 7.26552 13.3561 6.5863 12.4228 6.30091C11.4894 6.01552 10.4703 6.14735 9.58961 6.6674C8.70892 7.18744 8.0388 8.0531 7.72666 9.07395C7.41451 10.0948 7.48593 11.1872 7.92518 12.1108C8.36443 13.0345 9.13555 13.7137 10.0689 13.9991Z" fill="#E1E0A6"/>
<path d="M11.0563 14.4249C10.7113 14.4249 10.3375 14.3674 9.99251 14.2524C8.98626 13.9362 8.15251 13.2174 7.66376 12.2112C7.20376 11.2049 7.11751 10.0549 7.46251 8.96242C7.80751 7.86992 8.49751 6.94992 9.44626 6.40367C10.395 5.82867 11.4875 5.68492 12.4938 6.00117C14.5925 6.63367 15.7138 9.01992 15.0238 11.2912C14.4775 13.1887 12.81 14.4249 11.0563 14.4249ZM11.43 6.43242C10.855 6.43242 10.28 6.60492 9.73376 6.92117C8.90001 7.40992 8.29626 8.21492 8.00876 9.16367C7.72126 10.1124 7.77876 11.1187 8.18126 11.9812C8.58376 12.8437 9.27376 13.4474 10.1363 13.7062C11.9188 14.2524 13.8738 13.1024 14.4775 11.1187C15.0813 9.13492 14.1038 7.09367 12.3213 6.54742C12.0625 6.48992 11.7463 6.43242 11.43 6.43242Z" fill="#231C1C"/>
<path d="M9.79498 13.9151L12.1456 6.21582L12.6956 6.38372L10.345 14.083L9.79498 13.9151Z" fill="#231C1C"/>
<path d="M10.8262 13.2461C10.6537 13.2461 10.51 13.2173 10.3375 13.1598C9.8775 13.0161 9.50375 12.6998 9.3025 12.2686C9.13 11.8661 9.10125 11.4348 9.21625 11.0323L9.7625 11.2048C9.67625 11.4923 9.705 11.7798 9.82 12.0386C9.96375 12.3261 10.1937 12.5561 10.51 12.6423C11.1137 12.8148 11.7462 12.4698 11.9187 11.8661C12.0912 11.2623 11.775 10.6298 11.1712 10.4286C10.28 10.1411 9.7625 9.19234 10.05 8.27234C10.1937 7.84109 10.4812 7.46734 10.8837 7.26609C11.2862 7.03609 11.7462 7.00734 12.1775 7.12234C12.6087 7.26609 12.9825 7.55359 13.1837 7.95609C13.385 8.35859 13.4425 8.81859 13.2987 9.27859L12.7525 9.10609C12.8387 8.81859 12.81 8.50234 12.6662 8.24359C12.5225 7.98484 12.2925 7.78359 12.005 7.69734C11.7175 7.61109 11.4012 7.63984 11.1425 7.78359C10.8837 7.92734 10.6825 8.15734 10.5962 8.47359C10.4237 9.07734 10.74 9.70984 11.3437 9.91109C12.235 10.1986 12.7525 11.1473 12.465 12.0673C12.235 12.7573 11.545 13.2461 10.8262 13.2461Z" fill="#231C1C"/>
<path d="M20.1125 18.7375C20.1125 19.0538 19.8538 19.3125 19.5375 19.3125H2.86251C2.54626 19.3125 2.28751 19.0538 2.28751 18.7375V6.375C2.28751 7.2375 2.86251 7.8125 3.72501 7.8125H19.5375C19.8538 7.8125 20.1125 8.07125 20.1125 8.3875V18.7375Z" fill="#EEBE00"/>
<path d="M19.5375 19.5994H2.8625C2.37375 19.5994 2 19.2257 2 18.7369V6.37441C2 6.20191 2.115 6.08691 2.2875 6.08691C2.46 6.08691 2.575 6.20191 2.575 6.37441C2.575 7.06441 3.035 7.52441 3.725 7.52441H19.5375C20.0263 7.52441 20.4 7.89816 20.4 8.38691V18.7369C20.4 19.2257 19.9975 19.5994 19.5375 19.5994ZM2.575 7.69691V18.7369C2.575 18.9094 2.69 19.0244 2.8625 19.0244H19.5375C19.71 19.0244 19.825 18.9094 19.825 18.7369V8.38691C19.825 8.21441 19.71 8.09941 19.5375 8.09941H3.725C3.265 8.09941 2.8625 7.95566 2.575 7.69691Z" fill="#231C1C"/>
<path d="M20.1125 15H16.7488C16.0588 15 15.5125 14.4825 15.5125 13.85V13.275C15.5125 12.6425 16.0588 12.125 16.7488 12.125H20.1413V15H20.1125Z" fill="#C89005"/>
<path d="M20.1125 15.2869H16.7488C15.915 15.2869 15.225 14.6544 15.225 13.8494V13.2744C15.225 12.4694 15.915 11.8369 16.7488 11.8369H20.1413C20.3138 11.8369 20.4288 11.9519 20.4288 12.1244V14.9994C20.4 15.1719 20.285 15.2869 20.1125 15.2869ZM16.7488 12.4119C16.2313 12.4119 15.8 12.7857 15.8 13.2744V13.8494C15.8 14.3382 16.2313 14.7119 16.7488 14.7119H19.8538V12.4119H16.7488Z" fill="#231C1C"/>
<path d="M3.7825 8.96191H5.1625V9.53691H3.7825V8.96191Z" fill="#231C1C"/>
<path d="M6.08252 8.96191H7.46252V9.53691H6.08252V8.96191Z" fill="#231C1C"/>
<path d="M8.38251 8.96191H9.76251V9.53691H8.38251V8.96191Z" fill="#231C1C"/>
<path d="M10.6825 8.96191H12.0625V9.53691H10.6825V8.96191Z" fill="#231C1C"/>
<path d="M12.9825 8.96191H14.3625V9.53691H12.9825V8.96191Z" fill="#231C1C"/>
<path d="M15.2825 8.96191H16.6625V9.53691H15.2825V8.96191Z" fill="#231C1C"/>
<path d="M17.5825 8.96191H18.9625V9.53691H17.5825V8.96191Z" fill="#231C1C"/>
<path d="M3.7825 17.5869H5.1625V18.1619H3.7825V17.5869Z" fill="#231C1C"/>
<path d="M6.08252 17.5869H7.46252V18.1619H6.08252V17.5869Z" fill="#231C1C"/>
<path d="M8.38251 17.5869H9.76251V18.1619H8.38251V17.5869Z" fill="#231C1C"/>
<path d="M10.6825 17.5869H12.0625V18.1619H10.6825V17.5869Z" fill="#231C1C"/>
<path d="M12.9825 17.5869H14.3625V18.1619H12.9825V17.5869Z" fill="#231C1C"/>
<path d="M15.2825 17.5869H16.6625V18.1619H15.2825V17.5869Z" fill="#231C1C"/>
<path d="M17.5825 17.5869H18.9625V18.1619H17.5825V17.5869Z" fill="#231C1C"/>
<path d="M16.375 13.5623C16.375 13.7148 16.4356 13.8611 16.5434 13.9689C16.6512 14.0767 16.7975 14.1373 16.95 14.1373C17.1025 14.1373 17.2488 14.0767 17.3566 13.9689C17.4644 13.8611 17.525 13.7148 17.525 13.5623C17.525 13.4098 17.4644 13.2636 17.3566 13.1557C17.2488 13.0479 17.1025 12.9873 16.95 12.9873C16.7975 12.9873 16.6512 13.0479 16.5434 13.1557C16.4356 13.2636 16.375 13.4098 16.375 13.5623Z" fill="#231C1C"/>
</svg>
