<svg width="40" height="40" viewBox="0 0 40 40" fill="none" xmlns="http://www.w3.org/2000/svg">
<rect width="40" height="40" rx="6" fill="#A0B5E2"/>
<path d="M18.3552 17.2006V11C12.5858 11.3092 8.00006 15.9884 8.00006 21.7236C7.99168 24.1179 8.81425 26.449 10.3422 28.361C10.4369 28.481 10.5619 28.5768 10.706 28.6395C10.85 28.7023 11.0084 28.73 11.1667 28.7202C11.325 28.7104 11.4782 28.6633 11.6123 28.5833C11.7464 28.5033 11.8571 28.3929 11.9343 28.2622C12.7209 26.9076 14.1853 25.8248 16.0057 25.2547C15.4676 24.8179 15.0365 24.2762 14.7421 23.6669C14.4476 23.0575 14.297 22.3952 14.3005 21.7256C14.3047 19.4028 16.0707 17.4891 18.3552 17.2006Z" fill="white"/>
<path d="M29.8018 23.1888C29.8701 22.7031 29.9051 22.2136 29.9066 21.7236C29.9066 15.9884 25.325 11.3043 19.5557 11V17.2006C21.8412 17.4891 23.6061 19.4028 23.6061 21.7236C23.6105 22.795 23.2219 23.8348 22.5063 24.6668L26.4866 28.6188C26.78 28.9101 27.1323 29.1429 27.5227 29.3036C27.9131 29.4643 28.3337 29.5496 28.7596 29.5545C31.6024 29.589 33.0709 26.3662 31.0902 24.4436L29.8018 23.1888Z" fill="white"/>
<path d="M18.9773 25.8061C18.7076 25.8054 18.4387 25.781 18.1739 25.733L17.6104 28.6288L18.904 30.0001L20.2237 28.6288L19.7314 25.7399C19.4825 25.7824 19.2302 25.8046 18.9773 25.8061Z" fill="white"/>
</svg>
