<svg width="16" height="16" viewBox="0 0 16 16" fill="none" xmlns="http://www.w3.org/2000/svg">
<path d="M13.0389 15.4127C13.1052 15.9336 12.8068 16.142 12.3759 15.8989L8.76247 14.0233C8.33151 13.7802 7.60219 13.7802 7.17123 13.9886L3.55781 15.8642C3.12685 16.1073 2.8285 15.8642 2.8948 15.3779L3.49151 11.1753C3.59096 10.689 3.3589 9.95962 3.0274 9.61229L0.209589 6.55581C-0.155068 6.20848 -0.0224667 5.82642 0.441643 5.75696L4.45288 5.0623C4.91699 4.99284 5.5137 4.54131 5.74575 4.08978L7.63535 0.338644C7.83425 -0.112881 8.1989 -0.112881 8.43096 0.338644L10.2874 4.12451C10.5195 4.57604 11.083 4.99283 11.5803 5.09703L15.5584 5.82642C16.0225 5.89589 16.1551 6.27795 15.7904 6.62527L12.9726 9.64702C12.6079 9.99435 12.409 10.7237 12.4753 11.21L13.0389 15.4127Z" fill="url(#paint0_radial_2809_592)"/>
<defs>
<radialGradient id="paint0_radial_2809_592" cx="0" cy="0" r="1" gradientUnits="userSpaceOnUse" gradientTransform="translate(2.7181 16.2007) scale(16.7341 17.5327)">
<stop offset="0.355" stop-color="#FFC200"/>
<stop offset="1" stop-color="#FF953A"/>
</radialGradient>
</defs>
</svg>
