<svg width="16" height="16" viewBox="0 0 16 16" fill="none" xmlns="http://www.w3.org/2000/svg">
<path d="M13.0554 15.4127C13.1217 15.9336 12.8233 16.142 12.3924 15.8989L8.77902 14.0233C8.31492 13.7802 7.61877 13.7802 7.18782 13.9886L3.54133 15.8642C3.11038 16.1073 2.81203 15.8642 2.87833 15.3779L3.50818 11.1753C3.57448 10.689 3.37558 9.95962 3.01093 9.61229L0.193177 6.55581C-0.138323 6.20848 -0.0388667 5.82642 0.458383 5.75696L4.43638 5.0623C4.93363 4.99284 5.49718 4.54131 5.72923 4.08978L7.61877 0.338644C7.85082 -0.112881 8.21547 -0.112881 8.44752 0.338644L10.3039 4.12451C10.5028 4.57604 11.0995 4.99283 11.5636 5.09703L15.5416 5.82642C16.0389 5.89589 16.1383 6.27795 15.8068 6.62527L12.9559 9.64702C12.6244 9.99435 12.3924 10.7237 12.4587 11.21L13.0554 15.4127Z" fill="url(#paint0_radial_2809_596)"/>
<path d="M15.8056 6.58953C16.1392 6.24087 16.0391 5.85736 15.5388 5.78762L11.5359 5.05545C11.0689 4.95086 10.4684 4.53247 10.2683 4.07923L8.40028 0.278923C8.26685 0.0697315 8.13343 0 8 0V13.8415C8.26686 13.8415 8.53371 13.9112 8.73386 14.0158L12.3698 15.8985C12.8035 16.1426 13.1037 15.9334 13.037 15.4104L12.4365 11.1917C12.3698 10.7036 12.6033 9.97145 12.9369 9.6228L15.8056 6.58953Z" fill="url(#paint1_radial_2809_596)"/>
<defs>
<radialGradient id="paint0_radial_2809_596" cx="0" cy="0" r="1" gradientUnits="userSpaceOnUse" gradientTransform="translate(2.71656 16.2007) scale(16.7338 17.5327)">
<stop offset="0.355" stop-color="#FFC200"/>
<stop offset="1" stop-color="#FF953A"/>
</radialGradient>
<radialGradient id="paint1_radial_2809_596" cx="0" cy="0" r="1" gradientUnits="userSpaceOnUse" gradientTransform="translate(2.63348 16.2019) scale(16.8384 17.5996)">
<stop offset="0.355" stop-color="#DBDBDB"/>
<stop offset="0.995" stop-color="#B3B3B3"/>
</radialGradient>
</defs>
</svg>
