<svg width="26" height="26" viewBox="0 0 26 26" fill="none" xmlns="http://www.w3.org/2000/svg">
<path d="M13 26C20.1797 26 26 20.1797 26 13C26 5.8203 20.1797 0 13 0C5.8203 0 0 5.8203 0 13C0 20.1797 5.8203 26 13 26Z" fill="#49556F"/>
<path d="M13 6.60514C15.0826 6.60514 15.3294 6.61307 16.1518 6.65057C16.9123 6.68528 17.3253 6.81236 17.6002 6.91915C17.9643 7.06066 18.2241 7.22966 18.497 7.50259C18.77 7.77559 18.939 8.0354 19.0805 8.39946C19.1873 8.67435 19.3144 9.08736 19.3491 9.84779C19.3866 10.6703 19.3945 10.917 19.3945 12.9996C19.3945 15.0824 19.3866 15.329 19.3491 16.1516C19.3144 16.9121 19.1873 17.325 19.0805 17.5999C18.939 17.964 18.77 18.2238 18.4971 18.4968C18.2241 18.7697 17.9643 18.9387 17.6002 19.0802C17.3253 19.1871 16.9123 19.3141 16.1518 19.3488C15.3295 19.3863 15.0828 19.3943 13 19.3943C10.9171 19.3943 10.6705 19.3863 9.8481 19.3488C9.0876 19.3141 8.67459 19.1871 8.39971 19.0802C8.03564 18.9387 7.77584 18.7697 7.5029 18.4968C7.22997 18.2238 7.0609 17.964 6.9194 17.5999C6.8126 17.325 6.68553 16.9121 6.65082 16.1516C6.61331 15.329 6.60538 15.0824 6.60538 12.9996C6.60538 10.917 6.61331 10.6703 6.65082 9.84779C6.68553 9.08736 6.8126 8.67435 6.9194 8.39946C7.0609 8.0354 7.2299 7.77559 7.5029 7.50266C7.77584 7.22966 8.03564 7.06066 8.39971 6.91915C8.67459 6.81236 9.0876 6.68528 9.8481 6.65057C10.6705 6.61307 10.9173 6.60514 13 6.60514ZM13 5.19971C10.8816 5.19971 10.6159 5.20868 9.78401 5.24664C8.95383 5.28453 8.38677 5.41635 7.89063 5.60921C7.37771 5.8085 6.94273 6.07519 6.50912 6.50887C6.07544 6.94249 5.80874 7.37747 5.60945 7.89038C5.4166 8.38653 5.28478 8.95352 5.24688 9.78377C5.20892 10.6157 5.19995 10.8814 5.19995 12.9996C5.19995 15.1181 5.20892 15.3836 5.24688 16.2156C5.28478 17.0458 5.4166 17.6128 5.60945 18.109C5.80874 18.6219 6.07544 19.0569 6.50912 19.4905C6.94273 19.9242 7.37771 20.1909 7.89063 20.3901C8.38677 20.583 8.95383 20.7148 9.78401 20.7527C10.6159 20.7907 10.8816 20.7996 13 20.7996C15.1183 20.7996 15.384 20.7907 16.2159 20.7527C17.0461 20.7148 17.6131 20.583 18.1093 20.3901C18.6222 20.1909 19.0572 19.9242 19.4908 19.4905C19.9244 19.0569 20.1912 18.6219 20.3905 18.109C20.5833 17.6128 20.7151 17.0458 20.753 16.2156C20.791 15.3836 20.8 15.1181 20.8 12.9996C20.8 10.8814 20.791 10.6157 20.753 9.78377C20.7151 8.95352 20.5833 8.38653 20.3905 7.89038C20.1912 7.37747 19.9244 6.94249 19.4908 6.50887C19.0572 6.07519 18.6222 5.8085 18.1093 5.60921C17.6131 5.41635 17.0461 5.28453 16.2159 5.24664C15.384 5.20868 15.1183 5.19971 13 5.19971Z" fill="white"/>
<path d="M13.0038 8.99805C10.7916 8.99805 8.99841 10.7913 8.99841 13.0034C8.99841 15.2156 10.7916 17.0088 13.0038 17.0088C15.2159 17.0088 17.0092 15.2156 17.0092 13.0034C17.0092 10.7913 15.2159 8.99805 13.0038 8.99805ZM13.0038 15.6034C11.5679 15.6034 10.4038 14.4393 10.4038 13.0034C10.4038 11.5675 11.5679 10.4034 13.0038 10.4034C14.4398 10.4034 15.6038 11.5675 15.6038 13.0034C15.6038 14.4393 14.4398 15.6034 13.0038 15.6034Z" fill="white"/>
<path d="M18.103 8.83743C18.103 9.35431 17.6839 9.77343 17.167 9.77343C16.65 9.77343 16.231 9.35431 16.231 8.83743C16.231 8.32049 16.65 7.90137 17.167 7.90137C17.6839 7.90137 18.103 8.32049 18.103 8.83743Z" fill="white"/>
</svg>
