<svg width="26" height="26" viewBox="0 0 26 26" fill="none" xmlns="http://www.w3.org/2000/svg">
<path d="M13 0C5.81953 0 0 5.81953 0 13C0 20.1805 5.81953 26 13 26C20.1805 26 26 20.1805 26 13C26 5.81953 20.1805 0 13 0ZM9.36406 18.4387H6.83008V10.3289H9.36406V18.4387ZM8.02852 9.31328H8.0082C7.08906 9.31328 6.49492 8.69375 6.49492 7.90664C6.49492 7.1043 7.10937 6.5 8.04375 6.5C8.97812 6.5 9.55195 7.1043 9.57227 7.90664C9.57734 8.68867 8.9832 9.31328 8.02852 9.31328ZM19.5 18.4387H16.6258V14.2441C16.6258 13.1473 16.1789 12.3957 15.1887 12.3957C14.432 12.3957 14.0105 12.9035 13.8176 13.391C13.7465 13.5637 13.7566 13.8074 13.7566 14.0562V18.4387H10.9078C10.9078 18.4387 10.9434 11.0043 10.9078 10.3289H13.7566V11.6035C13.9242 11.0449 14.8332 10.2527 16.2855 10.2527C18.0883 10.2527 19.5 11.4207 19.5 13.9293V18.4387Z" fill="#49556F"/>
</svg>
