<svg width="32" height="32" viewBox="0 0 32 32" fill="none" xmlns="http://www.w3.org/2000/svg">
<circle cx="16" cy="16" r="16" fill="#013BB7"/>
<path fillRule="evenodd" clipRule="evenodd" d="M11.3674 10.2402H20.6326C20.9694 10.2402 21.2601 10.2402 21.5007 10.2556C21.754 10.2718 22.0074 10.3075 22.2577 10.4047C22.8222 10.6239 23.2708 11.0444 23.5046 11.5736C23.6083 11.8083 23.6463 12.0458 23.6636 12.2833C23.68 12.5089 23.68 12.7814 23.68 13.0972V18.9033C23.68 19.2191 23.68 19.4916 23.6636 19.7172C23.6463 19.9546 23.6083 20.1921 23.5046 20.4269C23.2708 20.9561 22.8222 21.3766 22.2577 21.5958C22.0074 21.693 21.754 21.7286 21.5007 21.7449C21.2601 21.7602 20.9694 21.7602 20.6326 21.7602H11.3674C11.0306 21.7602 10.7399 21.7602 10.4993 21.7449C10.246 21.7286 9.99262 21.693 9.74231 21.5958C9.17776 21.3766 8.72923 20.9561 8.49539 20.4269C8.39171 20.1921 8.35369 19.9546 8.3364 19.7172C8.31999 19.4916 8.32 19.2191 8.32001 18.9033V13.0972C8.32 12.7814 8.31999 12.5089 8.3364 12.2833C8.35369 12.0458 8.39171 11.8083 8.49539 11.5736C8.72923 11.0444 9.17776 10.6239 9.74231 10.4047C9.99262 10.3075 10.246 10.2718 10.4993 10.2556C10.7399 10.2402 11.0306 10.2402 11.3674 10.2402ZM10.0998 11.8802C10.3791 11.581 10.8643 11.5506 11.1835 11.8125L15.4943 15.3486C15.7838 15.5862 16.2162 15.5862 16.5057 15.3486L20.8165 11.8125C21.1357 11.5506 21.6209 11.581 21.9002 11.8802C22.1795 12.1795 22.1472 12.6344 21.828 12.8962L17.5172 16.4324C16.6485 17.145 15.3515 17.145 14.4828 16.4324L10.1721 12.8962C9.85285 12.6344 9.8205 12.1795 10.0998 11.8802Z" fill="white"/>
</svg>
