<svg width="32" height="32" viewBox="0 0 32 32" fill="none" xmlns="http://www.w3.org/2000/svg">
<circle cx="16" cy="16" r="16" fill="#013BB7"/>
<path d="M18.5288 17.8118L18.2049 18.1528C18.2049 18.1528 17.4351 18.9633 15.3337 16.751C13.2324 14.5387 14.0023 13.7281 14.0023 13.7281L14.2062 13.5134C14.7087 12.9844 14.756 12.1352 14.3177 11.5152L13.421 10.2469C12.8784 9.47956 11.83 9.3782 11.2081 10.0329L10.092 11.208C9.78362 11.5327 9.57699 11.9535 9.60204 12.4203C9.66615 13.6146 10.1765 16.1843 13.0242 19.1825C16.0441 22.3618 18.8777 22.4882 20.0365 22.3739C20.403 22.3377 20.7217 22.14 20.9785 21.8696L21.9887 20.8061C22.6706 20.0882 22.4783 18.8575 21.6059 18.3553L20.2473 17.5733C19.6744 17.2435 18.9765 17.3404 18.5288 17.8118Z" fill="white"/>
</svg>
