<svg width="13" height="13" viewBox="0 0 13 13" fill="none" xmlns="http://www.w3.org/2000/svg">
<path fillRule="evenodd" clipRule="evenodd" d="M7.18412 0.600402C7.94566 -0.199707 9.18083 -0.200196 9.94295 0.599308L11.0854 1.79783C11.841 2.59052 11.8489 3.87378 11.103 4.67658L10.3495 5.4876L6.43806 1.38425L7.18412 0.600402ZM5.40389 2.4708L9.32786 6.58726L4.88758 11.3665C4.33683 11.9593 3.58147 12.2936 2.79272 12.2935L1.46354 12.2935C0.63138 12.2934 -0.0331884 11.5657 0.00180992 10.6928L0.0604556 9.23018C0.0912879 8.4612 0.395943 7.73238 0.91414 7.18794L5.40389 2.4708ZM12.2696 12.9998C12.6736 12.9998 13.0012 12.6559 13.0012 12.2318C13.0012 11.8076 12.6736 11.4637 12.2696 11.4637H7.78417C7.38015 11.4637 7.05263 11.8076 7.05263 12.2318C7.05263 12.6559 7.38015 12.9998 7.78417 12.9998H12.2696Z" fill="#2B3F6C"/>
</svg>