<svg width="19" height="15" viewBox="0 0 19 15" fill="none" xmlns="http://www.w3.org/2000/svg">
<path fill-rule="evenodd" clip-rule="evenodd" d="M7.79492 2.66135C7.79492 2.2605 8.1221 1.93555 8.52569 1.93555L18.2693 1.93555C18.6729 1.93555 19.0001 2.2605 19.0001 2.66135C19.0001 3.06221 18.6729 3.38716 18.2693 3.38716L8.52569 3.38716C8.1221 3.38716 7.79492 3.06221 7.79492 2.66135Z" fill="#2B3F6C"/>
<path fill-rule="evenodd" clip-rule="evenodd" d="M2.67952 1.45161C3.35218 1.45161 3.89747 1.9932 3.89747 2.66129C3.89747 3.32938 3.35218 3.87097 2.67952 3.87097C2.00687 3.87097 1.46157 3.32938 1.46157 2.66129C1.46157 1.9932 2.00687 1.45161 2.67952 1.45161ZM5.35901 2.66129C5.35901 1.1915 4.15936 0 2.67952 0C1.19968 0 3.43323e-05 1.1915 3.43323e-05 2.66129C3.43323e-05 4.13108 1.19968 5.32258 2.67952 5.32258C4.15936 5.32258 5.35901 4.13108 5.35901 2.66129Z" fill="#2B3F6C"/>
<path fill-rule="evenodd" clip-rule="evenodd" d="M11.2051 12.3386C11.2051 11.9377 10.8779 11.6128 10.4743 11.6128L0.730719 11.6128C0.327127 11.6128 -5.05161e-05 11.9377 -5.04809e-05 12.3386C-5.04456e-05 12.7395 0.327127 13.0644 0.730719 13.0644L10.4743 13.0644C10.8779 13.0644 11.2051 12.7395 11.2051 12.3386Z" fill="#2B3F6C"/>
<path fill-rule="evenodd" clip-rule="evenodd" d="M16.3205 11.1289C15.6478 11.1289 15.1025 11.6705 15.1025 12.3385C15.1025 13.0066 15.6478 13.5482 16.3205 13.5482C16.9931 13.5482 17.5384 13.0066 17.5384 12.3385C17.5384 11.6705 16.9931 11.1289 16.3205 11.1289ZM13.641 12.3385C13.641 10.8687 14.8406 9.67725 16.3205 9.67725C17.8003 9.67725 19 10.8687 19 12.3385C19 13.8083 17.8003 14.9998 16.3205 14.9998C14.8406 14.9998 13.641 13.8083 13.641 12.3385Z" fill="#2B3F6C"/>
</svg>
