<svg width="30" height="30" viewBox="0 0 30 30" fill="none" xmlns="http://www.w3.org/2000/svg">
<path d="M15 30C23.2843 30 30 23.2843 30 15C30 6.71573 23.2843 0 15 0C6.71573 0 0 6.71573 0 15C0 23.2843 6.71573 30 15 30Z" fill="white"/>
<path fillRule="evenodd" clipRule="evenodd" d="M11 7.75523C11 8.71213 10.2058 9.48649 8.96384 9.48649C7.7702 9.48649 6.97593 8.71213 7.00056 7.75523C6.97593 6.75185 7.77012 6 8.98763 6C10.2058 6 10.9762 6.75185 11 7.75523ZM7.10042 22V10.8542H10.8763V21.9992L7.10042 22Z" fill="black"/>
<path fillRule="evenodd" clipRule="evenodd" d="M14.0859 14.0074C14.0859 12.5435 14.0429 11.2955 14 10.2634H16.8207L16.9707 11.8713H17.0348C17.4622 11.1271 18.5303 10 20.2611 10C22.3974 10 24 11.5841 24 15.0387V22H20.7525V15.4958C20.7525 13.983 20.2829 12.9515 19.1077 12.9515C18.21 12.9515 17.6762 13.6475 17.4628 14.319C17.3769 14.5595 17.3347 14.8948 17.3347 15.2316V22H14.0872V14.0074H14.0859Z" fill="black"/>
</svg>
