<svg width="191" height="190" viewBox="0 0 191 190" fill="none" xmlns="http://www.w3.org/2000/svg">
<g opacity="0.1" clip-path="url(#clip0_1113_1243)">
<path d="M99.6995 62.006V0C44.1522 3.0924 0.00061025 49.8837 0.00061025 107.236C-0.0800614 131.179 7.83957 154.49 22.5503 173.609C23.4622 174.81 24.6664 175.768 26.0532 176.395C27.4399 177.023 28.965 177.3 30.4892 177.202C32.0135 177.103 33.4884 176.633 34.7794 175.833C36.07 175.033 37.136 173.929 37.8794 172.621C45.4532 159.076 59.5516 148.248 77.0793 142.547C71.8982 138.179 67.747 132.762 64.9125 126.668C62.0777 120.575 60.6273 113.952 60.6611 107.256C60.7013 84.0283 77.7045 64.8911 99.6995 62.006Z" fill="#013BB7"/>
<path d="M209.907 121.888C210.565 117.031 210.902 112.136 210.915 107.236C210.915 49.8837 166.804 3.043 111.257 0V62.006C133.262 64.8911 150.255 84.0283 150.255 107.236C150.297 117.95 146.556 128.348 139.666 136.668L177.988 176.188C180.813 179.1 184.205 181.429 187.964 183.036C191.723 184.643 195.772 185.496 199.872 185.544C227.243 185.89 241.382 153.662 222.311 134.436L209.907 121.888Z" fill="url(#paint0_linear_1113_1243)"/>
<path d="M105.69 148.06C103.094 148.053 100.504 147.808 97.9547 147.329L92.5292 176.287L104.984 190L117.691 176.287L112.951 147.398C110.555 147.823 108.125 148.044 105.69 148.06Z" fill="#013BB7"/>
</g>
<defs>
<linearGradient id="paint0_linear_1113_1243" x1="40.3767" y1="50.6759" x2="94.5406" y2="181.803" gradientUnits="userSpaceOnUse">
<stop stop-color="#07E2FA"/>
<stop offset="1" stop-color="#3650F1"/>
</linearGradient>
<clipPath id="clip0_1113_1243">
<rect width="191" height="190" fill="white"/>
</clipPath>
</defs>
</svg>
