<svg width="61" height="93" viewBox="0 0 61 93" fill="none" xmlns="http://www.w3.org/2000/svg">
<mask id="mask0_160_1205" style="mask-type:alpha" maskUnits="userSpaceOnUse" x="0" y="0" width="61" height="93">
<rect width="61" height="93" fill="#D9D9D9"/>
</mask>
<g mask="url(#mask0_160_1205)">
<path fillRule="evenodd" clipRule="evenodd" d="M49.0286 0.0274223C48.7525 0.00920436 48.4749 0 48.1962 0H21.1714C9.47877 0 0 9.19899 0 20.5465V72.4535C0 83.801 9.47877 93 21.1714 93H56.8286C68.5212 93 78 83.801 78 72.4535V32.4419H61.2857C54.5163 32.4419 49.0286 27.1161 49.0286 20.5465V0.0274223ZM17.8286 46.5C17.8286 44.7083 19.3252 43.2558 21.1714 43.2558H56.8286C58.6748 43.2558 60.1714 44.7083 60.1714 46.5C60.1714 48.2917 58.6748 49.7442 56.8286 49.7442H21.1714C19.3252 49.7442 17.8286 48.2917 17.8286 46.5ZM21.1714 64.8837C19.3252 64.8837 17.8286 66.3362 17.8286 68.1279C17.8286 69.9196 19.3252 71.3721 21.1714 71.3721H39C40.8462 71.3721 42.3429 69.9196 42.3429 68.1279C42.3429 66.3362 40.8462 64.8837 39 64.8837H21.1714Z" fill="#EFF4FF"/>
<path d="M76.0903 25.9535C75.809 25.5235 75.4982 25.1096 75.159 24.7146L57.6124 4.28013C57.0423 3.61622 56.405 3.02086 55.7143 2.50028V20.5465C55.7143 23.5327 58.2087 25.9535 61.2857 25.9535H76.0903Z" fill="#EFF4FF"/>
</g>
</svg>
