<svg width="30" height="30" viewBox="0 0 30 30" fill="none" xmlns="http://www.w3.org/2000/svg">
<g clip-path="url(#clip0_458_199)">
<path fillRule="evenodd" clipRule="evenodd" d="M15 0C23.2843 0 30 6.71572 30 15C30 23.2843 23.2843 30 15 30C6.71572 30 0 23.2843 0 15C0 6.71572 6.71572 0 15 0Z" fill="white"/>
<path d="M18.6704 9.23145H20.6275L16.3517 14.1186L21.382 20.7687H17.4432L14.3584 16.7353L10.8286 20.7687H8.87023L13.4436 15.5414L8.61816 9.23145H12.6567L15.4452 12.918L18.6704 9.23145ZM17.9834 19.5971H19.068L12.0675 10.3414H10.9038L17.9834 19.5971Z" fill="black"/>
</g>
<defs>
<clipPath id="clip0_458_199">
<rect width="30" height="30" fill="white"/>
</clipPath>
</defs>
</svg>
