<svg width="24" height="25" viewBox="0 0 24 25" fill="none" xmlns="http://www.w3.org/2000/svg">
<path d="M6.7072 5.79289C6.31668 5.40237 5.68351 5.40237 5.29299 5.79289C4.90246 6.18342 4.90246 6.81658 5.29299 7.20711L10.5858 12.5L5.29289 17.7929C4.90237 18.1834 4.90237 18.8166 5.29289 19.2071C5.68342 19.5976 6.31658 19.5976 6.70711 19.2071L12 13.9142L17.293 19.2071C17.6835 19.5976 18.3167 19.5976 18.7072 19.2071C19.0977 18.8166 19.0977 18.1834 18.7072 17.7929L13.4143 12.5L18.7071 7.20711C19.0976 6.81658 19.0976 6.18342 18.7071 5.79289C18.3166 5.40237 17.6834 5.40237 17.2929 5.79289L12 11.0857L6.7072 5.79289Z" fill="#013BB7"/>
</svg>
