<svg width="30" height="30" viewBox="0 0 30 30" fill="none" xmlns="http://www.w3.org/2000/svg">
<circle cx="15" cy="15" r="15" fill="#013BB7"/>
<path d="M9.38614 17.7097C9.38614 17.3356 9.07584 17.0323 8.69307 17.0323C8.3103 17.0323 8 17.3356 8 17.7097H9.38614ZM22 17.7097C22 17.3356 21.6897 17.0323 21.3069 17.0323C20.9242 17.0323 20.6139 17.3356 20.6139 17.7097H22ZM15.5465 9.09408C15.7819 8.79908 15.7281 8.3734 15.4263 8.1433C15.1245 7.9132 14.689 7.96582 14.4535 8.26082L15.5465 9.09408ZM10.8496 12.7769C10.6141 13.0719 10.668 13.4976 10.9698 13.7277C11.2716 13.9578 11.7071 13.9052 11.9425 13.6102L10.8496 12.7769ZM15.5465 8.26082C15.311 7.96582 14.8755 7.9132 14.5737 8.1433C14.2719 8.3734 14.2181 8.79908 14.4535 9.09408L15.5465 8.26082ZM18.0575 13.6102C18.2929 13.9052 18.7284 13.9578 19.0302 13.7277C19.3321 13.4976 19.3858 13.0719 19.1505 12.7769L18.0575 13.6102ZM15.6931 8.67745C15.6931 8.30332 15.3828 8.00003 15 8.00003C14.6172 8.00003 14.3069 8.30332 14.3069 8.67745H15.6931ZM14.3069 18.6129C14.3069 18.987 14.6172 19.2903 15 19.2903C15.3828 19.2903 15.6931 18.987 15.6931 18.6129H14.3069ZM8 17.7097V18.6129H9.38614V17.7097H8ZM8 18.6129C8 20.4673 9.50403 22 11.396 22V20.6452C10.3024 20.6452 9.38614 19.7516 9.38614 18.6129H8ZM11.396 22H18.604V20.6452H11.396V22ZM18.604 22C20.4959 22 22 20.4673 22 18.6129H20.6139C20.6139 19.7516 19.6975 20.6452 18.604 20.6452V22ZM22 18.6129V17.7097H20.6139V18.6129H22ZM14.4535 8.26082L10.8496 12.7769L11.9425 13.6102L15.5465 9.09408L14.4535 8.26082ZM14.4535 9.09408L18.0575 13.6102L19.1505 12.7769L15.5465 8.26082L14.4535 9.09408ZM14.3069 8.67745V18.6129H15.6931V8.67745H14.3069Z" fill="white"/>
</svg>
