<svg width="40" height="32" viewBox="0 0 40 32" fill="none" xmlns="http://www.w3.org/2000/svg">
<g clip-path="url(#clip0_2_6)">
<path d="M14 16C18.4187 16 22 12.4187 22 8C22 3.58125 18.4187 0 14 0C9.58125 0 6 3.58125 6 8C6 12.4187 9.58125 16 14 16ZM19.6 18H18.5562C17.1687 18.6375 15.625 19 14 19C12.375 19 10.8375 18.6375 9.44375 18H8.4C3.7625 18 0 21.7625 0 26.4V29C0 30.6562 1.34375 32 3 32H20.1812C20.0312 31.575 19.9687 31.125 20.0187 30.6688L20.4438 26.8625L20.5187 26.1688L21.0125 25.675L25.8438 20.8438C24.3125 19.1125 22.0938 18 19.6 18ZM22.4312 27.0812L22.0063 30.8937C21.9375 31.5312 22.475 32.0687 23.1063 31.9937L26.9125 31.5688L35.5312 22.95L31.05 18.4688L22.4312 27.0812ZM39.5625 16.8062L37.1937 14.4375C36.6125 13.8562 35.6625 13.8562 35.0812 14.4375L32.7188 16.8L32.4625 17.0562L36.95 21.5375L39.5625 18.925C40.1438 18.3375 40.1438 17.3937 39.5625 16.8062Z" fill="black"/>
</g>
<defs>
<clipPath id="clip0_2_6">
<rect width="40" height="32" fill="white"/>
</clipPath>
</defs>
</svg>
