<svg width="49" height="49" viewBox="0 0 49 49" fill="none" xmlns="http://www.w3.org/2000/svg">
<rect width="49" height="49" rx="10" fill="url(#paint0_linear_578_748)"/>
<path d="M14.48 19.22C13.9167 19.22 13.46 19.6766 13.46 20.24C13.46 20.8033 13.9167 21.26 14.48 21.26V19.22ZM33.52 21.26C34.0833 21.26 34.54 20.8033 34.54 20.24C34.54 19.6766 34.0833 19.22 33.52 19.22V21.26ZM14.48 24.66C13.9167 24.66 13.46 25.1167 13.46 25.68C13.46 26.2433 13.9167 26.7 14.48 26.7V24.66ZM30.8 26.7C31.3633 26.7 31.82 26.2433 31.82 25.68C31.82 25.1167 31.3633 24.66 30.8 24.66V26.7ZM14.48 30.1C13.9167 30.1 13.46 30.5567 13.46 31.12C13.46 31.6833 13.9167 32.14 14.48 32.14V30.1ZM24 32.14C24.5633 32.14 25.02 31.6833 25.02 31.12C25.02 30.5567 24.5633 30.1 24 30.1V32.14ZM14.48 21.26H33.52V19.22H14.48V21.26ZM14.48 26.7H30.8V24.66H14.48V26.7ZM14.48 32.14H24V30.1H14.48V32.14Z" fill="white"/>
<defs>
<linearGradient id="paint0_linear_578_748" x1="24.5" y1="49" x2="24.5" y2="0" gradientUnits="userSpaceOnUse">
<stop stop-color="#3751F2"/>
<stop offset="0.266767" stop-color="#2687F5"/>
<stop offset="0.736061" stop-color="#17B3F8"/>
<stop offset="1" stop-color="#08E2FB"/>
</linearGradient>
</defs>
</svg>
