<svg width="19" height="19" viewBox="0 0 19 19" fill="none" xmlns="http://www.w3.org/2000/svg">
<path fill-rule="evenodd" clip-rule="evenodd" d="M11.0571 0.00560241C11.0005 0.00188046 10.9436 0 10.8864 0H5.34286C2.94436 0 1 1.87936 1 4.19767V14.8023C1 17.1206 2.94436 19 5.34286 19H12.6571C15.0556 19 17 17.1206 17 14.8023V6.62791H13.5714C12.1828 6.62791 11.0571 5.53986 11.0571 4.19767V0.00560241ZM4.65714 9.5C4.65714 9.13395 4.96415 8.83721 5.34286 8.83721H12.6571C13.0359 8.83721 13.3429 9.13395 13.3429 9.5C13.3429 9.86605 13.0359 10.1628 12.6571 10.1628H5.34286C4.96415 10.1628 4.65714 9.86605 4.65714 9.5ZM5.34286 13.2558C4.96415 13.2558 4.65714 13.5526 4.65714 13.9186C4.65714 14.2847 4.96415 14.5814 5.34286 14.5814H9C9.37871 14.5814 9.68571 14.2847 9.68571 13.9186C9.68571 13.5526 9.37871 13.2558 9 13.2558H5.34286Z" fill="#49556F"/>
<path d="M16.6083 5.30233C16.5506 5.21448 16.4868 5.12991 16.4172 5.04922L12.8179 0.874436C12.701 0.738797 12.5703 0.617164 12.4286 0.510809V4.19767C12.4286 4.80776 12.9402 5.30233 13.5714 5.30233H16.6083Z" fill="#49556F"/>
</svg>
