<svg width="32" height="32" viewBox="0 0 32 32" fill="none" xmlns="http://www.w3.org/2000/svg">
<path fillRule="evenodd" clipRule="evenodd" d="M10.5 16C10.5 15.7348 10.6054 15.4804 10.7929 15.2929C10.9804 15.1054 11.2348 15 11.5 15H26.1307L23.516 12.76C23.4162 12.6745 23.3342 12.5703 23.2747 12.4531C23.2152 12.336 23.1793 12.2083 23.1692 12.0773C23.159 11.9463 23.1748 11.8146 23.2155 11.6897C23.2563 11.5648 23.3212 11.4491 23.4067 11.3493C23.4921 11.2495 23.5964 11.1675 23.7135 11.108C23.8307 11.0485 23.9584 11.0127 24.0894 11.0025C24.2203 10.9924 24.3521 11.0081 24.477 11.0488C24.6019 11.0896 24.7175 11.1545 24.8173 11.24L29.484 15.24C29.5938 15.3339 29.6819 15.4504 29.7423 15.5816C29.8028 15.7128 29.8341 15.8555 29.8341 16C29.8341 16.1444 29.8028 16.2872 29.7423 16.4184C29.6819 16.5496 29.5938 16.6661 29.484 16.76L24.8173 20.76C24.6158 20.9326 24.3539 21.018 24.0894 20.9975C23.8248 20.977 23.5792 20.8522 23.4067 20.6507C23.2341 20.4491 23.1487 20.1872 23.1692 19.9227C23.1897 19.6581 23.3144 19.4126 23.516 19.24L26.1293 17H11.5C11.2348 17 10.9804 16.8946 10.7929 16.7071C10.6054 16.5196 10.5 16.2652 10.5 16Z" fill="black"/>
<path d="M19.5 10.6667C19.5 11.6027 19.5 12.0707 19.2747 12.408C19.1776 12.553 19.053 12.6776 18.908 12.7747C18.5707 13 18.1027 13 17.1667 13H11.5C10.7044 13 9.94129 13.3161 9.37868 13.8787C8.81607 14.4413 8.5 15.2043 8.5 16C8.5 16.7956 8.81607 17.5587 9.37868 18.1213C9.94129 18.6839 10.7044 19 11.5 19H17.1667C18.1027 19 18.5707 19 18.908 19.224C19.0532 19.3214 19.1778 19.4465 19.2747 19.592C19.5 19.9293 19.5 20.3973 19.5 21.3333C19.5 25.104 19.5 26.9907 18.328 28.1613C17.1573 29.3333 15.272 29.3333 11.5013 29.3333H10.168C6.39467 29.3333 4.51067 29.3333 3.33867 28.1613C2.16667 26.9907 2.16667 25.104 2.16667 21.3333V10.6667C2.16667 6.89599 2.16667 5.00932 3.33867 3.83866C4.51067 2.66666 6.396 2.66666 10.1667 2.66666H11.5C15.272 2.66666 17.1573 2.66666 18.328 3.83866C19.5 5.00932 19.5 6.89599 19.5 10.6667Z" fill="black"/>
</svg>
