<svg width="19" height="19" viewBox="0 0 19 19" fill="none" xmlns="http://www.w3.org/2000/svg">
<g clip-path="url(#clip0_157_1146)">
<path d="M16.3039 0.95021H11.0656C10.9507 0.949546 10.8368 0.971565 10.7305 1.015C10.6241 1.05844 10.5274 1.12245 10.4458 1.20335L1.46212 10.1592C1.29977 10.3214 1.17098 10.5139 1.08311 10.7259C0.995241 10.9378 0.950012 11.165 0.950012 11.3944C0.950012 11.6238 0.995241 11.851 1.08311 12.0629C1.17098 12.2748 1.29977 12.4674 1.46212 12.6295L6.36864 17.5352C6.6946 17.863 7.13729 18.0482 7.59964 18.0502C7.83005 18.0504 8.05821 18.005 8.27099 17.9166C8.48376 17.8282 8.67693 17.6986 8.83937 17.5352L17.7968 8.54438C17.9581 8.3818 18.049 8.16235 18.05 7.93336V2.696C18.05 2.23299 17.866 1.78894 17.5386 1.46154C17.2111 1.13414 16.767 0.95021 16.3039 0.95021Z" fill="black"/>
<path d="M13.8542 6.3335C14.51 6.3335 15.0417 5.80183 15.0417 5.146C15.0417 4.49016 14.51 3.9585 13.8542 3.9585C13.1983 3.9585 12.6667 4.49016 12.6667 5.146C12.6667 5.80183 13.1983 6.3335 13.8542 6.3335Z" fill="white"/>
</g>
<defs>
<clipPath id="clip0_157_1146">
<rect width="19" height="19" fill="white"/>
</clipPath>
</defs>
</svg>
