<svg width="37" height="32" viewBox="0 0 37 32" fill="none" xmlns="http://www.w3.org/2000/svg">
<path d="M20.208 0C29.056 0 36.224 7.2 36.224 16C36.224 24.8 29.056 32 20.208 32C14.592 32 9.68 29.088 6.816 24.688L9.344 22.688C11.6 26.352 15.616 28.8 20.224 28.8C23.6188 28.8 26.8745 27.4514 29.275 25.051C31.6754 22.6505 33.024 19.3948 33.024 16C33.024 12.6052 31.6754 9.3495 29.275 6.94903C26.8745 4.54857 23.6188 3.2 20.224 3.2C13.696 3.2 8.32 8.096 7.536 14.4H11.952L5.968 20.368L0 14.4H4.304C5.104 6.32 11.92 0 20.208 0ZM24.944 13.184C25.744 13.2 26.4 13.84 26.4 14.656V22.032C26.4 22.832 25.744 23.504 24.928 23.504H16.08C15.264 23.504 14.608 22.832 14.608 22.032V14.656C14.608 13.84 15.264 13.2 16.064 13.184V11.568C16.064 9.12 18.064 7.136 20.496 7.136C22.944 7.136 24.944 9.12 24.944 11.568V13.184ZM20.496 9.376C19.296 9.376 18.304 10.352 18.304 11.568V13.184H22.704V11.568C22.704 10.352 21.712 9.376 20.496 9.376Z" fill="black"/>
</svg>
