<svg width="56" height="48" viewBox="0 0 56 48" fill="none" xmlns="http://www.w3.org/2000/svg">
<path fillRule="evenodd" clipRule="evenodd" d="M14.9767 0C10.7703 0 6.96653 1.04726 4.20563 3.60104C1.41855 6.17908 0 10.0075 0 14.9189V33.0811C0 37.9926 1.41855 41.821 4.20563 44.399C6.96653 46.9528 10.7703 48 14.9767 48H41.0233C45.2298 48 49.0336 46.9528 51.7943 44.399C54.5815 41.821 56 37.9926 56 33.0811V14.9189C56 10.0075 54.5815 6.17908 51.7943 3.60104C49.0336 1.04726 45.2298 0 41.0233 0H14.9767ZM46.8277 14.5616C47.6813 13.9045 47.8386 12.6824 47.1788 11.832C46.5193 10.9816 45.2925 10.8249 44.4387 11.482L29.9905 22.6031C28.8181 23.5057 27.1816 23.5057 26.009 22.6031L11.561 11.482C10.7073 10.8249 9.48046 10.9816 8.82078 11.832C8.1611 12.6824 8.3184 13.9045 9.17212 14.5616L23.6203 25.6829C26.1999 27.6682 29.7998 27.6682 32.3795 25.6829L46.8277 14.5616Z" fill="#013BB7"/>
</svg>
