<svg width="46" height="62" viewBox="0 0 46 62" fill="none" xmlns="http://www.w3.org/2000/svg">
<path d="M23 0C10.2973 0 0 10.4092 0 23.25C0 28.7506 2.39775 33.5875 5.05137 37.7812L21.436 61.1824C21.7954 61.6958 22.379 62 23 62C23.621 62 24.2046 61.6958 24.564 61.1824L40.9486 37.7812C43.4844 34.3306 46 28.7506 46 23.25C46 10.4092 35.7027 0 23 0ZM23 36.8125C15.5902 36.8125 9.58333 30.7404 9.58333 23.25C9.58333 15.7596 15.5902 9.6875 23 9.6875C30.4098 9.6875 36.4167 15.7596 36.4167 23.25C36.4167 30.7404 30.4098 36.8125 23 36.8125Z" fill="#013BB7"/>
<path d="M23 11.625C16.6491 11.625 11.5 16.8301 11.5 23.25C11.5 29.6699 16.6491 34.875 23 34.875C29.3509 34.875 34.5 29.6699 34.5 23.25C34.5 16.8301 29.3509 11.625 23 11.625ZM23 32.9375C17.7071 32.9375 13.4167 28.5994 13.4167 23.25C13.4167 17.9006 17.7071 13.5625 23 13.5625C28.2929 13.5625 32.5833 17.9006 32.5833 23.25C32.5833 28.5994 28.2929 32.9375 23 32.9375Z" fill="#013BB7"/>
</svg>
