<svg width="32" height="32" viewBox="0 0 32 32" fill="none" xmlns="http://www.w3.org/2000/svg">
<rect x="0.628262" y="0.628262" width="30.1566" height="30.1566" rx="15.0783" stroke="#49556F" stroke-width="1.25652"/>
<path d="M10.67 15.7637H8C6.9 15.7637 6 16.6637 6 17.7637V22.7637C6 23.3137 6.45 23.7637 7 23.7637H10.67C11.22 23.7637 11.67 23.3137 11.67 22.7637V16.7637C11.67 16.2137 11.22 15.7637 10.67 15.7637Z" fill="#292D32"/>
<path d="M17.33 11.7637H14.66C13.56 11.7637 12.66 12.6637 12.66 13.7637V22.7637C12.66 23.3137 13.11 23.7637 13.66 23.7637H18.33C18.88 23.7637 19.33 23.3137 19.33 22.7637V13.7637C19.33 12.6637 18.44 11.7637 17.33 11.7637Z" fill="#292D32"/>
<path d="M24 18.7637H21.33C20.78 18.7637 20.33 19.2137 20.33 19.7637V22.7637C20.33 23.3137 20.78 23.7637 21.33 23.7637H25C25.55 23.7637 26 23.3137 26 22.7637V20.7637C26 19.6637 25.1 18.7637 24 18.7637Z" fill="#292D32"/>
<path d="M19.01 6.61414C19.32 6.30414 19.44 5.93414 19.34 5.61414C19.24 5.29414 18.93 5.06414 18.49 4.99414L17.53 4.83414C17.49 4.83414 17.4 4.76414 17.38 4.72414L16.85 3.66414C16.45 2.85414 15.54 2.85414 15.14 3.66414L14.61 4.72414C14.6 4.76414 14.51 4.83414 14.47 4.83414L13.51 4.99414C13.07 5.06414 12.77 5.29414 12.66 5.61414C12.56 5.93414 12.68 6.30414 12.99 6.61414L13.73 7.36414C13.77 7.39414 13.8 7.51414 13.79 7.55414L13.58 8.47414C13.42 9.16414 13.68 9.47414 13.85 9.59414C14.02 9.71414 14.39 9.87414 15 9.51414L15.9 8.98414C15.94 8.95414 16.07 8.95414 16.11 8.98414L17 9.51414C17.28 9.68414 17.51 9.73414 17.69 9.73414C17.9 9.73414 18.05 9.65414 18.14 9.59414C18.31 9.47414 18.57 9.16414 18.41 8.47414L18.2 7.55414C18.19 7.50414 18.22 7.39414 18.26 7.36414L19.01 6.61414Z" fill="#292D32"/>
</svg>
