<svg width="13" height="13" viewBox="0 0 13 13" fill="none" xmlns="http://www.w3.org/2000/svg">
<path fillRule="evenodd" clipRule="evenodd" d="M2.16667 0C0.97005 0 0 0.97005 0 2.16667V10.8333C0 12.03 0.97005 13 2.16667 13H10.8333C12.03 13 13 12.03 13 10.8333V2.16667C13 0.97005 12.03 0 10.8333 0H2.16667ZM9.89958 4.84402C10.1816 4.56198 10.1816 4.10469 9.89958 3.82265C9.61753 3.5406 9.16025 3.5406 8.8782 3.82265L5.05556 7.64529L3.76069 6.35042C3.47864 6.06838 3.02136 6.06838 2.73931 6.35042C2.45727 6.63247 2.45727 7.08975 2.73931 7.3718L4.03418 8.66667C4.59827 9.23076 5.51284 9.23076 6.07693 8.66667L9.89958 4.84402Z" fill="white"/>
</svg>
