<svg width="200" height="219" viewBox="0 0 200 219" fill="none" xmlns="http://www.w3.org/2000/svg">
<path d="M102.538 0L107.054 9.19954L117.201 10.6491L109.897 17.7858L111.626 27.8774L102.538 23.1382L93.4495 27.8774L95.2337 17.7858L87.874 10.6491L98.0214 9.19954L102.538 0Z" fill="#E6B54A"/>
<path d="M69.5305 22.748L72.2067 28.1005L78.061 28.9368L73.8236 33.1185L74.8272 39.0284L69.5305 36.2407L64.2895 39.0284L65.2931 33.1185L61 28.9368L66.91 28.1005L69.5305 22.748Z" fill="#E6B54A"/>
<path d="M130.192 22.748L132.812 28.1005L138.722 28.9368L134.485 33.1185L135.488 39.0284L130.192 36.2407L124.895 39.0284L125.898 33.1185L121.661 28.9368L127.571 28.1005L130.192 22.748Z" fill="#E6B54A"/>
<path d="M154.305 49.247C171.157 56.5353 184.473 71.4578 188.969 90.6958C196.512 122.973 176.462 155.251 144.185 162.793" stroke="#E6B54A" stroke-width="2" stroke-miterlimit="10"/>
<path d="M157.735 50.6088C157.735 50.6088 155.1 42.6131 163.915 40.0121C163.915 40.0121 168.516 47.5482 158.493 51.1529L157.735 50.6088Z" fill="#E6B54A"/>
<path d="M156.013 50.3803C156.013 50.3803 148.643 54.5371 144.392 46.3781C144.392 46.3781 150.927 40.3875 156.399 49.5237L156.013 50.3803Z" fill="#E6B54A"/>
<path d="M162.891 53.9574C162.891 53.9574 158.699 61.294 150.861 56.4982C150.861 56.4982 153.43 48.0077 162.809 53.0296L162.891 53.9574Z" fill="#E6B54A"/>
<path d="M169.562 59.1617C169.562 59.1617 165.37 66.4984 157.522 61.6598C157.522 61.6598 160.059 53.222 169.481 58.234L169.562 59.1617Z" fill="#E6B54A"/>
<path d="M176.16 65.0143C176.16 65.0143 171.968 72.3509 164.119 67.5123C164.119 67.5123 166.656 59.0746 176.035 64.0965L176.16 65.0143Z" fill="#E6B54A"/>
<path d="M181.367 72.6338C181.367 72.6338 177.176 79.9704 169.327 75.1318C169.327 75.1318 171.854 66.6514 181.243 71.7161L181.367 72.6338Z" fill="#E6B54A"/>
<path d="M187.577 84.3489C187.577 84.3489 181.459 90.1969 175.303 83.3397C175.303 83.3397 180.156 75.9387 187.719 83.4139L187.577 84.3489Z" fill="#E6B54A"/>
<path d="M189.364 95.4721C189.364 95.4721 181.195 97.5612 179.183 88.5635C179.183 88.5635 187.03 84.5206 189.961 94.7465L189.364 95.4721Z" fill="#E6B54A"/>
<path d="M190.648 106.174C190.648 106.174 182.437 108.273 180.467 99.2655C180.467 99.2655 188.314 95.2226 191.245 105.448L190.648 106.174Z" fill="#E6B54A"/>
<path d="M189.656 116.594C189.656 116.594 181.445 118.693 179.476 109.685C179.476 109.685 187.313 105.6 190.253 115.868L189.656 116.594Z" fill="#E6B54A"/>
<path d="M184.748 128.967C184.748 128.967 176.478 127.338 178.532 118.381C178.532 118.381 187.334 118.038 185.606 128.586L184.748 128.967Z" fill="#E6B54A"/>
<path d="M181.235 137.092C181.235 137.092 172.922 135.473 174.977 126.516C174.977 126.516 183.778 126.173 182.083 136.668L181.235 137.092Z" fill="#E6B54A"/>
<path d="M172.777 147.004C172.777 147.004 164.464 145.385 166.519 136.428C166.519 136.428 175.32 136.085 173.635 146.623L172.777 147.004Z" fill="#E6B54A"/>
<path d="M164.244 154.093C164.244 154.093 156.165 151.742 159.027 142.958C159.027 142.958 167.857 143.51 165.164 153.787L164.244 154.093Z" fill="#E6B54A"/>
<path d="M165.05 55.4816C165.05 55.4816 162.405 47.4432 171.22 44.8422C171.22 44.8422 175.822 52.3783 165.809 56.0257L165.05 55.4816Z" fill="#E6B54A"/>
<path d="M172.417 61.1544C172.417 61.1544 169.773 53.116 178.588 50.5151C178.588 50.5151 183.189 58.0511 173.176 61.6986L172.417 61.1544Z" fill="#E6B54A"/>
<path d="M178.095 68.6652C178.095 68.6652 175.45 60.6268 184.265 58.0258C184.265 58.0258 188.867 65.5619 178.854 69.2093L178.095 68.6652Z" fill="#E6B54A"/>
<path d="M183.176 76.1336C183.176 76.1336 180.617 68.0752 189.505 65.5925C189.505 65.5925 193.988 73.2013 183.935 76.6778L183.176 76.1336Z" fill="#E6B54A"/>
<path d="M187.171 85.7054C187.171 85.7054 185.51 77.4372 194.585 75.9477C194.585 75.9477 198.22 83.9801 187.864 86.355L187.171 85.7054Z" fill="#E6B54A"/>
<path d="M189.386 96.1431C189.386 96.1431 188.28 87.7451 197.452 86.8642C197.452 86.8642 200.509 95.1218 189.993 96.8127L189.386 96.1431Z" fill="#E6B54A"/>
<path d="M190.048 105.728C190.048 105.728 190.231 97.2538 199.424 97.8108C199.424 97.8108 201.218 106.454 190.537 106.47L190.048 105.728Z" fill="#E6B54A"/>
<path d="M189.033 116.244C189.033 116.244 190.376 107.905 199.401 109.674C199.401 109.674 200.021 118.501 189.457 117.092L189.033 116.244Z" fill="#E6B54A"/>
<path d="M185.434 127.275C185.434 127.275 188.156 119.245 196.764 122.508C196.764 122.508 195.883 131.28 185.729 128.153L185.434 127.275Z" fill="#E6B54A"/>
<path d="M180.864 137.044C180.864 137.044 183.554 129.067 192.204 132.32C192.204 132.32 191.323 141.092 181.127 137.975L180.864 137.044Z" fill="#E6B54A"/>
<path d="M172.51 147.02C172.51 147.02 175.941 139.321 184.228 143.335C184.228 143.335 182.518 152.031 172.678 147.928L172.51 147.02Z" fill="#E6B54A"/>
<path d="M163.185 154.385C163.185 154.385 169.606 148.872 175.375 156C175.375 156 170.195 163.162 162.99 155.287L163.185 154.385Z" fill="#E6B54A"/>
<path d="M45.76 49.247C28.908 56.5353 15.5921 71.4578 11.0964 90.6958C3.55374 122.973 23.6033 155.251 55.8804 162.793" stroke="#E6B54A" stroke-width="2" stroke-miterlimit="10"/>
<path d="M42.3308 50.6088C42.3308 50.6088 44.9657 42.6131 36.1506 40.0121C36.1506 40.0121 31.5491 47.5482 41.5724 51.1529L42.3308 50.6088Z" fill="#E6B54A"/>
<path d="M44.0525 50.3803C44.0525 50.3803 51.422 54.5371 55.6731 46.3781C55.6731 46.3781 49.138 40.3875 43.6666 49.5237L44.0525 50.3803Z" fill="#E6B54A"/>
<path d="M37.1747 53.9574C37.1747 53.9574 41.3664 61.294 49.2049 56.4982C49.2049 56.4982 46.6354 48.0077 37.2562 53.0296L37.1747 53.9574Z" fill="#E6B54A"/>
<path d="M30.5034 59.1617C30.5034 59.1617 34.6951 66.4984 42.5436 61.6598C42.5436 61.6598 40.0068 53.222 30.5849 58.234L30.5034 59.1617Z" fill="#E6B54A"/>
<path d="M23.9057 65.0143C23.9057 65.0143 28.0975 72.3509 35.946 67.5123C35.946 67.5123 33.4092 59.0746 24.03 64.0965L23.9057 65.0143Z" fill="#E6B54A"/>
<path d="M18.6982 72.6338C18.6982 72.6338 22.8899 79.9704 30.7384 75.1318C30.7384 75.1318 28.2116 66.6514 18.8225 71.7161L18.6982 72.6338Z" fill="#E6B54A"/>
<path d="M12.4889 84.3489C12.4889 84.3489 18.6065 90.1969 24.7626 83.3397C24.7626 83.3397 19.9096 75.9387 12.3467 83.4139L12.4889 84.3489Z" fill="#E6B54A"/>
<path d="M10.7018 95.4721C10.7018 95.4721 18.87 97.5612 20.8825 88.5635C20.8825 88.5635 13.0356 84.5206 10.1049 94.7465L10.7018 95.4721Z" fill="#E6B54A"/>
<path d="M9.41775 106.174C9.41775 106.174 17.6288 108.273 19.5985 99.2655C19.5985 99.2655 11.7515 95.2226 8.82086 105.448L9.41775 106.174Z" fill="#E6B54A"/>
<path d="M10.4091 116.594C10.4091 116.594 18.6201 118.693 20.5899 109.685C20.5899 109.685 12.7529 105.6 9.81224 115.868L10.4091 116.594Z" fill="#E6B54A"/>
<path d="M15.3172 128.967C15.3172 128.967 23.5879 127.338 21.533 118.381C21.533 118.381 12.7314 118.038 14.4594 128.586L15.3172 128.967Z" fill="#E6B54A"/>
<path d="M18.83 137.092C18.83 137.092 27.1435 135.473 25.0885 126.516C25.0885 126.516 16.2869 126.173 17.9822 136.668L18.83 137.092Z" fill="#E6B54A"/>
<path d="M27.288 147.004C27.288 147.004 35.6015 145.385 33.5466 136.428C33.5466 136.428 24.745 136.085 26.4302 146.623L27.288 147.004Z" fill="#E6B54A"/>
<path d="M35.8215 154.093C35.8215 154.093 43.9 151.742 41.0384 142.958C41.0384 142.958 32.208 143.51 34.9009 153.787L35.8215 154.093Z" fill="#E6B54A"/>
<path d="M35.0151 55.4816C35.0151 55.4816 37.66 47.4432 28.845 44.8422C28.845 44.8422 24.2435 52.3783 34.2568 56.0257L35.0151 55.4816Z" fill="#E6B54A"/>
<path d="M27.6479 61.1544C27.6479 61.1544 30.2929 53.116 21.4778 50.5151C21.4778 50.5151 16.8763 58.0511 26.8896 61.6986L27.6479 61.1544Z" fill="#E6B54A"/>
<path d="M21.9702 68.6652C21.9702 68.6652 24.6151 60.6268 15.8 58.0258C15.8 58.0258 11.1985 65.5619 21.2118 69.2093L21.9702 68.6652Z" fill="#E6B54A"/>
<path d="M16.8891 76.1336C16.8891 76.1336 19.4486 68.0752 10.5607 65.5925C10.5607 65.5925 6.07753 73.2013 16.1308 76.6778L16.8891 76.1336Z" fill="#E6B54A"/>
<path d="M12.8941 85.7054C12.8941 85.7054 14.5558 77.4372 5.48091 75.9477C5.48091 75.9477 1.84553 83.9801 12.2013 86.355L12.8941 85.7054Z" fill="#E6B54A"/>
<path d="M10.6794 96.1431C10.6794 96.1431 11.7853 87.7451 2.61334 86.8642C2.61334 86.8642 -0.443518 95.1218 10.0721 96.8127L10.6794 96.1431Z" fill="#E6B54A"/>
<path d="M10.0179 105.728C10.0179 105.728 9.83407 97.2538 0.641677 97.8108C0.641677 97.8108 -1.15262 106.454 9.52886 106.47L10.0179 105.728Z" fill="#E6B54A"/>
<path d="M11.0319 116.244C11.0319 116.244 9.6894 107.905 0.664769 109.674C0.664769 109.674 0.044723 118.501 10.6084 117.092L11.0319 116.244Z" fill="#E6B54A"/>
<path d="M14.6314 127.275C14.6314 127.275 11.9092 119.245 3.30161 122.508C3.30161 122.508 4.18226 131.28 14.3361 128.153L14.6314 127.275Z" fill="#E6B54A"/>
<path d="M19.2012 137.044C19.2012 137.044 16.5117 129.067 7.8614 132.32C7.8614 132.32 8.74206 141.092 18.9386 137.975L19.2012 137.044Z" fill="#E6B54A"/>
<path d="M27.555 147.02C27.555 147.02 24.1243 139.321 15.8372 143.335C15.8372 143.335 17.5473 152.031 27.3879 147.928L27.555 147.02Z" fill="#E6B54A"/>
<path d="M36.8805 154.385C36.8805 154.385 30.4592 148.872 24.6907 156C24.6907 156 29.8701 163.162 37.0755 155.287L36.8805 154.385Z" fill="#E6B54A"/>
<path d="M107.82 218.802L124.127 197.305L149.868 205.353L130.788 145.688L88.7402 159.137L107.82 218.802Z" fill="url(#paint0_linear_387_1090)"/>
<path d="M92.1807 218.802L75.8738 197.305L50.1328 205.353L69.2124 145.688L111.26 159.137L92.1807 218.802Z" fill="url(#paint1_linear_387_1090)"/>
<path d="M157.028 108.036C157.028 110.986 153.722 113.649 153.274 116.473C152.818 119.381 155.143 122.931 154.255 125.662C153.351 128.451 149.377 129.956 148.067 132.526C146.74 135.121 147.847 139.221 146.14 141.563C144.432 143.913 140.188 144.116 138.134 146.17C136.088 148.224 135.877 152.468 133.527 154.175C131.185 155.883 127.085 154.776 124.49 156.103C121.92 157.413 120.416 161.386 117.626 162.291C114.895 163.178 111.345 160.854 108.445 161.31C105.613 161.758 102.951 165.064 100 165.064C97.0499 165.064 94.3871 161.758 91.5551 161.31C88.6556 160.854 85.1051 163.178 82.3746 162.291C79.5849 161.386 78.0802 157.413 75.5103 156.103C72.9151 154.776 68.8151 155.883 66.4735 154.175C64.1234 152.468 63.9121 148.224 61.8663 146.17C59.8121 144.116 55.5684 143.913 53.8608 141.563C52.1532 139.221 53.2606 135.121 51.9334 132.526C50.6231 129.956 46.6499 128.451 45.7454 125.662C44.8578 122.931 47.1825 119.381 46.726 116.473C46.278 113.649 42.9727 110.986 42.9727 108.036C42.9727 105.086 46.278 102.423 46.726 99.5909C47.1825 96.6914 44.8578 93.1409 45.7454 90.4104C46.6499 87.6207 50.6231 86.116 51.9334 83.5461C53.2606 80.9509 52.1532 76.8509 53.8608 74.5093C55.5684 72.1592 59.8121 71.9479 61.8663 69.9021C63.9121 67.8479 64.1234 63.6042 66.4735 61.8966C68.8151 60.189 72.9151 61.2964 75.5103 59.9692C78.0802 58.6589 79.5849 54.6857 82.3746 53.7812C85.1051 52.8936 88.6556 55.2099 91.5551 54.7534C94.3871 54.3138 97.0499 51 100 51C102.951 51 105.613 54.3138 108.445 54.7534C111.345 55.2099 114.895 52.8936 117.626 53.7812C120.416 54.6857 121.92 58.6589 124.49 59.9692C127.085 61.2964 131.185 60.189 133.527 61.8966C135.877 63.6042 136.088 67.8479 138.134 69.9021C140.188 71.9479 144.432 72.1592 146.14 74.5093C147.847 76.8509 146.74 80.9509 148.067 83.5461C149.377 86.116 153.351 87.6207 154.255 90.4104C155.143 93.1409 152.818 96.6914 153.274 99.5909C153.722 102.423 157.028 105.086 157.028 108.036Z" fill="url(#paint2_linear_387_1090)"/>
<path d="M143.239 108.036C143.239 131.917 123.881 151.276 99.9996 151.276C76.1184 151.276 56.7598 131.917 56.7598 108.036C56.7598 84.1545 76.1184 64.7959 99.9996 64.7959C123.881 64.7959 143.239 84.1545 143.239 108.036Z" fill="url(#paint3_linear_387_1090)"/>
<path d="M133.468 108.036C133.468 126.515 118.489 141.503 100.001 141.503C81.5129 141.503 66.5332 126.515 66.5332 108.036C66.5332 89.548 81.5129 74.5684 100.001 74.5684C118.489 74.5684 133.468 89.548 133.468 108.036Z" fill="url(#paint4_linear_387_1090)"/>
<path d="M103.999 90.2241L106.805 95.8457C107.456 97.1476 108.699 98.0521 110.136 98.2719L116.358 99.2018C120.001 99.7428 121.455 104.223 118.826 106.802L114.346 111.206C113.306 112.229 112.824 113.691 113.069 115.137L114.109 121.333C114.718 124.968 110.905 127.732 107.642 126.033L102.063 123.125C100.769 122.457 99.2309 122.457 97.9375 123.125L92.3582 126.033C89.0951 127.732 85.2826 124.968 85.8913 121.333L86.931 115.137C87.1762 113.691 86.6943 112.229 85.6546 111.206L81.1742 106.802C78.5451 104.223 79.9991 99.7428 83.6426 99.2018L89.8644 98.2719C91.3015 98.0521 92.5442 97.1476 93.1951 95.8457L96.0017 90.2241C97.6501 86.9188 102.35 86.9188 103.999 90.2241Z" fill="url(#paint5_linear_387_1090)"/>
<defs>
<linearGradient id="paint0_linear_387_1090" x1="167.315" y1="186.464" x2="154.822" y2="147.4" gradientUnits="userSpaceOnUse">
<stop stop-color="#BF1926"/>
<stop offset="0.785" stop-color="#9C142A"/>
<stop offset="0.999" stop-color="#78102F"/>
</linearGradient>
<linearGradient id="paint1_linear_387_1090" x1="32.686" y1="186.464" x2="45.1786" y2="147.4" gradientUnits="userSpaceOnUse">
<stop stop-color="#D61C2B"/>
<stop offset="0.782" stop-color="#BA1832"/>
<stop offset="1" stop-color="#96143B"/>
</linearGradient>
<linearGradient id="paint2_linear_387_1090" x1="107.254" y1="-4.04328" x2="220.086" y2="120.733" gradientUnits="userSpaceOnUse">
<stop stop-color="#FCB912"/>
<stop offset="1" stop-color="#ED7324"/>
</linearGradient>
<linearGradient id="paint3_linear_387_1090" x1="105.499" y1="23.0575" x2="191.048" y2="117.662" gradientUnits="userSpaceOnUse">
<stop stop-color="#D61C2B"/>
<stop offset="1" stop-color="#B01745"/>
</linearGradient>
<linearGradient id="paint4_linear_387_1090" x1="104.257" y1="42.2643" x2="170.47" y2="115.486" gradientUnits="userSpaceOnUse">
<stop offset="0.002" stop-color="#91131D"/>
<stop offset="0.999" stop-color="#851234"/>
</linearGradient>
<linearGradient id="paint5_linear_387_1090" x1="101.725" y1="69.0205" x2="140.826" y2="112.261" gradientUnits="userSpaceOnUse">
<stop stop-color="#FCB912"/>
<stop offset="1" stop-color="#ED7324"/>
</linearGradient>
</defs>
</svg>
