<svg width="258" height="224" viewBox="0 0 258 224" fill="none" xmlns="http://www.w3.org/2000/svg">
<path d="M101.39 177.728H35.875V103.617H101.39V177.728Z" fill="#F5F5F5"/>
<path d="M102.667 103.617H34.5997C32.8596 103.617 31.4385 102.199 31.4385 100.462C31.4385 98.6973 32.8596 97.2793 34.5997 97.2793H102.667C104.407 97.2793 105.857 98.6973 105.857 100.462C105.857 102.199 104.407 103.617 102.667 103.617Z" fill="#D6D6D6"/>
<path opacity="0.5" d="M96.0256 129.748H41.2412V110.678H96.0256V129.748Z" fill="#D6D6D6"/>
<path opacity="0.5" d="M96.0256 174.776H41.2412V155.734H96.0256V174.776Z" fill="#D6D6D6"/>
<path opacity="0.5" d="M96.0256 152.262H41.2412V133.221H96.0256V152.262Z" fill="#D6D6D6"/>
<path d="M72.2145 121.906H65.0801V118.549H72.2145V121.906Z" fill="#D6D6D6"/>
<path d="M72.2145 144.419H65.0801V141.062H72.2145V144.419Z" fill="#D6D6D6"/>
<path d="M72.2145 166.933H65.0801V163.576H72.2145V166.933Z" fill="#D6D6D6"/>
<path d="M253.765 177.786H7.42383" stroke="#262626" stroke-width="1.5" stroke-linecap="round" stroke-linejoin="round"/>
<path d="M258 203.136C258 214.682 200.257 224 129 224C57.7426 224 0 214.682 0 203.136C0 191.618 57.7426 182.271 129 182.271C200.257 182.271 258 191.618 258 203.136Z" fill="#F5F5F5"/>
<path d="M227.201 200.271L224.793 200.561L211.888 119.823L219.08 118.868L227.201 200.271Z" fill="#D6D6D6"/>
<path d="M149.128 197.551L151.506 197.869L164.441 117.103L157.248 116.177L149.128 197.551Z" fill="#D6D6D6"/>
<path d="M194.573 199.547L192.166 199.837L179.231 119.1L186.453 118.145L194.573 199.547Z" fill="#D6D6D6"/>
<path d="M220.443 135.97H159.481L161.657 116.958H228.419L226.853 130.212C226.505 133.395 223.662 135.97 220.443 135.97Z" fill="#F5F5F5"/>
<path d="M223.749 130.154H186.192C184.539 130.154 183.35 128.823 183.553 127.173L192.282 55.8986C192.485 54.2491 193.994 52.918 195.647 52.918H233.204C234.857 52.918 236.046 54.2491 235.843 55.8986L227.114 127.173C226.911 128.823 225.402 130.154 223.749 130.154Z" fill="#F5F5F5"/>
<path d="M217.746 130.154H180.189C178.536 130.154 177.347 128.823 177.55 127.173L186.279 55.8986C186.482 54.2491 187.991 52.918 189.644 52.918H227.201C228.854 52.918 230.043 54.2491 229.84 55.8986L221.111 127.173C220.908 128.823 219.4 130.154 217.746 130.154Z" fill="#D6D6D6"/>
<path d="M166.704 182.589L162.643 172.866L180.596 165.429L191.761 192.168L151.478 209.646L149.477 204.785L166.704 182.589Z" fill="#F7A99C"/>
<path d="M150.056 210.225L149.099 207.939C148.113 205.566 148.49 202.875 150.114 200.878L163.368 184.586C169.081 183.863 172.968 182.011 175.491 180.448C179.667 177.814 183.089 173.995 185.264 175.094C185.873 175.413 186.193 176.02 186.367 176.483L192.254 190.605C192.66 191.618 192.196 192.747 191.21 193.152L150.056 210.225Z" fill="#FFC001"/>
<path d="M149.418 208.691L192.37 190.865" stroke="#013BB7" stroke-width="1.5" stroke-linecap="round" stroke-linejoin="round"/>
<path d="M154.928 195.264L158.64 197.463" stroke="#013BB7" stroke-width="1.5" stroke-linecap="round" stroke-linejoin="round"/>
<path d="M156.264 193.557L160.005 195.727" stroke="#013BB7" stroke-width="1.5" stroke-linecap="round" stroke-linejoin="round"/>
<path d="M157.712 191.878L161.453 194.048" stroke="#013BB7" stroke-width="1.5" stroke-linecap="round" stroke-linejoin="round"/>
<path d="M159.743 189.071C163.107 188.955 168.502 188.377 174.563 185.83C180.421 183.37 184.482 180.071 186.918 177.785" stroke="#013BB7" stroke-width="1.5" stroke-linecap="round" stroke-linejoin="round"/>
<path d="M107.885 190.489L113.628 179.319L128.361 179.146L127.085 209.154L83.1758 209.299L83.2628 204.032L107.885 190.489Z" fill="#F7A99C"/>
<path d="M81.6396 209.27L81.6686 206.782C81.6976 204.235 83.1187 201.891 85.4099 200.705L104.029 190.981C109.568 192.573 113.861 192.399 116.79 191.965C121.662 191.184 126.36 189.042 127.898 190.895C128.333 191.444 128.391 192.139 128.362 192.602L128.159 207.939C128.159 209.01 127.259 209.878 126.186 209.849L81.6396 209.27Z" fill="#FFC001"/>
<path d="M81.6396 207.621L128.159 208.2" stroke="#013BB7" stroke-width="1.5" stroke-linecap="round" stroke-linejoin="round"/>
<path d="M92.0215 197.463L94.6026 200.935" stroke="#013BB7" stroke-width="1.5" stroke-linecap="round" stroke-linejoin="round"/>
<path d="M93.9658 196.422L96.518 199.894" stroke="#013BB7" stroke-width="1.5" stroke-linecap="round" stroke-linejoin="round"/>
<path d="M95.9668 195.438L98.519 198.91" stroke="#013BB7" stroke-width="1.5" stroke-linecap="round" stroke-linejoin="round"/>
<path d="M98.9248 193.644C102.057 194.888 107.248 196.508 113.832 196.566C120.154 196.595 125.229 195.177 128.333 194.02" stroke="#013BB7" stroke-width="1.5" stroke-linecap="round" stroke-linejoin="round"/>
<path d="M179.551 97.1934C179.551 97.1934 138.456 109.174 136.309 112.617C134.192 116.061 134.975 123.614 136.309 128.533C137.644 133.453 157.278 182.271 157.278 182.271L185.381 171.796L166.094 121.501L202.289 103.184L179.551 97.1934Z" fill="#08E0FA"/>
<path d="M151.534 168.786C151.534 168.786 162.845 153.564 164.585 152.233C166.296 150.902 175.229 145.114 175.229 145.114L177.52 151.307L153.506 172.866L151.534 168.786Z" fill="#006E7B"/>
<path d="M214.121 107.785C214.121 107.785 216.238 115.598 215.194 118.231C214.121 120.836 166.239 150.845 165.166 152.697C164.122 154.549 134.598 188.233 134.598 188.233L103.45 182.098C103.45 182.098 134.047 141.816 141.501 135.71C148.954 129.604 182.741 100.261 182.741 100.261L214.121 107.785Z" fill="#08E0FA"/>
<path d="M205.594 51.731L221.429 42.9627C222.183 42.5576 222.299 41.5158 221.661 40.966L213.134 33.5289L210.35 23.7478C213.25 23.5452 222.56 23.2558 230.709 29.5933C232.855 31.3006 240.541 37.2619 239.671 44.0913C239.091 48.461 234.364 52.0782 224.909 59.2838C222.183 61.3674 219.834 63.0168 218.123 64.1454L205.594 51.731Z" fill="#013BB7"/>
<path d="M210.785 25.3112C210.785 25.3112 206.029 23.517 205.246 23.3724C204.434 23.2277 196.284 25.6874 196.284 25.6874L196.603 27.4816C196.603 27.4816 202.723 27.742 203.013 27.9156C203.274 28.0893 206.928 31.8512 207.682 32.1695C208.465 32.4879 212.931 32.8062 212.931 32.8062L210.785 25.3112Z" fill="#F7A99C"/>
<path d="M195.502 50.9211L180.856 40.214C180.189 39.7221 180.189 38.7092 180.885 38.2173L190.281 31.8798L194.284 22.5328C191.412 21.983 182.219 20.5361 173.344 25.8318C170.966 27.2208 162.643 32.1981 162.643 39.0854C162.643 43.484 166.906 47.6511 175.374 55.9853C177.84 58.3871 179.957 60.326 181.523 61.6572L195.502 50.9211Z" fill="#013BB7"/>
<path d="M193.645 24.0374C193.645 24.0374 198.575 22.8509 199.387 22.822C200.199 22.7641 207.971 26.2078 207.971 26.2078L207.42 27.9441C207.42 27.9441 201.33 27.4521 201.04 27.5968C200.721 27.7126 196.661 30.9826 195.849 31.2141C195.066 31.4456 190.57 31.2141 190.57 31.2141L193.645 24.0374Z" fill="#F7A99C"/>
<path d="M195.502 50.9209L206.001 51.7022C211.627 54.2488 214.702 57.4609 216.326 59.5155C218.182 61.8595 222.793 68.6021 221.749 100.752C221.604 105.44 221.372 109.231 221.227 111.546L168.183 97.193C168.792 95.0805 174.766 74.8817 180.972 62.7277C182.597 59.5155 184.83 55.6957 189.209 53.1491C191.674 51.7312 193.994 51.1524 195.502 50.9209Z" fill="#013BB7"/>
<path d="M200.258 56.1306C203.158 56.42 205.71 54.2786 206 51.4137L207.044 40.1567L196.574 39.1729L195.501 50.4298C195.24 53.2947 197.357 55.8701 200.258 56.1306Z" fill="#F7A99C"/>
<path d="M195.819 47.2747L202.953 44.3809C202.837 44.9596 202.199 47.6798 199.589 49.3872C197.907 50.4579 196.254 50.6026 195.5 50.6026L195.819 47.2747Z" fill="#FF7769"/>
<path d="M207.623 36.6832C207.681 36.5096 208.145 36.307 208.29 36.2202C208.541 36.0851 208.802 35.9887 209.073 35.9308C209.595 35.815 210.175 35.844 210.668 35.9887C211.712 36.3359 212.553 37.2909 212.64 38.3905C212.669 38.9982 212.466 39.6349 212.147 40.1847C211.683 41.0239 210.929 41.6895 210.059 42.0657C209.334 42.4129 208.522 42.5576 207.739 42.5287C207.594 42.5287 205.969 42.3551 205.998 42.2972C206.54 40.4259 207.081 38.5545 207.623 36.6832Z" fill="#F7A99C"/>
<path d="M209.045 36.9152C208.842 37.7544 207.711 42.1241 203.418 44.8732C202.635 45.3941 197.386 48.7799 193.065 46.5227C187.525 43.5999 189.004 34.195 189.091 33.7031C189.381 31.9668 190.252 26.9316 194.718 24.5876C198.372 22.6777 202.055 23.8352 202.548 24.0088C203.099 24.1824 206.58 25.3978 208.436 29.073C210.147 32.4009 209.393 35.5551 209.045 36.9152Z" fill="#F7A99C"/>
<path d="M192.368 33.9924C192.194 34.7159 191.585 35.2078 190.976 35.0631C190.396 34.9474 190.019 34.2529 190.193 33.5294C190.338 32.777 190.947 32.314 191.556 32.4298C192.165 32.5745 192.513 33.269 192.368 33.9924Z" fill="#262626"/>
<path d="M198.953 35.4395C198.779 36.163 198.17 36.6549 197.561 36.5102C196.981 36.3655 196.604 35.671 196.778 34.9476C196.923 34.2241 197.532 33.7322 198.141 33.8769C198.75 33.9926 199.098 34.6871 198.953 35.4395Z" fill="#262626"/>
<path d="M194.284 35.2656L193.123 36.5678C192.92 36.7993 192.949 37.1755 193.21 37.3492L194.11 38.0147" stroke="#262626" stroke-width="0.5" stroke-linecap="round" stroke-linejoin="round"/>
<path d="M200.867 39.1143C200.693 39.9246 199.881 40.4455 199.069 40.2718C198.256 40.0693 197.734 39.259 197.908 38.4487C198.082 37.6385 198.895 37.1176 199.707 37.2912C200.519 37.4648 201.041 38.2751 200.867 39.1143Z" fill="#FF7769"/>
<path d="M207.973 40.5328C208.002 40.3592 208.089 39.2306 209.075 38.5071C209.829 37.9284 210.641 37.9573 210.873 37.9863" stroke="#262626" stroke-width="0.2" stroke-linecap="round" stroke-linejoin="round"/>
<path d="M208.958 38.7093C209.016 38.7093 209.625 38.6804 210.002 39.1723C210.321 39.5775 210.234 40.0405 210.234 40.1273" stroke="#262626" stroke-width="0.2" stroke-linecap="round" stroke-linejoin="round"/>
<path d="M209.278 35.9022C209.278 35.9022 208.524 35.9022 207.915 36.3941C207.306 36.915 207.016 37.841 207.016 37.841C206.146 37.8121 204.869 37.6384 203.825 36.7703C202.172 35.4392 202.781 33.8765 201.447 32.8058C200.171 31.8219 199.098 32.7768 194.429 32.5453C190.775 32.3428 189.731 31.6483 189.673 31.1852C189.644 31.0116 189.731 30.7222 189.876 30.1724C189.934 29.9409 190.021 29.6226 190.166 29.3043C190.436 28.7062 190.755 28.1371 191.123 27.5969C191.906 26.5262 192.863 25.6002 193.965 24.9057C194.69 24.4427 195.444 24.0665 196.256 23.806C198.837 22.9668 202.317 23.2851 205.131 25.1372C205.131 25.1372 208.292 27.1918 209.452 30.7801C209.829 32.0245 209.858 33.2109 209.858 33.6161C209.829 34.4553 209.684 34.9761 209.539 35.3813C209.452 35.6128 209.336 35.7864 209.278 35.9022Z" fill="#262626"/>
<path d="M189.7 35.7001C189.41 35.6423 189.149 35.6422 188.888 35.758C188.83 36.5683 188.83 37.5522 188.917 38.5939C188.956 38.6132 189.004 38.6325 189.062 38.6518C189.874 38.8254 190.686 38.3046 190.86 37.4943C191.034 36.684 190.512 35.8738 189.7 35.7001Z" fill="#FF7769"/>
<path d="M194.979 30.4034C194.08 32.1686 191.557 32.6606 189.382 31.503C187.207 30.3744 186.192 28.0305 187.091 26.2942C188.019 24.5289 190.542 24.037 192.717 25.1656C194.892 26.2942 195.907 28.6382 194.979 30.4034Z" fill="#262626"/>
<path d="M193.007 40.7632C193.21 40.5607 193.732 40.1266 194.544 39.924C195.327 39.7504 195.965 39.8662 196.284 39.953" stroke="#262626" stroke-width="0.5" stroke-linecap="round" stroke-linejoin="round"/>
<path d="M215.194 112.849C215.194 112.849 166.094 145.259 163.542 147.025C161.019 148.79 130.219 187.364 130.219 187.364" stroke="white" stroke-width="1.5" stroke-linecap="round" stroke-linejoin="round"/>
<path d="M181.726 173.155L170.879 148.5" stroke="white" stroke-width="1.5" stroke-linecap="round" stroke-linejoin="round"/>
<path d="M221.545 80.3516L221.226 111.547L179.058 100.145C183.408 100.608 197.271 101.534 210.003 92.5635C215.745 88.5411 219.37 83.8241 221.545 80.3516Z" fill="#022E8A"/>
<path d="M172.967 28.668C171.14 30.1728 169.139 31.5328 167.457 33.1534C165.659 34.8897 164.325 37.3783 165.195 39.867C165.543 40.8799 166.065 41.6612 167.283 43.1949C168.443 44.6418 169.545 45.6836 170.357 46.3781" stroke="white" stroke-width="1.5" stroke-linecap="round" stroke-linejoin="round"/>
<path d="M201.011 58.2133C201.011 58.7921 200.518 59.284 199.938 59.284C199.358 59.284 198.865 58.7921 198.865 58.2133C198.865 57.6345 199.358 57.1426 199.938 57.1426C200.518 57.1426 201.011 57.6345 201.011 58.2133Z" fill="white"/>
<path d="M200.75 62.4099C200.75 63.0176 200.257 63.4807 199.677 63.4807C199.068 63.4807 198.604 63.0176 198.604 62.4099C198.604 61.8312 199.068 61.3682 199.677 61.3682C200.257 61.3682 200.75 61.8312 200.75 62.4099Z" fill="white"/>
<path d="M200.287 67.1264C200.287 67.7051 199.823 68.1971 199.214 68.1971C198.634 68.1971 198.17 67.7051 198.17 67.1264C198.17 66.5476 198.634 66.0557 199.214 66.0557C199.823 66.0557 200.287 66.5476 200.287 67.1264Z" fill="white"/>
<path d="M220.269 118.868H34.1932C30.3649 118.868 27.2617 115.771 27.2617 111.951C27.2617 108.132 30.3649 105.035 34.1932 105.035H220.269C224.097 105.035 227.2 108.132 227.2 111.951C227.2 115.771 224.097 118.868 220.269 118.868Z" fill="#DCE7FF"/>
<path d="M223.373 209.039L220.53 209.386L205.275 114.122L213.773 113.022L223.373 209.039Z" fill="#DCE7FF"/>
<path d="M33.3232 209.039L36.1364 209.386L51.3914 114.122L42.8938 113.022L33.3232 209.039Z" fill="#DCE7FF"/>
<path d="M125.375 108.276H212.641" stroke="white" stroke-width="1.5" stroke-linecap="round" stroke-linejoin="round"/>
<path d="M121.807 108.276H111.889" stroke="white" stroke-width="1.5" stroke-linecap="round" stroke-linejoin="round"/>
<path d="M171.052 93.952H120.502C118.704 93.952 116.993 92.4762 116.674 90.682L110.844 57.4321C110.554 55.638 111.743 54.1621 113.541 54.1621H164.092C165.89 54.1621 167.601 55.638 167.92 57.4321L173.749 90.682C174.068 92.4762 172.85 93.952 171.052 93.952Z" fill="#3849C6"/>
<path d="M167.833 93.952H117.283C115.485 93.952 113.774 92.4762 113.455 90.682L107.626 57.4321C107.336 55.638 108.525 54.1621 110.323 54.1621H160.873C162.671 54.1621 164.382 55.638 164.701 57.4321L170.53 90.682C170.849 92.4762 169.631 93.952 167.833 93.952Z" fill="#3751F2"/>
<path d="M143.443 105.036H126.68L133.234 76.3579C133.408 75.5187 134.249 74.8242 135.09 74.8242H148.808C149.649 74.8242 150.171 75.5187 149.968 76.3579L143.443 105.036Z" fill="#3751F2"/>
<path d="M141.385 105.036H124.622L131.176 76.3579C131.35 75.5187 132.192 74.8242 133.033 74.8242H146.75C147.592 74.8242 148.114 75.5187 147.911 76.3579L141.385 105.036Z" fill="url(#paint0_linear_396_168)"/>
<path d="M192.95 105.035H145.3V103.443C145.3 102.894 145.735 102.431 146.286 102.431H191.935C192.515 102.431 192.95 102.894 192.95 103.443V105.035Z" fill="#4450E4"/>
<path d="M205.941 17.7295L204.375 16.9192L210.407 3L214.381 5.08354L205.941 17.7295Z" fill="#A7F1F9"/>
<path d="M208.812 19.6966L207.942 18.1629L220.645 9.7998L222.82 13.7354L208.812 19.6966Z" fill="#A7F1F9"/>
<path d="M202.287 15.5875L200.576 15.9926L195.791 1.58145L200.17 0.510742L202.287 15.5875Z" fill="#A7F1F9"/>
<path d="M89.5273 97.6566C89.7884 95.8914 90.3684 93.287 91.8185 90.48C92.6015 88.9173 93.9356 86.3708 96.3718 84.4609C101.099 80.8146 107.131 81.7985 108.669 82.0879C106.957 82.4352 103.361 83.477 100.229 86.5733C99.359 87.4125 97.6768 89.1199 96.6038 91.8111C95.6177 94.3287 95.1537 97.8303 95.1537 97.8303L89.5273 97.6566Z" fill="#94E261"/>
<path d="M94.6904 95.3122C95.0384 93.5759 95.3284 90.9425 94.8934 87.7883C94.6324 86.052 94.2553 83.216 92.5442 80.6116C89.325 75.6053 83.2637 74.5346 81.7266 74.332C83.2347 75.2291 86.2798 77.3705 88.252 81.3351C88.774 82.4058 89.8181 84.5761 89.9341 87.4699C90.0211 90.1612 89.325 93.6338 89.325 93.6338L94.6904 95.3122Z" fill="#94E261"/>
<path d="M92.6021 97.2515C92.5441 95.7757 92.3411 93.5474 91.384 91.0298C90.891 89.6697 90.0209 87.3836 88.1648 85.5605C84.5976 82.059 79.4643 82.2616 78.1592 82.3484C79.5513 82.8403 82.4514 84.0557 84.7716 86.9495C85.3806 87.7309 86.6567 89.3225 87.2657 91.6665C87.8458 93.8658 87.8748 96.8464 87.8748 96.8464L92.6021 97.2515Z" fill="#94E261"/>
<path d="M93.791 97.8297C93.82 96.9037 93.965 95.5146 94.5451 93.9809C94.8641 93.1128 95.3861 91.7237 96.5462 90.5951C98.7503 88.4248 101.941 88.5405 102.753 88.5984C101.883 88.8878 100.084 89.6402 98.6343 91.4344C98.2573 91.9263 97.4742 92.9102 97.0972 94.386C96.7492 95.7461 96.7202 97.5692 96.7202 97.5692L93.791 97.8297Z" fill="#94E261"/>
<path d="M78.1592 82.3477C83.8435 83.5052 86.2217 85.7334 87.3237 87.6723C89.1509 90.7976 89.5279 96.3248 89.5279 96.3248" stroke="#262626" stroke-width="0.5" stroke-linecap="round" stroke-linejoin="round"/>
<path d="M81.9297 74.3613C83.9308 75.1716 88.0781 77.2551 90.5722 81.6827C92.1673 84.5765 92.5443 87.4703 92.7764 89.2934C93.1244 92.0136 92.9794 94.3286 92.7764 95.9492" stroke="#262626" stroke-width="0.5" stroke-linecap="round" stroke-linejoin="round"/>
<path d="M108.669 82.0875C108.147 82.0007 102.26 81.1036 97.9093 85.5022C93.9941 89.4667 94.4291 94.6177 94.5161 95.3122" stroke="#262626" stroke-width="0.5" stroke-linecap="round" stroke-linejoin="round"/>
<path d="M102.753 88.5986C102.347 88.5986 99.1564 88.7433 97.1553 91.4346C95.6182 93.4892 95.7922 95.7753 95.8502 96.3251" stroke="#262626" stroke-width="0.5" stroke-linecap="round" stroke-linejoin="round"/>
<path d="M93.7928 105.557H91.1826C88.7754 105.557 86.8613 103.618 86.8613 101.245V94.6758H98.114V101.245C98.114 103.618 96.1709 105.557 93.7928 105.557Z" fill="#FDB6D6"/>
<path d="M96.8666 97.251V100.434C96.8666 102.344 95.3295 103.878 93.4154 103.878H92.4873" stroke="white" stroke-width="1.5" stroke-linecap="round" stroke-linejoin="round"/>
<defs>
<linearGradient id="paint0_linear_396_168" x1="136.288" y1="74.8242" x2="136.288" y2="125.5" gradientUnits="userSpaceOnUse">
<stop stop-color="#3751F2"/>
<stop offset="1" stop-color="#07E2FA"/>
</linearGradient>
</defs>
</svg>
